<?xml version="1.0" encoding="UTF-8"?>
<svg xmlns="http://www.w3.org/2000/svg" xmlns:xlink="http://www.w3.org/1999/xlink" width="2000px" height="599px" viewBox="0 0 2000 599" version="1.1">
<g id="surface1">
<path style="fill-rule:evenodd;fill:rgb(0%,0%,0%);fill-opacity:0.101961;stroke-width:3;stroke-linecap:butt;stroke-linejoin:miter;stroke:rgb(0%,0%,0%);stroke-opacity:1;stroke-miterlimit:4;" d="M 251.528063 83.066406 L 254.053016 92.15625 L 254.558172 112.613281 L 253.043531 115.640625 L 250.770328 118.421875 L 246.729906 118.421875 L 245.214438 120.1875 L 242.184328 120.1875 L 241.174016 123.722656 L 232.588016 132.816406 L 219.708187 135.84375 L 213.394563 136.097656 L 211.879094 134.328125 L 211.879094 137.359375 L 210.869609 137.613281 L 208.596406 135.339844 L 207.586094 137.613281 L 208.596406 139.378906 L 208.596406 144.179688 L 210.869609 145.1875 L 209.859297 150.746094 C 209.859297 150.746094 210.046453 150.574219 209.859297 150.746094 C 198.646484 160.847656 187.383156 159.078125 187.383156 159.078125 C 190.161516 165.644531 185.615938 164.632812 185.615938 164.632812 L 187.635734 166.402344 L 185.615938 168.421875 L 186.625422 171.199219 L 184.353047 178.019531 L 180.312625 181.300781 C 173.241266 173.726562 170.968063 184.332031 170.968063 184.332031 L 167.685375 187.363281 L 166.675062 190.140625 L 167.937953 193.171875 L 166.422484 195.949219 L 168.443109 199.230469 C 168.364438 198.863281 164.266875 204.84375 166.422484 209.585938 C 158.594219 208.070312 159.603703 226.507812 159.603703 226.507812 L 157.836484 229.03125 L 161.624328 233.324219 L 162.382062 235.851562 C 166.675062 247.71875 161.37175 251.507812 161.37175 251.507812 L 161.37175 255.800781 L 158.089062 259.335938 C 152.78575 269.4375 160.614016 269.4375 160.614016 269.4375 L 161.624328 274.992188 L 158.594219 278.023438 L 154.552969 278.023438 L 150.512547 282.820312 L 150.259969 285.851562 L 147.987594 286.863281 C 144.956656 309.085938 135.107766 303.53125 135.107766 303.53125 L 133.844875 302.519531 L 129.804453 302.015625 L 128.037234 303.277344 L 126.269188 302.015625 L 125.258875 300.5 L 123.23825 302.015625 L 116.420297 302.519531 L 115.409984 303.78125 L 115.662562 306.308594 L 118.440094 309.339844 L 118.440094 329.542969 L 117.178031 331.058594 L 117.430609 334.84375 L 107.580891 352.523438 L 107.580891 360.351562 L 105.813672 361.363281 L 105.055937 363.632812 L 102.530156 364.644531 L 99.500047 367.171875 L 100.510359 374.746094 L 97.984578 376.515625 L 97.984578 377.019531 L 94.701891 380.808594 L 94.449312 390.65625 L 91.670953 392.421875 C 91.670953 392.421875 91.484625 395.355469 91.419203 395.707031 C 89.925266 403.71875 85.358156 403.789062 85.358156 403.789062 L 83.393016 418.464844 L 69.821703 432.929688 C 69.821703 432.929688 68.750109 433.820312 68.035438 434.179688 C 67.321594 434.535156 64.464562 434.535156 64.464562 434.535156 L 63.749891 437.214844 C 56.071516 449.179688 51.964016 472.570312 51.964016 472.570312 L 45.000312 484.179688 L 44.285641 489 L 41.428609 491.5 L 39.821219 491.855469 L 38.571578 490.605469 L 36.964188 492.214844 L 37.143062 494 L 40.178969 493.820312 L 42.321328 497.214844 L 42.142453 507.035156 L 34.999875 523.285156 L 33.928281 524.179688 L 30.357406 524.894531 L 27.500375 528.644531 L 25.892984 533.820312 L 24.464469 535.605469 L 15.35675 540.605469 L 13.571312 543.105469 L 12.857469 545.605469 L 28.571141 548.644531 L 32.321719 546.679688 L 36.071469 549.355469 L 40.535891 548.464844 L 40.892812 544.535156 L 43.749844 545.964844 L 47.142672 548.105469 L 59.285469 546.320312 L 63.036047 543.464844 L 64.464562 545.964844 L 68.571234 546.144531 L 70.535547 551.5 L 76.428484 559 L 81.071781 559.714844 L 81.9645 560.785156 L 83.571062 560.605469 L 85.000406 559.179688 L 97.32125 557.394531 L 101.964547 550.605469 L 111.428359 550.070312 L 116.249703 551.144531 L 116.607453 542.929688 L 121.606844 543.105469 L 124.285828 537.570312 L 121.964594 535.964844 L 128.035578 519.355469 L 125.535469 511.5 L 129.642969 505.785156 L 129.821844 501.144531 L 133.035797 497.75 L 134.643187 492.214844 L 137.857141 493.105469 L 138.749859 498.285156 L 147.85675 505.964844 L 149.286094 505.070312 L 148.928344 497.035156 L 154.285484 494.355469 L 157.142516 496.5 L 166.964078 489.714844 L 170.714656 489 L 173.035891 481.679688 L 175.357125 480.070312 C 175.357125 480.070312 177.142562 480.070312 177.321438 480.785156 C 177.500313 481.5 179.999594 482.035156 179.999594 482.035156 L 189.821156 478.285156 L 196.785687 473.285156 L 199.285797 472.214844 L 199.642719 466.144531 L 202.142828 460.070312 L 221.964 449 L 221.964 446.679688 L 225.892625 444.535156 L 228.392734 443.105469 L 231.607516 442.75 L 233.571828 436.320312 L 235.000344 434.535156 L 231.249766 431.5 L 230.892844 429.179688 C 229.82125 423.820312 238.571219 420.605469 238.571219 420.605469 L 238.571219 420.785156 L 241.250203 417.214844 L 245.892672 416.320312 L 247.500062 419.355469 L 251.964484 417.929688 L 254.464594 417.929688 L 262.856812 408.644531 C 267.321234 401.855469 256.785828 397.035156 256.785828 397.035156 L 251.428687 391.144531 L 248.035859 390.964844 L 243.035641 386.5 L 239.642812 386.855469 L 234.285672 386.144531 L 234.642594 383.464844 L 236.785781 379.535156 L 237.857375 376.855469 L 239.999734 375.785156 L 240.357484 371.855469 L 242.678719 370.429688 L 236.071109 362.035156 L 241.250203 358.464844 L 248.213906 355.964844 L 254.106844 349.179688 L 258.571266 349.179688 L 264.643078 340.429688 L 266.785438 335.429688 L 270.714063 334.179688 L 276.250078 334 L 280.892547 330.429688 L 280.892547 328.105469 L 285.178922 329.714844 L 289.107547 325.605469 L 290.357188 322.035156 L 296.428172 328.464844 L 298.214437 327.75 L 303.9285 331.144531 L 308.571797 328.285156 L 311.249953 326.5 L 313.035391 324.535156 L 321.428437 326.679688 L 332.499641 331.5 L 345.714031 331.5 L 349.285734 333.105469 L 353.035484 328.644531 L 349.464609 324.535156 L 346.785625 316.855469 L 343.571672 311.855469 L 333.035438 311.679688 L 322.500031 313.644531 L 320.178797 312.394531 L 326.607531 304 L 327.50025 300.429688 L 334.99975 292.929688 L 336.607141 289 L 341.964281 286.679688 L 350.535375 277.75 L 351.963891 271.679688 L 357.321031 271.679688 L 355.535594 267.394531 L 359.107297 269.179688 L 362.857047 264.535156 L 368.928859 267.570312 L 375.892562 266.679688 L 380.178937 265.070312 L 384.821406 257.570312 L 382.321297 251.855469 L 392.499781 242.214844 L 396.607281 241.144531 L 400.357031 235.070312 L 399.464313 233.105469 L 402.857141 231.679688 L 403.749859 226.855469 L 408.750078 222.929688 L 412.85675 222.75 L 411.607109 217.570312 L 412.678703 215.429688 L 410.535516 209.355469 L 405.714172 199 L 405.714172 195.605469 L 407.678484 192.214844 L 400.713953 188.820312 L 396.785328 185.25 L 398.392719 180.785156 L 393.928297 176.320312 L 390.178547 167.214844 L 397.5 160.605469 L 398.214672 154.179688 L 398.749641 151.320312 L 396.071484 151.5 L 393.214453 149.894531 L 388.393109 148.464844 L 382.500172 142.214844 L 383.571766 139.535156 L 379.643141 139.894531 L 374.642922 138.285156 L 372.678609 134 L 368.393062 131.855469 L 370.893172 126.855469 L 369.821578 124.179688 L 364.642484 123.285156 L 362.500125 122.570312 L 356.428313 125.964844 L 347.500297 125.070312 L 344.643266 122.394531 L 352.678562 116.144531 L 354.464 116.144531 L 355.892516 112.929688 L 360.714687 112.035156 L 363.213969 108.105469 L 359.821141 104.355469 L 358.392625 101.855469 L 360.892734 94 L 365.536031 96.5 L 366.249875 99.179688 L 371.428969 99.894531 L 373.214406 96.679688 L 375.356766 85.25 L 372.857484 84.894531 L 364.285562 88.285156 L 358.928422 83.820312 L 356.071391 85.964844 L 347.142547 77.570312 L 346.9645 73.464844 L 348.571062 71.320312 L 343.928594 67.214844 C 333.035438 69.355469 336.071344 77.929688 336.071344 77.929688 L 334.107031 83.105469 C 326.964453 90.070312 319.999922 83.820312 319.999922 83.820312 L 317.142891 86.320312 L 313.750063 87.035156 L 310.536109 85.070312 L 309.464516 83.644531 L 303.035781 83.644531 L 302.143062 85.429688 L 299.821828 85.070312 L 289.285594 81.679688 L 287.143234 83.464844 L 282.499937 82.929688 L 280.892547 84.894531 L 277.499719 84.179688 L 273.571094 82.394531 L 270.714063 84.535156 L 266.249641 84.179688 L 259.463984 79.535156 L 255.714234 79.179688 L 254.821516 77.214844 L 252.678328 77.570312 Z M 251.528063 83.066406 " transform="matrix(4.716981,0,0,1,0,0)"/>
<path style="fill:none;stroke-width:1;stroke-linecap:butt;stroke-linejoin:miter;stroke:rgb(0%,0%,0%);stroke-opacity:1;stroke-miterlimit:4;" d="M 328.687781 132 L 320.750203 138.9375 L 317.499813 138.4375 L 318.250094 145.1875 L 318.500187 149.21875 L 315.968609 150.21875 L 314.468875 148.96875 L 313.218406 150.21875 L 308.968469 149.71875 L 299.937766 152.21875 L 297.937844 149.96875 L 292.437437 149.96875 L 291.187797 146.1875 L 287.406578 141.4375 L 270.624625 140.9375 L 267.87525 142.6875 L 256.593703 142.6875 L 253.344141 140.9375 L 250.593937 140.9375 L 248.812641 145.9375 L 244.562703 146.6875 L 242.062594 148.21875 L 243.812422 149.71875 L 241.312312 152.46875 L 243.062141 152.96875 L 242.312687 155.46875 L 238.06275 157.71875 L 235.531172 156.71875 L 235.781266 162.5 L 237.562562 165.25 L 237.062375 167.75 L 242.312687 171.25 L 243.562328 174.28125 L 249.062734 177.78125 L 250.09375 179.53125 L 253.094047 180.53125 L 258.593625 187.28125 L 260.343453 186.53125 L 262.343375 187.53125 L 262.468422 191.34375 L 267.375063 191.0625 L 269.625078 193.0625 L 275.624844 191.3125 L 281.405984 190.5625 L 284.156187 188.3125 L 284.406281 184.53125 L 287.655844 183.78125 L 290.250359 185.34375 L 290.937703 182.3125 L 292.187344 182.0625 L 295.219109 176.75 L 296.718844 173.46875 L 299.749781 173.46875 L 305.562391 169.6875 L 305.812484 167.40625 L 309.343609 164.875 C 309.343609 164.875 309.708812 164.976562 310.281047 164.90625 C 310.853281 164.835938 311.663187 164.601562 312.499594 164 C 312.918625 163.699219 313.323578 163.300781 313.750063 162.78125 C 314.176547 162.261719 314.603031 161.636719 314.999703 160.84375 C 315.396375 160.050781 315.765719 159.09375 316.093656 157.96875 C 316.421594 156.84375 316.716406 155.546875 316.937516 154.03125 L 319.219 153.78125 L 320.968828 151.5 L 323.000219 144.1875 L 324.750047 140.65625 L 325.530969 137.875 L 329.562281 133.5625 Z M 328.687781 132 " transform="matrix(4.716981,0,0,1,0,0)"/>
<path style="fill:none;stroke-width:1;stroke-linecap:butt;stroke-linejoin:miter;stroke:rgb(0%,0%,0%);stroke-opacity:1;stroke-miterlimit:4;" d="M 289.4065 189 L 289.156406 190.15625 L 284.624906 194.4375 L 282.343422 194.9375 L 274.999609 204.28125 L 274.50025 205.8125 L 270.906187 210 L 268.187453 213.65625 L 264.968531 214.6875 L 256.343609 225.5 L 262.875031 226.625 L 256.312141 239.375 L 254.812406 241.65625 L 253.281203 248.21875 L 252.781016 250.5 L 248.999797 250.5 L 245.468672 263.625 L 243.437281 264.90625 L 238.156328 271.71875 L 230.812516 274.75 L 226.781203 279.78125 L 226.531109 285.59375 L 221.468781 290.65625 L 222.219063 294.6875 L 225.531563 294.9375 L 226.187437 296.40625 L 229.281312 297.4375 L 231.062609 302.03125 L 235.999891 303.4375 L 239.187344 302.375 L 243.093609 305.5625 L 245.218578 309.125 L 246.656203 309.46875 L 245.937391 313.375 L 250.187328 319.75 L 254.437266 317.625 L 256.218563 314.09375 L 260.4685 313.375 L 259.749687 315.84375 L 264.374766 317.96875 L 268.250391 316.5625 L 270.030859 316.5625 L 271.437844 319.40625 L 273.937125 318.6875 L 275.344109 319.75 L 266.999922 335.375 L 270.719031 334.1875 L 276.250078 334 L 280.906625 330.4375 L 280.906625 328.09375 L 285.187203 329.71875 L 289.093469 325.59375 L 290.343937 322.03125 L 296.437281 328.46875 L 298.218578 327.75 L 303.937609 331.15625 L 308.562687 328.28125 L 311.249953 326.5 L 313.03125 324.53125 L 321.437547 326.6875 L 332.499641 331.5 L 345.719 331.5 L 349.281594 333.09375 L 353.031344 328.65625 L 349.46875 324.53125 L 346.781484 316.84375 L 343.562563 311.84375 L 333.031297 311.6875 L 322.500031 313.65625 L 320.187906 312.40625 L 326.593453 304 L 327.50025 300.4375 L 334.99975 292.9375 L 336.593891 289 L 341.968422 286.6875 L 350.531234 277.75 L 351.968859 271.6875 L 357.31275 271.6875 L 355.531453 267.40625 L 359.094047 269.1875 L 362.843797 264.53125 L 368.937141 267.5625 L 375.906641 266.6875 L 380.187219 265.0625 L 384.812297 257.5625 L 382.312187 251.84375 L 392.499781 242.21875 L 396.594031 241.15625 L 400.343781 235.0625 L 399.468453 233.09375 L 402.843891 231.6875 L 403.749859 226.84375 L 408.750078 222.9375 L 412.8435 222.75 L 411.593859 217.5625 L 412.687813 215.4375 L 410.531375 209.34375 L 405.719141 199 L 405.719141 195.59375 L 407.687594 192.21875 L 400.718922 188.8125 L 396.781187 185.25 L 398.405969 180.78125 L 393.937406 176.3125 L 390.187656 167.21875 L 397.5 160.59375 L 398.218813 154.1875 L 398.749641 151.3125 L 396.062375 151.5 L 393.218594 149.90625 L 388.406359 148.46875 L 382.875313 142.625 L 377.750047 145.03125 L 376.343891 150.71875 L 372.437625 152.84375 L 362.531594 162.40625 L 362.156453 166.65625 L 359.344141 167.71875 L 355.437875 170.5625 L 349.780953 171.625 L 347.999656 178.34375 L 347.655984 183.6875 L 345.874687 190.0625 L 342.687234 197.5 L 335.249844 191.46875 L 332.406063 191.125 L 330.281094 193.25 L 332.062391 193.59375 L 332.062391 196.4375 L 329.218609 199.96875 L 321.781219 196.0625 L 316.468797 197.84375 L 318.593766 200.34375 L 327.437313 203.53125 L 332.406063 204.21875 L 332.062391 207.40625 L 329.937422 210.25 L 320.718734 207.0625 L 315.031172 205.65625 L 317.156141 203.875 L 312.906203 201.03125 L 306.874969 201.03125 L 299.437578 198.90625 L 293.437813 195.71875 L 294.843969 192.1875 L 293.062672 190.0625 L 290.218891 190.0625 Z M 289.4065 189 " transform="matrix(4.716981,0,0,1,0,0)"/>
<path style="fill:none;stroke-width:1;stroke-linecap:butt;stroke-linejoin:miter;stroke:rgb(0%,0%,0%);stroke-opacity:1;stroke-miterlimit:4;" d="M 265.655875 214.5625 L 259.093813 210.59375 L 257.093891 212.59375 L 253.593406 212.59375 L 249.843656 211.59375 L 245.56225 212.59375 L 244.062516 211.34375 L 240.312766 210.09375 L 236.812281 210.34375 L 233.781344 211.59375 L 232.031516 211.34375 L 231.031141 206.59375 L 228.531031 203.09375 L 224.531187 203.59375 L 222.249703 200.5625 L 219.000141 200.5625 L 217.000219 198.8125 L 212.500187 200.0625 L 210.500266 201.34375 L 200.968547 199.3125 L 193.187484 194.5625 L 186.187344 192.8125 L 184.687609 190.5625 L 185.93725 188.8125 L 183.187875 185.53125 L 180.656297 185.28125 L 179.187203 180.375 C 173.038375 175.121094 170.968891 184.34375 170.968891 184.34375 L 167.687859 187.375 L 166.687484 190.15625 L 167.937125 193.15625 L 166.437391 195.9375 L 168.437312 199.21875 C 168.359469 198.851562 164.281781 204.851562 166.437391 209.59375 C 165.947969 209.5 165.579453 209.699219 165.156281 209.75 L 171.968437 210.09375 L 175.781125 214.875 L 182.344016 214.875 L 187.124781 218.1875 L 192.687297 218.1875 L 193.187484 216.15625 L 195.969156 214.375 L 200.249734 215.65625 L 200.781391 219.4375 L 205.312891 219.6875 L 205.562156 215.65625 L 207.093359 217.40625 L 212.625234 217.40625 L 219.718953 221.71875 L 219.468859 226.25 L 221.968969 229.53125 L 229.062687 229.78125 L 230.812516 228.28125 L 235.125391 228.28125 L 237.375406 226 L 239.405969 225.5 L 251.031187 229.78125 L 255.812781 232.8125 L 256.843797 238.375 L 262.624937 227 L 256.062875 225.75 L 265.156516 214.875 Z M 265.655875 214.5625 " transform="matrix(4.716981,0,0,1,0,0)"/>
<path style="fill:none;stroke-width:1;stroke-linecap:butt;stroke-linejoin:miter;stroke:rgb(0%,0%,0%);stroke-opacity:1;stroke-miterlimit:4;" d="M 204.531141 200.0625 L 207.218406 198.3125 L 206.468953 195.8125 L 210.250172 194.3125 L 210.999625 192.3125 L 214.500109 192.3125 L 217.000219 194.8125 L 219.000141 194.0625 L 221.250156 190.0625 L 222.249703 186.78125 L 219.999687 181.28125 L 218.750047 172.5 L 218.249859 168 L 219.500328 164.5 L 217.500406 161.75 L 219.000141 160.46875 L 221.50025 160.46875 L 223.031453 155.46875 L 217.999766 156.21875 L 213.749828 147.71875 L 211.624859 152.1875 L 205.718672 156.71875 L 198.968625 161 L 196.187781 158.25 C 191.031875 159.589844 187.374875 159.09375 187.374875 159.09375 C 190.153234 165.660156 185.625047 164.625 185.625047 164.625 L 187.624969 166.40625 L 185.625047 168.4375 L 186.375328 170.5 L 190.187187 170.25 L 194.937312 176.78125 L 192.687297 177.53125 L 188.187266 179.28125 L 186.687531 180.53125 L 184.030906 178.28125 L 180.312625 181.3125 C 180.028578 181.007812 179.785109 180.84375 179.530875 180.65625 L 179.375187 181.03125 L 180.656297 185.28125 L 183.187875 185.53125 L 185.93725 188.8125 L 184.687609 190.5625 L 186.187344 192.8125 L 193.187484 194.5625 L 200.968547 199.3125 Z M 204.531141 200.0625 " transform="matrix(4.716981,0,0,1,0,0)"/>
<path style="fill:none;stroke-width:1;stroke-linecap:butt;stroke-linejoin:miter;stroke:rgb(0%,0%,0%);stroke-opacity:1;stroke-miterlimit:4;" d="M 179.375187 181.03125 L 179.530875 180.65625 C 179.420734 180.574219 179.301484 180.472656 179.187203 180.375 Z M 179.375187 181.03125 " transform="matrix(4.716981,0,0,1,0,0)"/>
<path style="fill:none;stroke-width:1;stroke-linecap:butt;stroke-linejoin:miter;stroke:rgb(0%,0%,0%);stroke-opacity:1;stroke-miterlimit:4;" d="M 222.156125 155.59375 L 222.249703 155.46875 L 223.531641 152.71875 L 219.749594 149.21875 L 218.750047 145.9375 L 221.250156 142.9375 L 221.50025 138.6875 L 219.218766 135.875 L 213.406156 136.09375 L 211.874953 134.34375 L 211.874953 137.375 L 210.875406 137.625 L 208.593922 135.34375 L 207.593547 137.625 L 208.593922 139.375 L 208.593922 144.1875 L 210.875406 145.1875 L 209.843562 150.75 C 204.971703 155.140625 200.148703 157.222656 196.187781 158.25 L 198.968625 161 L 205.718672 156.71875 L 211.624859 152.1875 L 213.749828 147.71875 L 217.999766 156.21875 Z M 222.156125 155.59375 " transform="matrix(4.716981,0,0,1,0,0)"/>
<path style="fill:none;stroke-width:1;stroke-linecap:butt;stroke-linejoin:miter;stroke:rgb(0%,0%,0%);stroke-opacity:1;stroke-miterlimit:4;" d="M 221.281625 142.375 L 221.750344 142.4375 L 223.780906 142.4375 L 225.031375 138.6875 L 228.781125 136.9375 L 235.781266 139.6875 L 238.06275 136.9375 L 240.812125 137.4375 L 240.062672 139.1875 L 241.312312 143.1875 L 243.562328 140.9375 L 245.062891 141.4375 L 244.062516 138.4375 L 246.312531 136.9375 L 248.312453 138.4375 L 250.593937 138.4375 L 251.593484 135.9375 L 249.843656 132.90625 L 248.562547 130.90625 L 252.093672 127.90625 L 253.8435 127.90625 L 254.593781 126.15625 L 252.093672 123.40625 L 249.843656 125.15625 L 247.062813 123.40625 L 246.812719 118.40625 L 246.719141 118.40625 L 245.218578 120.1875 L 242.187641 120.1875 L 241.187266 123.71875 L 232.593812 132.8125 L 219.718953 135.84375 L 219.218766 135.875 L 221.50025 138.6875 Z M 221.281625 142.375 " transform="matrix(4.716981,0,0,1,0,0)"/>
<path style="fill:none;stroke-width:1;stroke-linecap:butt;stroke-linejoin:miter;stroke:rgb(0%,0%,0%);stroke-opacity:1;stroke-miterlimit:4;" d="M 290.250359 185.34375 L 287.655844 183.78125 L 284.406281 184.53125 L 284.156187 188.3125 L 281.405984 190.5625 L 275.624844 191.3125 L 269.625078 193.0625 L 267.375063 191.0625 L 258.843719 191.5625 L 255.344063 194.8125 L 250.343844 194.3125 L 247.062813 193.5625 L 244.312609 191.3125 L 241.8125 191.3125 L 241.8125 195.0625 L 238.562109 195.0625 L 237.312469 192.5625 L 234.281531 189.3125 L 226.030922 186.78125 L 222.781359 185.78125 L 221.530891 185 L 222.249703 186.78125 L 221.250156 190.0625 L 219.000141 194.0625 L 217.000219 194.8125 L 214.500109 192.3125 L 210.999625 192.3125 L 210.250172 194.3125 L 206.468953 195.8125 L 207.218406 198.3125 L 204.531141 200.0625 L 210.500266 201.34375 L 212.500187 200.0625 L 217.000219 198.8125 L 219.000141 200.5625 L 222.249703 200.5625 L 224.531187 203.59375 L 228.531031 203.09375 L 231.031141 206.59375 L 232.031516 211.34375 L 233.781344 211.59375 L 236.812281 210.34375 L 240.312766 210.09375 L 244.062516 211.34375 L 245.56225 212.59375 L 249.843656 211.59375 L 253.593406 212.59375 L 257.093891 212.59375 L 259.093813 210.59375 L 265.655875 214.5625 L 268.437547 212.875 L 274.50025 205.8125 L 274.999609 204.28125 L 282.343422 194.9375 L 284.624906 194.4375 L 289.156406 190.15625 Z M 290.250359 185.34375 " transform="matrix(4.716981,0,0,1,0,0)"/>
<path style="fill:none;stroke-width:1;stroke-linecap:butt;stroke-linejoin:miter;stroke:rgb(0%,0%,0%);stroke-opacity:1;stroke-miterlimit:4;" d="M 254.562312 141.59375 L 252.18725 127.90625 L 252.093672 127.90625 L 248.562547 130.90625 L 249.843656 132.90625 L 251.593484 135.9375 L 250.593937 138.4375 L 248.312453 138.4375 L 246.312531 136.9375 L 244.062516 138.4375 L 245.062891 141.4375 L 243.562328 140.9375 L 241.312312 143.1875 L 240.062672 139.1875 L 240.812125 137.4375 L 238.06275 136.9375 L 235.781266 139.6875 L 228.781125 136.9375 L 225.031375 138.6875 L 223.780906 142.4375 L 221.750344 142.4375 L 221.281625 142.375 L 221.250156 142.9375 L 218.750047 145.9375 L 219.749594 149.21875 L 223.531641 152.71875 L 222.249703 155.46875 L 222.156125 155.59375 L 223.031453 155.46875 L 221.50025 160.46875 L 219.000141 160.46875 L 217.500406 161.75 L 219.500328 164.5 L 218.249859 168 L 218.750047 172.5 L 219.999687 181.28125 L 221.530891 185 L 222.781359 185.78125 L 226.030922 186.78125 L 234.281531 189.3125 L 237.312469 192.5625 L 238.562109 195.0625 L 241.8125 195.0625 L 241.8125 191.3125 L 244.312609 191.3125 L 247.062813 193.5625 L 250.343844 194.3125 L 255.344063 194.8125 L 258.843719 191.5625 L 262.468422 191.34375 L 262.343375 187.53125 L 260.343453 186.53125 L 258.593625 187.28125 L 253.094047 180.53125 L 250.09375 179.53125 L 249.062734 177.78125 L 243.562328 174.28125 L 242.312687 171.25 L 237.062375 167.75 L 237.562562 165.25 L 235.781266 162.5 L 235.531172 156.71875 L 238.06275 157.71875 L 242.312687 155.46875 L 243.062141 152.96875 L 241.312312 152.46875 L 243.812422 149.71875 L 242.062594 148.21875 L 244.562703 146.6875 L 248.812641 145.9375 L 250.593937 140.9375 L 253.344141 140.9375 Z M 254.562312 141.59375 " transform="matrix(4.716981,0,0,1,0,0)"/>
<path style="fill:none;stroke-width:1;stroke-linecap:butt;stroke-linejoin:miter;stroke:rgb(0%,0%,0%);stroke-opacity:1;stroke-miterlimit:4;" d="M 184.030906 178.28125 L 186.687531 180.53125 L 188.187266 179.28125 L 192.687297 177.53125 L 194.937312 176.78125 L 190.187187 170.25 L 186.375328 170.5 L 186.624594 171.1875 L 184.343937 178.03125 Z M 184.030906 178.28125 " transform="matrix(4.716981,0,0,1,0,0)"/>
<path style="fill-rule:evenodd;fill:rgb(0%,76.078431%,100%);fill-opacity:0.219608;stroke-width:2;stroke-linecap:butt;stroke-linejoin:miter;stroke:rgb(0%,0%,0%);stroke-opacity:1;stroke-miterlimit:4;" d="M 246.719141 118.40625 L 245.218578 120.1875 L 242.187641 120.1875 L 241.187266 123.71875 L 232.593812 132.8125 L 219.718953 135.84375 L 219.218766 135.875 L 211.874953 137.375 L 210.875406 137.625 L 208.593922 135.34375 L 207.593547 137.625 L 208.593922 139.375 L 208.593922 144.1875 L 210.875406 145.1875 L 209.843562 150.75 C 204.971703 155.140625 200.148703 157.222656 196.187781 158.25 C 191.031875 159.589844 187.374875 159.09375 187.374875 159.09375 C 190.153234 165.660156 185.625047 164.625 185.625047 164.625 L 187.624969 166.40625 L 185.625047 168.4375 L 186.375328 170.5 L 186.624594 171.1875 L 184.343937 178.03125 L 184.030906 178.28125 L 180.312625 181.3125 C 180.028578 181.007812 179.785109 180.84375 179.530875 180.65625 L 179.375187 181.03125 L 179.187203 180.375 C 173.038375 175.121094 170.968891 184.34375 170.968891 184.34375 L 167.687859 187.375 L 166.687484 190.15625 L 167.937125 193.15625 L 166.437391 195.9375 L 168.437312 199.21875 C 168.359469 198.851562 164.281781 204.851562 166.437391 209.59375 C 165.947969 209.5 165.579453 209.699219 165.156281 209.75 L 171.968437 210.09375 L 175.781125 214.875 L 182.344016 214.875 L 187.124781 218.1875 L 192.687297 218.1875 L 193.187484 216.15625 L 195.969156 214.375 L 200.249734 215.65625 L 200.781391 219.4375 L 205.312891 219.6875 L 205.562156 215.65625 L 207.093359 217.40625 L 212.625234 217.40625 L 219.718953 221.71875 L 219.468859 226.25 L 221.968969 229.53125 L 229.062687 229.78125 L 230.812516 228.28125 L 235.125391 228.28125 L 237.375406 226 L 239.405969 225.5 L 251.031187 229.78125 L 255.812781 232.8125 L 256.843797 238.375 L 262.624937 227 L 256.062875 225.75 L 265.156516 214.875 L 265.655875 214.5625 L 268.437547 212.875 L 274.50025 205.8125 L 274.999609 204.28125 L 282.343422 194.9375 L 284.624906 194.4375 L 289.156406 190.15625 L 290.250359 185.34375 L 290.937703 182.3125 L 292.187344 182.0625 L 295.219109 176.75 L 296.718844 173.46875 L 299.749781 173.46875 L 305.562391 169.6875 L 305.812484 167.40625 L 309.343609 164.875 C 309.343609 164.875 309.708812 164.976562 310.281047 164.90625 C 310.853281 164.835938 311.663187 164.601562 312.499594 164 C 312.918625 163.699219 313.323578 163.300781 313.750063 162.78125 C 314.176547 162.261719 314.603031 161.636719 314.999703 160.84375 C 315.396375 160.050781 315.765719 159.09375 316.093656 157.96875 C 316.421594 156.84375 316.716406 155.546875 316.937516 154.03125 L 319.219 153.78125 L 320.968828 151.5 L 323.000219 144.1875 L 324.750047 140.65625 L 325.530969 137.875 L 329.562281 133.5625 L 328.687781 132 L 320.750203 138.9375 L 317.499813 138.4375 L 318.250094 145.1875 L 318.500187 149.21875 L 315.968609 150.21875 L 314.468875 148.96875 L 313.218406 150.21875 L 308.968469 149.71875 L 299.937766 152.21875 L 297.937844 149.96875 L 292.437437 149.96875 L 291.187797 146.1875 L 287.406578 141.4375 L 270.624625 140.9375 L 267.87525 142.6875 L 256.593703 142.6875 L 254.562312 141.59375 L 252.18725 127.90625 L 253.8435 127.90625 L 254.593781 126.15625 L 252.093672 123.40625 L 249.843656 125.15625 L 247.062813 123.40625 L 246.812719 118.40625 Z M 246.719141 118.40625 " transform="matrix(4.716981,0,0,1,0,0)"/>
<path style="fill:none;stroke-width:1;stroke-linecap:butt;stroke-linejoin:miter;stroke:rgb(0%,0%,0%);stroke-opacity:1;stroke-miterlimit:4;" d="M 116.593375 542.9375 L 109.594062 539.15625 L 111.125266 532.34375 L 112.374906 529.8125 L 111.125266 527.78125 L 111.874719 522.21875 L 111.624625 515.40625 L 109.343969 516.40625 L 103.781453 516.15625 L 100.749687 509.59375 L 98.000312 506.8125 L 98.000312 500 L 101.781531 496.46875 L 102.280891 493.6875 L 104.031547 491.40625 L 102.530984 490.65625 L 98.187469 492.375 L 97.71875 493.9375 L 96.469109 495.96875 L 94.687812 497.21875 L 94.687812 503.53125 L 92.687891 505.0625 L 90.406406 502.53125 L 88.656578 501.53125 L 87.125375 505.0625 L 86.625187 507.84375 L 84.093609 507.84375 L 80.312391 508.84375 L 79.562109 510.875 L 85.093984 513.125 L 84.343703 514.90625 L 82.062219 513.90625 L 79.562109 517.4375 L 76.000344 516.15625 L 77.281453 519.6875 L 72.468391 524 L 67.937719 522.46875 L 69.687547 525.5 L 68.937266 527.03125 L 66.406516 527.03125 L 66.937344 529.5625 L 63.906406 532.34375 L 64.406594 541.40625 L 63.749891 544.71875 L 64.468703 545.96875 L 68.562125 546.15625 L 70.531406 551.5 L 76.437594 559 L 81.062672 559.71875 L 81.968641 560.78125 L 83.562781 560.59375 L 85.000406 559.1875 L 97.312141 557.40625 L 101.968688 550.59375 L 111.437469 550.0625 L 116.249703 551.15625 Z M 116.593375 542.9375 " transform="matrix(4.716981,0,0,1,0,0)"/>
<path style="fill:none;stroke-width:1;stroke-linecap:butt;stroke-linejoin:miter;stroke:rgb(0%,0%,0%);stroke-opacity:1;stroke-miterlimit:4;" d="M 129.030984 470.875 L 128.031438 477.03125 L 125.499859 488.125 L 123.249844 487.125 L 119.437156 485.625 L 114.156203 485.625 L 112.875094 483.34375 L 102.781078 483.09375 L 101.312812 483.8125 L 101.781531 484.34375 L 102.280891 486.875 L 100.499594 488.65625 L 98.749766 490.40625 L 98.187469 492.375 L 102.530984 490.65625 L 104.031547 491.40625 L 102.280891 493.6875 L 101.781531 496.46875 L 98.000312 500 L 98.000312 506.8125 L 100.749687 509.59375 L 103.781453 516.15625 L 109.343969 516.40625 L 111.624625 515.40625 L 111.874719 522.21875 L 111.125266 527.78125 L 112.374906 529.8125 L 111.125266 532.34375 L 109.594062 539.15625 L 116.593375 542.9375 L 121.593594 543.09375 L 124.280859 537.5625 L 121.968734 535.96875 L 128.031438 519.34375 L 125.531328 511.5 L 129.656219 505.78125 L 129.812734 501.15625 L 133.031656 497.75 L 134.656438 492.21875 L 137.843891 493.09375 L 138.749859 498.28125 L 147.8435 505.96875 L 149.124609 505.15625 L 148.000016 492.6875 L 152.781609 486.125 L 153.280969 483.84375 L 151.781234 482.59375 L 151.781234 478.03125 L 150.500125 476.53125 L 152.031328 472.21875 L 153.781156 469.4375 L 152.781609 465.90625 L 151.531141 462.625 L 148.750297 458.59375 L 145.249812 456.53125 L 143.187781 457.3125 L 141.406484 462.625 L 135.37525 461.875 L 131.062375 464.90625 L 129.562641 470.71875 Z M 129.030984 470.875 " transform="matrix(4.716981,0,0,1,0,0)"/>
<path style="fill-rule:evenodd;fill:rgb(35.294118%,0%,100%);fill-opacity:0.207843;stroke-width:1;stroke-linecap:butt;stroke-linejoin:miter;stroke:rgb(0%,0%,0%);stroke-opacity:1;stroke-miterlimit:4;" d="M 126.780969 422.46875 L 124.750406 423.75 L 123.499938 426.53125 L 120.968359 426.53125 L 119.437156 427.78125 L 115.655937 430.0625 L 114.656391 431.3125 L 112.875094 432.5625 L 110.343516 427.53125 L 108.0935 427.53125 L 108.593688 430.5625 L 107.594141 432.5625 L 102.781078 428.78125 L 101.281344 428.78125 L 99.500047 431.5625 L 96.219016 431.0625 L 94.437719 432.5625 L 98.000312 434.09375 L 100.000234 436.625 L 97.71875 439.40625 L 92.437797 437.625 L 91.405953 440.15625 L 89.906219 446.21875 L 90.156312 449 L 93.687438 452.53125 L 94.437719 454.03125 L 91.405953 454.8125 L 91.155859 455.0625 L 86.125 456.3125 L 84.843891 459.59375 L 86.125 461.875 L 83.593422 462.625 L 79.031281 458.09375 L 78.281 453.28125 L 76.531172 454.5625 L 74.499781 454.5625 L 72.718484 456.5625 L 68.187812 460.09375 L 71.718937 459.09375 L 71.718937 462.875 L 65.656234 463.90625 C 65.656234 463.90625 68.956312 464.652344 70.218375 464.90625 C 71.481266 465.160156 72.489922 465.40625 73.500234 465.40625 C 74.510547 465.40625 76.000344 465.65625 76.000344 465.65625 L 77.781641 468.1875 C 77.781641 468.1875 78.796922 468.1875 80.312391 468.1875 C 81.070125 468.1875 81.745047 468.496094 82.250203 468.8125 C 82.755359 469.128906 83.094062 469.4375 83.094062 469.4375 L 82.062219 472.96875 L 80.562484 475 L 78.030906 477.03125 L 77.531547 479.3125 C 77.531547 479.3125 79.302078 480.808594 80.312391 481.3125 C 81.322703 481.816406 81.831172 481.808594 83.094062 482.0625 C 83.725094 482.1875 84.091125 482.527344 84.312234 482.8125 C 84.533344 483.097656 84.593797 483.34375 84.593797 483.34375 L 87.125375 483.59375 L 88.905844 481.5625 L 90.6565 483.34375 L 92.687891 485.09375 L 94.687812 484.09375 L 96.469109 482.59375 L 97.468656 481.3125 L 100.000234 482.3125 L 101.312812 483.8125 L 101.781531 484.34375 L 102.280891 486.875 L 100.499594 488.65625 L 98.749766 490.40625 L 98.187469 492.375 L 97.71875 493.9375 L 96.469109 495.96875 L 94.687812 497.21875 L 94.687812 503.53125 L 92.687891 505.0625 L 90.406406 502.53125 L 88.656578 501.53125 L 87.125375 505.0625 L 86.625187 507.84375 L 84.093609 507.84375 L 80.312391 508.84375 L 79.562109 510.875 L 85.093984 513.125 L 84.343703 514.90625 L 82.062219 513.90625 L 79.562109 517.4375 L 76.000344 516.15625 L 77.281453 519.6875 L 72.468391 524 L 67.937719 522.46875 L 69.687547 525.5 L 68.937266 527.03125 L 66.406516 527.03125 L 66.937344 529.5625 L 63.906406 532.34375 L 64.406594 541.40625 L 63.749891 544.71875 L 64.468703 545.96875 L 68.562125 546.15625 L 70.531406 551.5 L 76.437594 559 L 81.062672 559.71875 L 81.968641 560.78125 L 83.562781 560.59375 L 85.000406 559.1875 L 97.312141 557.40625 L 101.968688 550.59375 L 111.437469 550.0625 L 116.249703 551.15625 L 116.593375 542.9375 L 121.593594 543.09375 L 124.280859 537.5625 L 121.968734 535.96875 L 128.031438 519.34375 L 125.531328 511.5 L 129.656219 505.78125 L 129.812734 501.15625 L 133.031656 497.75 L 134.656438 492.21875 L 137.843891 493.09375 L 138.749859 498.28125 L 147.8435 505.96875 L 149.124609 505.15625 L 149.281125 505.0625 L 148.937453 497.03125 L 154.281344 494.34375 L 157.156594 496.5 L 166.969047 489.71875 L 170.718797 489 L 173.030922 481.6875 L 175.343875 480.0625 C 175.343875 480.0625 177.134281 480.066406 177.312328 480.78125 C 177.491203 481.496094 179.999594 482.03125 179.999594 482.03125 L 189.812875 478.28125 L 196.781547 473.28125 L 199.281656 472.21875 L 199.655969 466.15625 L 202.156078 460.0625 L 211.781375 454.6875 L 203.031406 446.96875 L 199.999641 446.21875 L 197.999719 450 L 196.968703 453.53125 L 188.906078 453.03125 L 183.343562 444.6875 L 185.625047 440.65625 L 185.124859 438.375 L 181.312172 434.59375 L 168.9375 439.90625 L 167.437766 437.375 L 165.906563 438.125 L 165.656469 442.4375 L 162.374609 446.21875 L 162.374609 447.96875 L 159.093578 451 L 156.062641 447.21875 L 149.249656 451.53125 L 146.468812 452.53125 L 146.468812 456.0625 L 145.249812 456.53125 L 143.187781 457.3125 L 141.406484 462.625 L 135.37525 461.875 L 131.062375 464.90625 L 129.562641 470.71875 L 129.030984 470.875 L 127.781344 471.21875 L 127.53125 466.40625 L 124.250219 465.90625 L 124.500312 459.59375 L 129.062453 451.78125 L 128.780891 449.75 L 126.281609 449.25 L 125.249766 447.21875 L 128.531625 441.65625 L 124.750406 437.875 L 126.031516 435.09375 L 130.812281 430.8125 L 129.312547 429.28125 L 132.593578 424.5 Z M 126.780969 422.46875 " transform="matrix(4.716981,0,0,1,0,0)"/>
<path style="fill-rule:evenodd;fill:rgb(0%,97.647059%,4.705882%);fill-opacity:0.196078;stroke-width:2;stroke-linecap:butt;stroke-linejoin:miter;stroke:rgb(0%,0%,0%);stroke-opacity:1;stroke-miterlimit:4;" d="M 152.093437 449.75 L 152.281422 446.71875 L 153.781156 443.1875 L 151.030953 442.4375 L 147.749922 448.25 L 146.468812 446.96875 L 148.750297 441.90625 L 148.000016 439.40625 L 149.999937 433.09375 L 151.281047 427.53125 L 147.219094 426 L 149.49975 418.4375 L 148.250109 413.625 L 144.437422 410.09375 L 147.749922 403.28125 L 144.969078 398.5 L 139.905922 399.5 L 136.874984 396.71875 L 133.593953 399 L 128.031438 401 L 124.000125 401 L 118.687703 403.28125 L 114.406297 403.53125 L 114.156203 404.8125 L 111.624625 405.3125 L 106.812391 403.03125 L 102.781078 401.78125 L 100.749687 399.75 L 96.469109 399.75 L 91.031641 396.875 C 89.299203 403.488281 85.344078 403.78125 85.344078 403.78125 L 83.406266 418.46875 L 69.812594 432.9375 C 69.812594 432.9375 68.745141 433.832031 68.031297 434.1875 C 67.316625 434.542969 64.468703 434.53125 64.468703 434.53125 L 63.749891 437.21875 C 56.071516 449.183594 51.968984 472.5625 51.968984 472.5625 L 45.000312 484.1875 L 44.2815 489 L 41.437719 491.5 L 39.812109 491.84375 L 38.562469 490.59375 L 36.969156 492.21875 L 37.156312 494 L 40.18725 493.8125 L 42.312219 497.21875 L 42.156531 507.03125 L 34.999875 523.28125 L 33.937391 524.1875 L 30.344156 524.90625 L 27.500375 528.65625 L 25.906234 533.8125 L 24.468609 535.59375 L 15.3435 540.59375 L 13.562203 543.09375 L 12.843391 545.59375 L 28.562859 548.65625 L 32.312609 546.6875 L 36.062359 549.34375 L 40.530922 548.46875 L 40.906062 544.53125 L 43.749844 545.96875 L 47.155922 548.09375 L 59.281328 546.3125 L 63.031078 543.46875 L 63.749891 544.71875 L 64.406594 541.40625 L 63.906406 532.34375 L 66.937344 529.5625 L 66.406516 527.03125 L 68.937266 527.03125 L 69.687547 525.5 L 67.937719 522.46875 L 72.468391 524 L 77.281453 519.6875 L 76.000344 516.15625 L 79.562109 517.4375 L 82.062219 513.90625 L 84.343703 514.90625 L 85.093984 513.125 L 79.562109 510.875 L 80.312391 508.84375 L 84.093609 507.84375 L 86.625187 507.84375 L 87.125375 505.0625 L 88.656578 501.53125 L 90.406406 502.53125 L 92.687891 505.0625 L 94.687812 503.53125 L 94.687812 497.21875 L 96.469109 495.96875 L 97.71875 493.9375 L 98.749766 490.40625 L 100.499594 488.65625 L 102.280891 486.875 L 101.781531 484.34375 L 100.000234 482.3125 L 97.468656 481.3125 L 96.469109 482.59375 L 94.687812 484.09375 L 92.687891 485.09375 L 90.6565 483.34375 L 88.905844 481.5625 L 87.125375 483.59375 L 84.593797 483.34375 C 84.593797 483.34375 84.533344 483.097656 84.312234 482.8125 C 84.091125 482.527344 83.725094 482.1875 83.094062 482.0625 C 81.831172 481.808594 81.322703 481.816406 80.312391 481.3125 C 79.302078 480.808594 77.531547 479.3125 77.531547 479.3125 L 78.030906 477.03125 L 80.562484 475 L 82.062219 472.96875 L 83.094062 469.4375 C 83.094062 469.4375 82.755359 469.128906 82.250203 468.8125 C 81.745047 468.496094 81.070125 468.1875 80.312391 468.1875 C 78.796922 468.1875 77.781641 468.1875 77.781641 468.1875 L 76.000344 465.65625 C 76.000344 465.65625 74.510547 465.40625 73.500234 465.40625 C 72.489922 465.40625 71.481266 465.160156 70.218375 464.90625 C 68.956312 464.652344 65.656234 463.90625 65.656234 463.90625 L 71.718937 462.875 L 71.718937 459.09375 L 68.187812 460.09375 L 72.718484 456.5625 L 74.499781 454.5625 L 76.531172 454.5625 L 78.281 453.28125 L 79.031281 458.09375 L 83.593422 462.625 L 86.125 461.875 L 84.843891 459.59375 L 86.125 456.3125 L 91.155859 455.0625 L 91.405953 454.8125 L 94.437719 454.03125 L 93.687438 452.53125 L 90.156312 449 L 89.906219 446.21875 L 91.405953 440.15625 L 92.437797 437.625 L 97.71875 439.40625 L 100.000234 436.625 L 98.000312 434.09375 L 94.437719 432.5625 L 96.219016 431.0625 L 99.500047 431.5625 L 101.281344 428.78125 L 102.781078 428.78125 L 107.594141 432.5625 L 108.593688 430.5625 L 108.0935 427.53125 L 110.343516 427.53125 L 112.875094 432.5625 L 114.656391 431.3125 L 115.655937 430.0625 L 119.437156 427.78125 L 120.968359 426.53125 L 123.499938 426.53125 L 124.750406 423.75 L 126.780969 422.46875 L 132.593578 424.5 L 129.312547 429.28125 L 130.812281 430.8125 L 126.031516 435.09375 L 124.750406 437.875 L 128.531625 441.65625 L 125.249766 447.21875 L 126.281609 449.25 L 128.780891 449.75 L 129.062453 451.78125 L 124.500312 459.59375 L 124.250219 465.90625 L 127.53125 466.40625 L 127.781344 471.21875 L 129.562641 470.71875 L 131.062375 464.90625 L 135.37525 461.875 L 141.406484 462.625 L 143.187781 457.3125 L 146.468812 456.0625 L 146.468812 452.53125 L 149.249656 451.53125 Z M 152.093437 449.75 " transform="matrix(4.716981,0,0,1,0,0)"/>
<path style="fill-rule:evenodd;fill:rgb(98.823529%,97.254902%,36.470588%);fill-opacity:0.341176;stroke-width:2;stroke-linecap:butt;stroke-linejoin:miter;stroke:rgb(0%,0%,0%);stroke-opacity:1;stroke-miterlimit:4;" d="M 266.999922 335.375 L 275.344109 319.75 L 273.937125 318.6875 L 271.437844 319.40625 L 270.030859 316.5625 L 268.250391 316.5625 L 264.374766 317.96875 L 259.749687 315.84375 L 260.4685 313.375 L 256.218563 314.09375 L 254.437266 317.625 L 250.187328 319.75 L 245.937391 313.375 L 246.656203 309.46875 L 245.218578 309.125 L 243.093609 305.5625 L 239.187344 302.375 L 235.999891 303.4375 L 231.062609 302.03125 L 229.281312 297.4375 L 226.187437 296.40625 L 226.531109 297.21875 L 224.499719 300.75 L 219.969047 302 L 217.437469 301.25 L 213.65625 304.53125 L 215.406078 306.0625 L 214.156437 308.0625 L 211.624859 309.34375 L 212.125047 311.875 L 206.562531 315.40625 L 200.499828 322.96875 L 198.499906 324.25 L 199.250187 326.5 L 200.499828 327.78125 L 197.218797 329.78125 L 196.218422 333.34375 L 194.468594 333.34375 L 190.655906 332.5625 L 191.156094 334.84375 L 193.437578 338.375 L 199.500281 339.65625 L 201.281578 338.875 L 201.281578 340.90625 L 199.250187 343.6875 L 199.250187 347.46875 L 196.968703 350.25 L 193.187484 353.53125 L 189.656359 355.8125 L 187.875062 359.34375 L 185.374953 362.375 L 183.593656 366.15625 L 180.812813 368.4375 L 176.531406 370.4375 L 171.469078 373.75 L 175.250297 380.3125 L 173.749734 380.3125 L 170.968891 377.53125 L 167.937125 383.09375 L 164.656094 386.875 L 159.593766 401.78125 L 157.843937 410.34375 L 154.312813 416.90625 L 152.781609 427.03125 L 151.187469 427.90625 L 149.999937 433.09375 L 148.000016 439.40625 L 148.750297 441.90625 L 146.468812 446.96875 L 147.749922 448.25 L 151.030953 442.4375 L 153.781156 443.1875 L 152.281422 446.71875 L 152.093437 449.75 L 156.062641 447.21875 L 159.093578 451 L 162.374609 447.96875 L 162.374609 446.21875 L 165.656469 442.4375 L 165.906563 438.125 L 167.437766 437.375 L 168.9375 439.90625 L 181.312172 434.59375 L 185.124859 438.375 L 185.625047 440.65625 L 183.343562 444.6875 L 188.906078 453.03125 L 196.968703 453.53125 L 197.999719 450 L 199.999641 446.21875 L 203.031406 446.96875 L 211.781375 454.6875 L 221.968969 449 L 221.968969 446.6875 L 225.905875 444.53125 L 228.405984 443.09375 L 231.593437 442.75 L 233.562719 436.3125 L 235.000344 434.53125 L 231.249766 431.5 L 230.906094 429.1875 C 229.8345 423.832031 238.562109 420.59375 238.562109 420.59375 L 238.562109 420.78125 L 241.250203 417.21875 L 245.905922 416.3125 L 247.500062 419.34375 L 251.968625 417.9375 L 254.468734 417.9375 L 262.843563 408.65625 C 267.307984 401.871094 256.780859 397.03125 256.780859 397.03125 L 251.437797 391.15625 L 248.030891 390.96875 L 243.0315 386.5 L 239.656062 386.84375 L 234.281531 386.15625 L 234.655844 383.46875 L 236.781641 379.53125 L 237.844125 376.84375 L 239.999734 375.78125 L 240.343406 371.84375 L 242.687828 370.4375 L 236.062828 362.03125 L 241.250203 358.46875 L 248.218875 355.96875 L 254.093594 349.1875 L 258.562156 349.1875 L 264.656328 340.4375 L 266.781297 335.4375 Z M 266.999922 335.375 " transform="matrix(4.716981,0,0,1,0,0)"/>
<path style="fill:none;stroke-width:1;stroke-linecap:butt;stroke-linejoin:miter;stroke:rgb(0%,0%,0%);stroke-opacity:1;stroke-miterlimit:4;" d="M 289.4065 189 L 290.218891 190.0625 L 293.062672 190.0625 L 294.843969 192.1875 L 293.437813 195.71875 L 299.437578 198.90625 L 306.874969 201.03125 L 312.906203 201.03125 L 317.156141 203.875 L 315.031172 205.65625 L 320.718734 207.0625 L 329.937422 210.25 L 332.062391 207.40625 L 332.406063 204.21875 L 327.437313 203.53125 L 318.593766 200.34375 L 316.468797 197.84375 L 321.781219 196.0625 L 329.218609 199.96875 L 332.062391 196.4375 L 332.062391 193.59375 L 330.281094 193.25 L 332.406063 191.125 L 335.249844 191.46875 L 342.687234 197.5 L 345.874687 190.0625 L 347.655984 183.6875 L 347.999656 178.34375 L 349.780953 171.625 L 355.437875 170.5625 L 359.344141 167.71875 L 362.156453 166.65625 L 362.531594 162.40625 L 372.437625 152.84375 L 376.343891 150.71875 L 377.750047 145.03125 L 382.875313 142.625 L 382.500172 142.21875 L 383.562656 139.53125 L 379.656391 139.90625 L 374.656172 138.28125 L 372.687719 134 L 368.406313 131.84375 L 370.906422 126.84375 L 369.812469 124.1875 L 364.656563 123.28125 L 362.500125 122.5625 L 356.437422 125.96875 L 347.500297 125.0625 L 345.343859 123.03125 L 343.719078 123.71875 L 342.937328 125.25 L 341.437594 125.25 L 341.437594 119.9375 L 336.125172 122.21875 L 333.3435 125.25 L 333.3435 127 L 330.81275 127.25 L 328.562734 131.8125 L 329.562281 133.5625 L 325.530969 137.875 L 324.750047 140.65625 L 323.000219 144.1875 L 320.968828 151.5 L 319.219 153.78125 L 316.937516 154.03125 C 316.716406 155.546875 316.421594 156.84375 316.093656 157.96875 C 315.765719 159.09375 315.396375 160.050781 314.999703 160.84375 C 314.603031 161.636719 314.176547 162.261719 313.750063 162.78125 C 313.323578 163.300781 312.918625 163.699219 312.499594 164 C 311.663187 164.601562 310.853281 164.835938 310.281047 164.90625 C 309.708812 164.976562 309.343609 164.875 309.343609 164.875 L 305.812484 167.40625 L 305.562391 169.6875 L 299.749781 173.46875 L 296.718844 173.46875 L 295.219109 176.75 L 292.187344 182.0625 L 290.937703 182.3125 Z M 289.4065 189 " transform="matrix(4.716981,0,0,1,0,0)"/>
<path style="fill-rule:evenodd;fill:rgb(43.921569%,70.588235%,0%);fill-opacity:0.25098;stroke-width:2;stroke-linecap:butt;stroke-linejoin:miter;stroke:rgb(0%,0%,0%);stroke-opacity:1;stroke-miterlimit:4;" d="M 343.937703 67.21875 C 333.044547 69.363281 336.062234 77.9375 336.062234 77.9375 L 334.093781 83.09375 C 326.951203 90.058594 319.999922 83.8125 319.999922 83.8125 L 317.156141 86.3125 L 313.750063 87.03125 L 310.531141 85.0625 L 309.468656 83.65625 L 303.031641 83.65625 L 302.156313 85.4375 L 299.812719 85.0625 L 289.281453 81.6875 L 287.156484 83.46875 L 282.499937 82.9375 L 280.906625 84.90625 L 277.499719 84.1875 L 273.562813 82.40625 L 270.719031 84.53125 L 266.249641 84.1875 L 259.468953 79.53125 L 255.718375 79.1875 L 254.812406 77.21875 L 252.687437 77.5625 L 251.531375 83.0625 L 254.062125 92.15625 L 254.562312 112.625 L 253.031109 115.65625 L 250.781094 118.40625 L 246.812719 118.40625 L 247.062813 123.40625 L 249.843656 125.15625 L 252.093672 123.40625 L 254.593781 126.15625 L 253.8435 127.90625 L 252.18725 127.90625 L 254.562312 141.59375 L 256.593703 142.6875 L 267.87525 142.6875 L 270.624625 140.9375 L 287.406578 141.4375 L 291.187797 146.1875 L 292.437437 149.96875 L 297.937844 149.96875 L 299.937766 152.21875 L 308.968469 149.71875 L 313.218406 150.21875 L 314.468875 148.96875 L 315.968609 150.21875 L 318.500187 149.21875 L 318.250094 145.1875 L 317.499813 138.4375 L 320.750203 138.9375 L 328.687781 132 L 328.562734 131.8125 L 330.81275 127.25 L 333.3435 127 L 333.3435 125.25 L 336.125172 122.21875 L 341.437594 119.9375 L 341.437594 125.25 L 342.937328 125.25 L 343.719078 123.71875 L 345.343859 123.03125 L 344.656516 122.40625 L 352.687672 116.15625 L 354.468969 116.15625 L 355.906594 112.9375 L 360.718828 112.03125 L 363.218937 108.09375 L 359.812859 104.34375 L 358.405875 101.84375 L 360.905984 94 L 365.531062 96.5 L 366.249875 99.1875 L 371.43725 99.90625 L 373.218547 96.6875 L 375.343516 85.25 L 372.843406 84.90625 L 364.281422 88.28125 L 358.937531 83.8125 L 356.062281 85.96875 L 347.156625 77.5625 L 346.968641 73.46875 L 348.562781 71.3125 Z M 343.937703 67.21875 " transform="matrix(4.716981,0,0,1,0,0)"/>
<path style="fill-rule:evenodd;fill:rgb(100%,66.27451%,49.803922%);fill-opacity:0.278431;stroke-width:2;stroke-linecap:butt;stroke-linejoin:miter;stroke:rgb(0%,0%,0%);stroke-opacity:1;stroke-miterlimit:4;" d="M 151.187469 427.90625 L 152.781609 427.03125 L 154.312813 416.90625 L 157.843937 410.34375 L 159.593766 401.78125 L 164.656094 386.875 L 167.937125 383.09375 L 170.968891 377.53125 L 173.749734 380.3125 L 175.250297 380.3125 L 171.469078 373.75 L 176.531406 370.4375 L 180.812813 368.4375 L 183.593656 366.15625 L 185.374953 362.375 L 187.875062 359.34375 L 189.656359 355.8125 L 193.187484 353.53125 L 196.968703 350.25 L 199.250187 347.46875 L 199.250187 343.6875 L 201.281578 340.90625 L 201.281578 338.875 L 199.500281 339.65625 L 193.437578 338.375 L 191.156094 334.84375 L 190.655906 332.5625 L 194.468594 333.34375 L 196.218422 333.34375 L 197.218797 329.78125 L 200.499828 327.78125 L 199.250187 326.5 L 198.499906 324.25 L 200.499828 322.96875 L 206.562531 315.40625 L 212.125047 311.875 L 211.624859 309.34375 L 214.156437 308.0625 L 215.406078 306.0625 L 213.65625 304.53125 L 217.437469 301.25 L 219.969047 302 L 224.499719 300.75 L 226.531109 297.21875 L 225.531563 294.9375 L 222.219063 294.6875 L 221.468781 290.65625 L 226.531109 285.59375 L 226.781203 279.78125 L 230.812516 274.75 L 238.156328 271.71875 L 243.437281 264.90625 L 245.468672 263.625 L 248.999797 250.5 L 252.781016 250.5 L 253.281203 248.21875 L 254.812406 241.65625 L 256.312141 239.375 L 256.843797 238.375 L 255.812781 232.8125 L 251.031187 229.78125 L 239.405969 225.5 L 237.375406 226 L 235.125391 228.28125 L 230.812516 228.28125 L 229.062687 229.78125 L 221.968969 229.53125 L 219.468859 226.25 L 219.718953 221.71875 L 212.625234 217.40625 L 207.093359 217.40625 L 205.562156 215.65625 L 205.312891 219.6875 L 200.781391 219.4375 L 200.249734 215.65625 L 195.969156 214.375 L 193.187484 216.15625 L 192.687297 218.1875 L 187.124781 218.1875 L 182.344016 214.875 L 175.781125 214.875 L 171.968437 210.09375 L 165.156281 209.75 C 158.818641 210.53125 159.593766 226.5 159.593766 226.5 L 157.843937 229.03125 L 161.625156 233.3125 L 162.374609 235.84375 C 166.668437 247.714844 161.375062 251.5 161.375062 251.5 L 161.375062 255.8125 L 158.094031 259.34375 C 152.790719 269.445312 160.624781 269.4375 160.624781 269.4375 L 161.625156 275 L 158.593391 278.03125 L 154.562906 278.03125 L 150.500125 282.8125 L 150.250031 285.84375 L 148.000016 286.875 C 144.969906 309.097656 135.093687 303.53125 135.093687 303.53125 L 133.844047 302.53125 L 133.031656 302.4375 L 131.812656 309.09375 L 129.312547 310.59375 L 124.999672 315.40625 L 124.000125 313.375 L 118.687703 312.875 L 118.437609 312.71875 L 118.437609 329.53125 L 117.187141 331.0625 L 117.437234 334.84375 L 107.594141 352.53125 L 107.594141 360.34375 L 105.812844 361.375 L 105.062562 363.625 L 102.530984 364.65625 L 99.500047 367.15625 L 100.499594 374.75 L 98.000312 376.5 L 98.000312 377.03125 L 94.687812 380.8125 L 94.437719 390.65625 L 91.656047 392.4375 C 91.656047 392.4375 91.472203 395.367188 91.405953 395.71875 C 91.313203 396.21875 91.145922 396.4375 91.031641 396.875 L 96.469109 399.75 L 100.749687 399.75 L 102.781078 401.78125 L 106.812391 403.03125 L 111.624625 405.3125 L 114.156203 404.8125 L 114.406297 403.53125 L 118.687703 403.28125 L 124.000125 401 L 128.031438 401 L 133.593953 399 L 136.874984 396.71875 L 139.905922 399.5 L 144.969078 398.5 L 147.749922 403.28125 L 144.437422 410.09375 L 148.250109 413.625 L 149.49975 418.4375 L 147.219094 426 L 151.281047 427.53125 Z M 151.187469 427.90625 " transform="matrix(4.716981,0,0,1,0,0)"/>
<path style="fill:none;stroke-width:1;stroke-linecap:butt;stroke-linejoin:miter;stroke:rgb(0%,0%,0%);stroke-opacity:1;stroke-miterlimit:4;" d="M 172.937344 249.21875 L 165.499953 252.4375 L 165.124812 254.5625 L 159.750281 257.5625 L 158.094031 259.34375 C 152.790719 269.445312 160.624781 269.4375 160.624781 269.4375 L 161.625156 275 L 158.593391 278.03125 L 154.562906 278.03125 L 150.500125 282.8125 L 150.250031 285.84375 L 148.905984 286.46875 L 151.687656 290 L 161.937359 292.125 L 171.874859 291.0625 L 181.437219 287.875 L 187.468453 285.71875 L 191.718391 289.625 L 194.562172 288.21875 L 194.187859 285.375 L 203.062875 283.96875 L 203.406547 281.84375 L 207.656484 282.53125 L 209.094109 285.375 L 221.530891 291.0625 L 221.468781 290.65625 L 226.531109 285.59375 L 226.781203 279.78125 L 230.812516 274.75 L 238.156328 271.71875 L 243.437281 264.90625 L 244.093984 264.5 L 238.124859 255.25 L 236.718703 259.15625 L 234.937406 259.15625 L 230.000125 263.40625 L 227.500016 264.46875 L 224.687703 258.09375 L 220.406297 258.09375 L 216.156359 257.375 L 213.687719 261.28125 L 211.906422 259.5 L 209.437781 259.5 L 203.406547 260.9375 L 198.437797 261.28125 L 198.812109 258.8125 L 196.312828 256.3125 L 199.500281 252.4375 L 200.219094 249.9375 L 195.250344 249.9375 L 193.125375 251.34375 L 183.905859 251.71875 L 177.187281 249.21875 Z M 172.937344 249.21875 " transform="matrix(4.716981,0,0,1,0,0)"/>
<path style="fill:none;stroke-width:1;stroke-linecap:butt;stroke-linejoin:miter;stroke:rgb(0%,0%,0%);stroke-opacity:1;stroke-miterlimit:4;" d="M 203.062875 309.84375 L 195.969156 310.53125 L 189.24975 313.375 L 182.843375 310.53125 L 175.781125 310.1875 L 168.312266 310.53125 L 163.374984 312.3125 L 157.687422 314.09375 L 154.156297 315.5 L 152.031328 319.40625 L 149.906359 321.53125 L 146.343766 322.9375 L 138.219031 320.46875 L 136.437734 315.84375 L 131.468984 314.4375 L 131.468984 311.59375 L 130.343562 309.96875 L 129.312547 310.59375 L 124.999672 315.40625 L 124.000125 313.375 L 118.687703 312.875 L 118.437609 312.71875 L 118.437609 325.59375 L 123.312781 326.5 L 125.094078 324.375 L 129.344016 327.1875 L 127.937859 329.6875 L 132.875141 335.34375 L 135.031578 330.03125 L 140.687672 328.625 L 141.750156 325.78125 L 145.656422 326.5 L 154.499969 331.4375 L 160.531203 332.5 L 162.656172 330.75 L 166.187297 333.5625 L 172.218531 334.28125 L 176.124797 333.21875 L 179.655922 336.75 L 183.218516 337.125 L 188.874609 333.21875 L 190.780953 333.125 L 190.655906 332.5625 L 192.812344 333 L 196.374937 332.8125 L 197.218797 329.78125 L 200.499828 327.78125 L 199.250187 326.5 L 198.499906 324.25 L 200.499828 322.96875 L 206.562531 315.40625 L 210.562375 312.84375 Z M 203.062875 309.84375 " transform="matrix(4.716981,0,0,1,0,0)"/>
<path style="fill:none;stroke-width:1;stroke-linecap:butt;stroke-linejoin:miter;stroke:rgb(0%,0%,0%);stroke-opacity:1;stroke-miterlimit:4;" d="M 190.780953 333.125 L 188.874609 333.21875 L 183.218516 337.125 L 179.655922 336.75 L 176.124797 333.21875 L 172.218531 334.28125 L 166.187297 333.5625 L 162.656172 330.75 L 160.531203 332.5 L 154.499969 331.4375 L 145.656422 326.5 L 141.750156 325.78125 L 140.687672 328.625 L 135.031578 330.03125 L 132.875141 335.34375 L 127.937859 329.6875 L 129.344016 327.1875 L 125.094078 324.375 L 123.312781 326.5 L 118.437609 325.59375 L 118.437609 329.53125 L 117.187141 331.0625 L 117.437234 334.84375 L 111.781141 345 L 114.468406 348.09375 L 119.781656 350.9375 L 114.812906 351.28125 L 112.343437 354.125 L 116.249703 355.1875 L 113.405922 357.65625 L 117.312187 359.4375 L 120.499641 364.0625 L 131.125313 361.5625 L 138.562703 356.59375 L 146.718906 358.375 L 148.125062 355.1875 L 152.375 354.46875 L 157.000078 350.9375 L 161.593687 354.46875 L 166.562437 354.84375 L 169.031078 352.71875 L 171.874859 349.53125 L 174.3435 349.53125 L 178.249766 352.34375 L 190.156547 355.5 L 193.187484 353.53125 L 196.968703 350.25 L 199.250187 347.46875 L 199.250187 343.6875 L 201.281578 340.90625 L 201.281578 338.875 L 199.500281 339.65625 L 193.437578 338.375 L 191.156094 334.84375 Z M 190.780953 333.125 " transform="matrix(4.716981,0,0,1,0,0)"/>
<path style="fill:none;stroke-width:1;stroke-linecap:butt;stroke-linejoin:miter;stroke:rgb(0%,0%,0%);stroke-opacity:1;stroke-miterlimit:4;" d="M 221.530891 291.0625 L 209.094109 285.375 L 207.656484 282.53125 L 203.406547 281.84375 L 203.062875 283.96875 L 194.187859 285.375 L 194.562172 288.21875 L 191.718391 289.625 L 187.468453 285.71875 L 181.437219 287.875 L 171.874859 291.0625 L 161.937359 292.125 L 151.687656 290 L 148.905984 286.46875 L 148.000016 286.875 C 144.969906 309.097656 135.093687 303.53125 135.093687 303.53125 L 133.844047 302.53125 L 133.031656 302.4375 L 131.812656 309.09375 L 130.343562 309.96875 L 131.468984 311.59375 L 131.468984 314.4375 L 136.437734 315.84375 L 138.219031 320.46875 L 146.343766 322.9375 L 149.906359 321.53125 L 152.031328 319.40625 L 154.156297 315.5 L 157.687422 314.09375 L 163.374984 312.3125 L 168.312266 310.53125 L 175.781125 310.1875 L 182.843375 310.53125 L 189.24975 313.375 L 195.969156 310.53125 L 203.062875 309.84375 L 210.562375 312.84375 L 212.125047 311.875 L 211.624859 309.34375 L 214.156437 308.0625 L 215.406078 306.0625 L 213.65625 304.53125 L 217.437469 301.25 L 219.969047 302 L 224.499719 300.75 L 226.531109 297.21875 L 225.531563 294.9375 L 222.219063 294.6875 Z M 221.530891 291.0625 " transform="matrix(4.716981,0,0,1,0,0)"/>
<path style="fill:none;stroke-width:1;stroke-linecap:butt;stroke-linejoin:miter;stroke:rgb(0%,0%,0%);stroke-opacity:1;stroke-miterlimit:4;" d="M 190.156547 355.5 L 178.249766 352.34375 L 174.3435 349.53125 L 171.874859 349.53125 L 169.031078 352.71875 L 166.562437 354.84375 L 161.593687 354.46875 L 157.000078 350.9375 L 152.375 354.46875 L 148.125062 355.1875 L 146.718906 358.375 L 138.562703 356.59375 L 131.125313 361.5625 L 120.499641 364.0625 L 117.312187 359.4375 L 113.405922 357.65625 L 116.249703 355.1875 L 112.343437 354.125 L 114.812906 351.28125 L 119.781656 350.9375 L 114.468406 348.09375 L 111.781141 345 L 107.594141 352.53125 L 107.594141 360.34375 L 105.812844 361.375 L 105.062562 363.625 L 102.530984 364.65625 L 99.500047 367.15625 L 100.499594 374.75 L 98.000312 376.5 L 98.000312 377.03125 L 94.687812 380.8125 L 94.437719 390.65625 L 91.656047 392.4375 C 91.656047 392.4375 91.472203 395.367188 91.405953 395.71875 C 91.313203 396.21875 91.145922 396.4375 91.031641 396.875 L 96.469109 399.75 L 100.749687 399.75 L 102.781078 401.78125 L 106.812391 403.03125 L 111.624625 405.3125 L 114.156203 404.8125 L 114.406297 403.53125 L 118.687703 403.28125 L 124.000125 401 L 128.031438 401 L 133.593953 399 L 136.874984 396.71875 L 139.905922 399.5 L 144.969078 398.5 L 147.749922 403.28125 L 144.437422 410.09375 L 148.250109 413.625 L 149.49975 418.4375 L 147.219094 426 L 151.281047 427.53125 L 151.187469 427.90625 L 152.781609 427.03125 L 154.312813 416.90625 L 157.843937 410.34375 L 159.593766 401.78125 L 164.656094 386.875 L 167.937125 383.09375 L 170.968891 377.53125 L 173.749734 380.3125 L 175.250297 380.3125 L 171.469078 373.75 L 176.531406 370.4375 L 180.812813 368.4375 L 183.593656 366.15625 L 185.374953 362.375 L 187.875062 359.34375 L 189.656359 355.8125 Z M 190.156547 355.5 " transform="matrix(4.716981,0,0,1,0,0)"/>
<path style="fill:none;stroke-width:1;stroke-linecap:butt;stroke-linejoin:miter;stroke:rgb(0%,0%,0%);stroke-opacity:1;stroke-miterlimit:4;" d="M 266.999922 335.375 L 275.344109 319.75 L 273.937125 318.6875 L 271.437844 319.40625 L 270.030859 316.5625 L 268.250391 316.5625 L 264.374766 317.96875 L 259.749687 315.84375 L 260.4685 313.375 L 256.218563 314.09375 L 254.437266 317.625 L 250.187328 319.75 L 245.937391 313.375 L 246.656203 309.46875 L 245.218578 309.125 L 243.093609 305.5625 L 239.187344 302.375 L 235.999891 303.4375 L 231.062609 302.03125 L 229.281312 297.4375 L 226.187437 296.40625 L 226.531109 297.21875 L 224.499719 300.75 L 219.969047 302 L 217.437469 301.25 L 213.65625 304.53125 L 215.406078 306.0625 L 214.156437 308.0625 L 211.624859 309.34375 L 212.125047 311.875 L 206.562531 315.40625 L 200.499828 322.96875 L 198.499906 324.25 L 199.250187 326.5 L 200.499828 327.78125 L 197.218797 329.78125 L 196.218422 333.34375 L 194.468594 333.34375 L 190.655906 332.5625 L 191.156094 334.84375 L 193.437578 338.375 L 199.500281 339.65625 L 201.281578 338.875 L 201.281578 340.90625 L 199.250187 343.6875 L 199.250187 347.46875 L 196.968703 350.25 L 195.781172 351.28125 L 199.500281 352.34375 L 201.62525 350.9375 L 202.000391 356.25 L 204.469031 365.8125 L 207.656484 355.90625 L 213.344047 351.65625 L 213.687719 348.09375 L 221.125109 344.5625 L 223.625219 345.625 L 222.906406 348.46875 L 224.312562 351.65625 L 225.031375 355.53125 L 222.562734 357.3125 L 219.718953 358.375 L 216.5315 363.6875 L 221.125109 368.65625 L 225.750187 366.875 L 229.281312 367.25 L 235.656219 373.625 L 240.343406 371.84375 L 242.687828 370.4375 L 236.062828 362.03125 L 241.250203 358.46875 L 248.218875 355.96875 L 254.093594 349.1875 L 258.562156 349.1875 L 264.531281 340.625 L 264.374766 340.3125 L 266.031016 337.21875 L 266.781297 335.4375 Z M 266.999922 335.375 " transform="matrix(4.716981,0,0,1,0,0)"/>
<path style="fill:none;stroke-width:1;stroke-linecap:butt;stroke-linejoin:miter;stroke:rgb(0%,0%,0%);stroke-opacity:1;stroke-miterlimit:4;" d="M 233.749875 371.71875 L 228.5625 375.03125 L 228.5625 380.71875 L 224.687703 383.90625 L 216.5315 387.09375 L 214.031391 384.96875 L 210.500266 387.4375 L 209.094109 392.03125 L 203.062875 395.9375 L 203.750219 397.71875 L 200.562766 397.71875 L 199.500281 394.53125 L 194.905844 395.25 L 193.499687 398.0625 L 190.655906 399.5 L 192.062891 401.625 L 189.24975 406.21875 L 188.530937 409.75 L 185.687156 409.75 L 182.499703 411.1875 L 175.405984 414.375 L 169.031078 414.71875 L 167.624922 418.625 L 172.593672 418.28125 L 172.937344 421.46875 L 172.593672 427.125 L 171.531187 429.25 L 173.656156 430.6875 L 175.781125 428.1875 L 181.437219 433.5 L 181.187125 434.65625 L 181.312172 434.59375 L 185.124859 438.375 L 185.625047 440.65625 L 183.343562 444.6875 L 188.906078 453.03125 L 196.968703 453.53125 L 197.999719 450 L 199.999641 446.21875 L 203.031406 446.96875 L 211.781375 454.6875 L 221.968969 449 L 221.968969 446.6875 L 225.905875 444.53125 L 228.405984 443.09375 L 231.593437 442.75 L 233.562719 436.3125 L 235.000344 434.53125 L 231.249766 431.5 L 230.906094 429.1875 C 229.8345 423.832031 238.562109 420.59375 238.562109 420.59375 L 238.562109 420.78125 L 241.250203 417.21875 L 245.905922 416.3125 L 247.500062 419.34375 L 251.968625 417.9375 L 254.468734 417.9375 L 262.843563 408.65625 C 267.307984 401.871094 256.780859 397.03125 256.780859 397.03125 L 251.437797 391.15625 L 248.030891 390.96875 L 243.0315 386.5 L 239.656062 386.84375 L 234.281531 386.15625 L 234.655844 383.46875 L 236.781641 379.53125 L 237.844125 376.84375 L 239.999734 375.78125 L 240.343406 371.84375 L 235.656219 373.625 Z M 233.749875 371.71875 " transform="matrix(4.716981,0,0,1,0,0)"/>
<path style="fill:none;stroke-width:1;stroke-linecap:butt;stroke-linejoin:miter;stroke:rgb(0%,0%,0%);stroke-opacity:1;stroke-miterlimit:4;" d="M 221.125109 344.5625 L 213.687719 348.09375 L 213.344047 351.65625 L 207.656484 355.90625 L 204.469031 365.8125 L 202.000391 356.25 L 201.62525 350.9375 L 199.500281 352.34375 L 195.781172 351.28125 L 193.187484 353.53125 L 189.656359 355.8125 L 187.875062 359.34375 L 185.374953 362.375 L 183.593656 366.15625 L 180.812813 368.4375 L 176.531406 370.4375 L 171.469078 373.75 L 175.250297 380.3125 L 173.749734 380.3125 L 170.968891 377.53125 L 167.937125 383.09375 L 164.656094 386.875 L 159.593766 401.78125 L 157.843937 410.34375 L 154.312813 416.90625 L 152.781609 427.03125 L 151.187469 427.90625 L 149.999937 433.09375 L 148.000016 439.40625 L 148.750297 441.90625 L 146.468812 446.96875 L 147.749922 448.25 L 151.030953 442.4375 L 153.781156 443.1875 L 152.281422 446.71875 L 152.093437 449.75 L 156.062641 447.21875 L 159.093578 451 L 162.374609 447.96875 L 162.374609 446.21875 L 165.656469 442.4375 L 165.906563 438.125 L 167.437766 437.375 L 168.9375 439.90625 L 181.187125 434.65625 L 181.437219 433.5 L 175.781125 428.1875 L 173.656156 430.6875 L 171.531187 429.25 L 172.593672 427.125 L 172.937344 421.46875 L 172.593672 418.28125 L 167.624922 418.625 L 169.031078 414.71875 L 175.405984 414.375 L 182.499703 411.1875 L 185.687156 409.75 L 188.530937 409.75 L 189.24975 406.21875 L 192.062891 401.625 L 190.655906 399.5 L 193.499687 398.0625 L 194.905844 395.25 L 199.500281 394.53125 L 200.562766 397.71875 L 203.750219 397.71875 L 203.062875 395.9375 L 209.094109 392.03125 L 210.500266 387.4375 L 214.031391 384.96875 L 216.5315 387.09375 L 224.687703 383.90625 L 228.5625 380.71875 L 228.5625 375.03125 L 233.749875 371.71875 L 229.281312 367.25 L 225.750187 366.875 L 221.125109 368.65625 L 216.5315 363.6875 L 219.718953 358.375 L 222.562734 357.3125 L 225.031375 355.53125 L 224.312562 351.65625 L 222.906406 348.46875 L 223.625219 345.625 Z M 221.125109 344.5625 " transform="matrix(4.716981,0,0,1,0,0)"/>
<path style="fill:none;stroke-width:1;stroke-linecap:butt;stroke-linejoin:miter;stroke:rgb(0%,0%,0%);stroke-opacity:1;stroke-miterlimit:4;" d="M 126.780969 422.46875 L 124.750406 423.75 L 123.499938 426.53125 L 120.968359 426.53125 L 119.437156 427.78125 L 115.655937 430.0625 L 114.656391 431.3125 L 112.875094 432.5625 L 110.343516 427.53125 L 108.0935 427.53125 L 108.593688 430.5625 L 107.594141 432.5625 L 102.781078 428.78125 L 101.281344 428.78125 L 99.500047 431.5625 L 96.219016 431.0625 L 94.437719 432.5625 L 98.000312 434.09375 L 100.000234 436.625 L 97.71875 439.40625 L 92.437797 437.625 L 91.405953 440.15625 L 89.906219 446.21875 L 90.156312 449 L 93.687438 452.53125 L 94.437719 454.03125 L 91.405953 454.8125 L 91.155859 455.0625 L 86.125 456.3125 L 84.843891 459.59375 L 86.125 461.875 L 83.593422 462.625 L 79.031281 458.09375 L 78.281 453.28125 L 76.531172 454.5625 L 74.499781 454.5625 L 72.718484 456.5625 L 68.187812 460.09375 L 71.718937 459.09375 L 71.718937 462.875 L 65.656234 463.90625 C 65.656234 463.90625 68.956312 464.652344 70.218375 464.90625 C 71.481266 465.160156 72.489922 465.40625 73.500234 465.40625 C 74.510547 465.40625 76.000344 465.65625 76.000344 465.65625 L 77.781641 468.1875 C 77.781641 468.1875 78.796922 468.1875 80.312391 468.1875 C 81.070125 468.1875 81.745047 468.496094 82.250203 468.8125 C 82.755359 469.128906 83.094062 469.4375 83.094062 469.4375 L 82.062219 472.96875 L 80.562484 475 L 78.030906 477.03125 L 77.531547 479.3125 C 77.531547 479.3125 79.302078 480.808594 80.312391 481.3125 C 81.322703 481.816406 81.831172 481.808594 83.094062 482.0625 C 83.725094 482.1875 84.091125 482.527344 84.312234 482.8125 C 84.533344 483.097656 84.593797 483.34375 84.593797 483.34375 L 87.125375 483.59375 L 88.905844 481.5625 L 90.6565 483.34375 L 92.687891 485.09375 L 94.687812 484.09375 L 96.469109 482.59375 L 97.468656 481.3125 L 100.000234 482.3125 L 101.312812 483.8125 L 102.781078 483.09375 L 112.875094 483.34375 L 114.156203 485.625 L 119.437156 485.625 L 123.249844 487.125 L 125.499859 488.125 L 128.031438 477.03125 L 129.030984 470.875 L 127.781344 471.21875 L 127.53125 466.40625 L 124.250219 465.90625 L 124.500312 459.59375 L 129.062453 451.78125 L 128.780891 449.75 L 126.281609 449.25 L 125.249766 447.21875 L 128.531625 441.65625 L 124.750406 437.875 L 126.031516 435.09375 L 130.812281 430.8125 L 129.312547 429.28125 L 132.593578 424.5 Z M 126.780969 422.46875 " transform="matrix(4.716981,0,0,1,0,0)"/>
<path style="fill:none;stroke-width:1;stroke-linecap:butt;stroke-linejoin:miter;stroke:rgb(0%,0%,0%);stroke-opacity:1;stroke-miterlimit:4;" d="M 145.249812 456.53125 L 148.750297 458.59375 L 151.531141 462.625 L 152.781609 465.90625 L 153.781156 469.4375 L 152.031328 472.21875 L 150.500125 476.53125 L 151.781234 478.03125 L 151.781234 482.59375 L 153.280969 483.84375 L 152.781609 486.125 L 148.000016 492.6875 L 149.124609 505.15625 L 149.281125 505.0625 L 148.937453 497.03125 L 154.281344 494.34375 L 157.156594 496.5 L 166.969047 489.71875 L 170.718797 489 L 173.030922 481.6875 L 175.343875 480.0625 C 175.343875 480.0625 177.134281 480.066406 177.312328 480.78125 C 177.491203 481.496094 179.999594 482.03125 179.999594 482.03125 L 189.812875 478.28125 L 196.781547 473.28125 L 199.281656 472.21875 L 199.655969 466.15625 L 202.156078 460.0625 L 211.781375 454.6875 L 203.031406 446.96875 L 199.999641 446.21875 L 197.999719 450 L 196.968703 453.53125 L 188.906078 453.03125 L 183.343562 444.6875 L 185.625047 440.65625 L 185.124859 438.375 L 181.312172 434.59375 L 168.9375 439.90625 L 167.437766 437.375 L 165.906563 438.125 L 165.656469 442.4375 L 162.374609 446.21875 L 162.374609 447.96875 L 159.093578 451 L 156.062641 447.21875 L 149.249656 451.53125 L 146.468812 452.53125 L 146.468812 456.0625 Z M 145.249812 456.53125 " transform="matrix(4.716981,0,0,1,0,0)"/>
<path style="fill:none;stroke-width:1;stroke-linecap:butt;stroke-linejoin:miter;stroke:rgb(0%,0%,0%);stroke-opacity:1;stroke-miterlimit:4;" d="M 77.875219 477.75 L 66.062844 477.9375 L 59.281328 477.21875 L 55.718734 475.4375 L 53.218625 472.21875 L 52.031094 472.3125 C 52.030266 472.316406 51.968984 472.5625 51.968984 472.5625 L 45.000312 484.1875 L 44.2815 489 L 41.437719 491.5 L 39.812109 491.84375 L 38.562469 490.59375 L 36.969156 492.21875 L 37.156312 494 L 40.18725 493.8125 L 42.312219 497.21875 L 42.156531 507.03125 L 34.999875 523.28125 L 33.937391 524.1875 L 30.344156 524.90625 L 27.500375 528.65625 L 25.906234 533.8125 L 24.468609 535.59375 L 15.3435 540.59375 L 13.562203 543.09375 L 12.843391 545.59375 L 28.562859 548.65625 L 32.312609 546.6875 L 36.062359 549.34375 L 40.530922 548.46875 L 40.906062 544.53125 L 43.749844 545.96875 L 47.155922 548.09375 L 59.281328 546.3125 L 63.031078 543.46875 L 63.749891 544.71875 L 64.406594 541.40625 L 63.906406 532.34375 L 66.937344 529.5625 L 66.406516 527.03125 L 68.937266 527.03125 L 69.687547 525.5 L 67.937719 522.46875 L 72.468391 524 L 77.281453 519.6875 L 76.000344 516.15625 L 79.562109 517.4375 L 82.062219 513.90625 L 84.343703 514.90625 L 85.093984 513.125 L 79.562109 510.875 L 80.312391 508.84375 L 84.093609 507.84375 L 86.625187 507.84375 L 87.125375 505.0625 L 88.656578 501.53125 L 90.406406 502.53125 L 92.687891 505.0625 L 94.687812 503.53125 L 94.687812 497.21875 L 96.469109 495.96875 L 97.71875 493.9375 L 98.749766 490.40625 L 100.499594 488.65625 L 102.280891 486.875 L 101.781531 484.34375 L 100.000234 482.3125 L 97.468656 481.3125 L 96.469109 482.59375 L 94.687812 484.09375 L 92.687891 485.09375 L 90.6565 483.34375 L 88.905844 481.5625 L 87.125375 483.59375 L 84.593797 483.34375 C 84.593797 483.34375 84.533344 483.097656 84.312234 482.8125 C 84.091125 482.527344 83.725094 482.1875 83.094062 482.0625 C 81.831172 481.808594 81.322703 481.816406 80.312391 481.3125 C 79.302078 480.808594 77.531547 479.3125 77.531547 479.3125 Z M 77.875219 477.75 " transform="matrix(4.716981,0,0,1,0,0)"/>
<path style="fill:none;stroke-width:1;stroke-linecap:butt;stroke-linejoin:miter;stroke:rgb(0%,0%,0%);stroke-opacity:1;stroke-miterlimit:4;" d="M 119.500094 427.71875 L 119.281469 422.9375 L 121.781578 421.15625 L 119.656609 420.0625 L 119.281469 417.5625 L 113.937578 416.15625 L 113.218766 421.15625 L 106.780922 420.0625 L 104.999625 422.9375 L 99.656562 417.5625 L 102.844016 414.71875 L 99.656562 412.21875 L 101.781531 409 L 105.344125 407.21875 L 102.781078 401.78125 L 102.749609 401.75 L 100.749687 399.75 L 96.469109 399.75 L 91.031641 396.875 C 89.299203 403.488281 85.344078 403.78125 85.344078 403.78125 L 83.406266 418.46875 L 69.812594 432.9375 C 69.812594 432.9375 68.745141 433.832031 68.031297 434.1875 C 67.316625 434.542969 64.468703 434.53125 64.468703 434.53125 L 63.749891 437.21875 C 56.144391 449.070312 52.108937 471.875 52.031094 472.3125 L 53.218625 472.21875 L 55.718734 475.4375 L 59.281328 477.21875 L 66.062844 477.9375 L 77.875219 477.75 L 78.030906 477.03125 L 80.562484 475 L 82.062219 472.96875 L 83.094062 469.4375 C 83.094062 469.4375 82.755359 469.128906 82.250203 468.8125 C 81.745047 468.496094 81.070125 468.1875 80.312391 468.1875 C 78.796922 468.1875 77.781641 468.1875 77.781641 468.1875 L 76.000344 465.65625 C 76.000344 465.65625 74.510547 465.40625 73.500234 465.40625 C 72.489922 465.40625 71.481266 465.160156 70.218375 464.90625 C 68.956312 464.652344 65.656234 463.90625 65.656234 463.90625 L 71.718937 462.875 L 71.718937 459.09375 L 68.187812 460.09375 L 72.718484 456.5625 L 74.499781 454.5625 L 76.531172 454.5625 L 78.281 453.28125 L 79.031281 458.09375 L 83.593422 462.625 L 86.125 461.875 L 84.843891 459.59375 L 86.125 456.3125 L 91.155859 455.0625 L 91.405953 454.8125 L 94.437719 454.03125 L 93.687438 452.53125 L 90.156312 449 L 89.906219 446.21875 L 91.405953 440.15625 L 92.437797 437.625 L 97.71875 439.40625 L 100.000234 436.625 L 98.000312 434.09375 L 94.437719 432.5625 L 96.219016 431.0625 L 99.500047 431.5625 L 101.281344 428.78125 L 102.781078 428.78125 L 107.594141 432.5625 L 108.593688 430.5625 L 108.0935 427.53125 L 110.343516 427.53125 L 112.875094 432.5625 L 114.656391 431.3125 L 115.655937 430.0625 L 119.437156 427.78125 Z M 119.500094 427.71875 " transform="matrix(4.716981,0,0,1,0,0)"/>
<path style="fill-rule:evenodd;fill:rgb(100%,73.333333%,30.980392%);fill-opacity:0.341176;stroke-width:2;stroke-linecap:butt;stroke-linejoin:miter;stroke:rgb(0%,0%,0%);stroke-opacity:1;stroke-miterlimit:4;" d="M 341.437594 119.9375 L 336.125172 122.21875 L 333.3435 125.25 L 333.3435 127 L 330.81275 127.25 L 328.562734 131.8125 L 329.562281 133.5625 L 325.530969 137.875 L 324.750047 140.65625 L 323.000219 144.1875 L 320.968828 151.5 L 319.219 153.78125 L 316.937516 154.03125 C 316.716406 155.546875 316.421594 156.84375 316.093656 157.96875 C 315.765719 159.09375 315.396375 160.050781 314.999703 160.84375 C 314.603031 161.636719 314.176547 162.261719 313.750063 162.78125 C 313.323578 163.300781 312.918625 163.699219 312.499594 164 C 311.663187 164.601562 310.853281 164.835938 310.281047 164.90625 C 309.708812 164.976562 309.343609 164.875 309.343609 164.875 L 305.812484 167.40625 L 305.562391 169.6875 L 299.749781 173.46875 L 296.718844 173.46875 L 295.219109 176.75 L 292.187344 182.0625 L 290.937703 182.3125 L 289.156406 190.15625 L 284.624906 194.4375 L 282.343422 194.9375 L 274.999609 204.28125 L 274.50025 205.8125 L 270.906187 210 L 268.187453 213.65625 L 264.968531 214.6875 L 256.343609 225.5 L 262.875031 226.625 L 256.312141 239.375 L 254.812406 241.65625 L 253.281203 248.21875 L 252.781016 250.5 L 248.999797 250.5 L 245.468672 263.625 L 243.437281 264.90625 L 238.156328 271.71875 L 230.812516 274.75 L 226.781203 279.78125 L 226.531109 285.59375 L 221.468781 290.65625 L 222.219063 294.6875 L 225.531563 294.9375 L 226.187437 296.40625 L 229.281312 297.4375 L 231.062609 302.03125 L 235.999891 303.4375 L 239.187344 302.375 L 243.093609 305.5625 L 245.218578 309.125 L 246.656203 309.46875 L 245.937391 313.375 L 250.187328 319.75 L 254.437266 317.625 L 256.218563 314.09375 L 260.4685 313.375 L 259.749687 315.84375 L 264.374766 317.96875 L 268.250391 316.5625 L 270.030859 316.5625 L 271.437844 319.40625 L 273.937125 318.6875 L 275.344109 319.75 L 266.999922 335.375 L 270.719031 334.1875 L 276.250078 334 L 280.906625 330.4375 L 280.906625 328.09375 L 285.187203 329.71875 L 289.093469 325.59375 L 290.343937 322.03125 L 296.437281 328.46875 L 298.218578 327.75 L 303.937609 331.15625 L 308.562687 328.28125 L 311.249953 326.5 L 313.03125 324.53125 L 321.437547 326.6875 L 332.499641 331.5 L 345.719 331.5 L 349.281594 333.09375 L 353.031344 328.65625 L 349.46875 324.53125 L 346.781484 316.84375 L 343.562563 311.84375 L 333.031297 311.6875 L 322.500031 313.65625 L 320.187906 312.40625 L 326.593453 304 L 327.50025 300.4375 L 334.99975 292.9375 L 336.593891 289 L 341.968422 286.6875 L 350.531234 277.75 L 351.968859 271.6875 L 357.31275 271.6875 L 355.531453 267.40625 L 359.094047 269.1875 L 362.843797 264.53125 L 368.937141 267.5625 L 375.906641 266.6875 L 380.187219 265.0625 L 384.812297 257.5625 L 382.312187 251.84375 L 392.499781 242.21875 L 396.594031 241.15625 L 400.343781 235.0625 L 399.468453 233.09375 L 402.843891 231.6875 L 403.749859 226.84375 L 408.750078 222.9375 L 412.8435 222.75 L 411.593859 217.5625 L 412.687813 215.4375 L 410.531375 209.34375 L 405.719141 199 L 405.719141 195.59375 L 407.687594 192.21875 L 400.718922 188.8125 L 396.781187 185.25 L 398.405969 180.78125 L 393.937406 176.3125 L 390.187656 167.21875 L 397.5 160.59375 L 398.218813 154.1875 L 398.749641 151.3125 L 396.062375 151.5 L 393.218594 149.90625 L 388.406359 148.46875 L 382.500172 142.21875 L 383.562656 139.53125 L 379.656391 139.90625 L 374.656172 138.28125 L 372.687719 134 L 368.406313 131.84375 L 370.906422 126.84375 L 369.812469 124.1875 L 364.656563 123.28125 L 362.500125 122.5625 L 356.437422 125.96875 L 347.500297 125.0625 L 345.343859 123.03125 L 343.719078 123.71875 L 342.937328 125.25 L 341.437594 125.25 Z M 341.437594 119.9375 " transform="matrix(4.716981,0,0,1,0,0)"/>
<path style="fill:none;stroke-width:1;stroke-linecap:butt;stroke-linejoin:miter;stroke:rgb(0%,0%,0%);stroke-opacity:1;stroke-miterlimit:4;" d="M 240.535531 419.894531 Z M 240.535531 419.894531 " transform="matrix(4.716981,0,0,1,0,0)"/>
<path style="fill-rule:evenodd;fill:rgb(0%,0%,0%);fill-opacity:0.643137;stroke-width:1;stroke-linecap:butt;stroke-linejoin:miter;stroke:rgb(0%,0%,0%);stroke-opacity:1;stroke-miterlimit:4;" d="M 118.437609 312.71875 L 118.687703 312.875 L 124.000125 313.375 L 124.999672 315.40625 L 129.312547 310.59375 L 131.812656 309.09375 L 133.031656 302.4375 L 129.812734 302 L 128.031438 303.28125 L 126.281609 302 L 125.249766 300.5 L 123.249844 302 L 116.406219 302.53125 L 115.405844 303.78125 L 115.655937 306.3125 L 118.437609 309.34375 Z M 118.437609 312.71875 " transform="matrix(4.716981,0,0,1,0,0)"/>
<path style="fill:none;stroke-width:1;stroke-linecap:butt;stroke-linejoin:miter;stroke:rgb(0%,0%,0%);stroke-opacity:1;stroke-miterlimit:4;" d="M 119.500094 427.71875 L 120.968359 426.53125 L 123.499938 426.53125 L 124.750406 423.75 L 126.780969 422.46875 L 132.593578 424.5 L 129.312547 429.28125 L 130.812281 430.8125 L 126.031516 435.09375 L 124.750406 437.875 L 128.531625 441.65625 L 125.249766 447.21875 L 126.281609 449.25 L 128.780891 449.75 L 129.062453 451.78125 L 124.500312 459.59375 L 124.250219 465.90625 L 127.53125 466.40625 L 127.781344 471.21875 L 129.562641 470.71875 L 131.062375 464.90625 L 135.37525 461.875 L 141.406484 462.625 L 143.187781 457.3125 L 146.468812 456.0625 L 146.468812 452.53125 L 149.249656 451.53125 L 152.093437 449.75 L 152.281422 446.71875 L 153.781156 443.1875 L 151.030953 442.4375 L 147.749922 448.25 L 146.468812 446.96875 L 148.750297 441.90625 L 148.000016 439.40625 L 149.999937 433.09375 L 151.281047 427.53125 L 147.219094 426 L 149.49975 418.4375 L 148.250109 413.625 L 144.437422 410.09375 L 147.749922 403.28125 L 144.969078 398.5 L 139.905922 399.5 L 136.874984 396.71875 L 133.593953 399 L 128.031438 401 L 124.000125 401 L 118.687703 403.28125 L 114.406297 403.53125 L 114.156203 404.8125 L 111.624625 405.3125 L 106.812391 403.03125 L 102.781078 401.78125 L 105.344125 407.21875 L 101.781531 409 L 99.656562 412.21875 L 102.844016 414.71875 L 99.656562 417.5625 L 104.999625 422.9375 L 106.780922 420.0625 L 113.218766 421.15625 L 113.937578 416.15625 L 119.281469 417.5625 L 119.656609 420.0625 L 121.781578 421.15625 L 119.281469 422.9375 Z M 119.500094 427.71875 " transform="matrix(4.716981,0,0,1,0,0)"/>
<path style="fill:none;stroke-width:1;stroke-linecap:butt;stroke-linejoin:miter;stroke:rgb(0%,0%,0%);stroke-opacity:1;stroke-miterlimit:4;" d="M 266.031016 337.21875 L 264.374766 340.3125 L 264.531281 340.625 L 264.656328 340.4375 Z M 266.031016 337.21875 " transform="matrix(4.716981,0,0,1,0,0)"/>
<path style="fill:none;stroke-width:1;stroke-linecap:butt;stroke-linejoin:miter;stroke:rgb(0%,0%,0%);stroke-opacity:1;stroke-miterlimit:4;" d="M 196.374937 332.8125 L 192.812344 333 L 194.468594 333.34375 L 196.218422 333.34375 Z M 196.374937 332.8125 " transform="matrix(4.716981,0,0,1,0,0)"/>
<path style="fill:none;stroke-width:1;stroke-linecap:butt;stroke-linejoin:miter;stroke:rgb(0%,0%,0%);stroke-opacity:1;stroke-miterlimit:4;" d="M 159.750281 257.5625 L 165.124812 254.5625 L 165.499953 252.4375 L 172.937344 249.21875 L 177.187281 249.21875 L 183.905859 251.71875 L 193.125375 251.34375 L 195.250344 249.9375 L 200.219094 249.9375 L 199.500281 252.4375 L 196.312828 256.3125 L 198.812109 258.8125 L 198.437797 261.28125 L 203.406547 260.9375 L 209.437781 259.5 L 211.906422 259.5 L 213.687719 261.28125 L 216.156359 257.375 L 220.406297 258.09375 L 224.687703 258.09375 L 227.500016 264.46875 L 230.000125 263.40625 L 234.937406 259.15625 L 236.718703 259.15625 L 238.124859 255.25 L 244.093984 264.5 L 245.468672 263.625 L 248.999797 250.5 L 252.781016 250.5 L 253.281203 248.21875 L 254.812406 241.65625 L 256.312141 239.375 L 256.843797 238.375 L 255.812781 232.8125 L 251.031187 229.78125 L 239.405969 225.5 L 237.375406 226 L 235.125391 228.28125 L 230.812516 228.28125 L 229.062687 229.78125 L 221.968969 229.53125 L 219.468859 226.25 L 219.718953 221.71875 L 212.625234 217.40625 L 207.093359 217.40625 L 205.562156 215.65625 L 205.312891 219.6875 L 200.781391 219.4375 L 200.249734 215.65625 L 195.969156 214.375 L 193.187484 216.15625 L 192.687297 218.1875 L 187.124781 218.1875 L 182.344016 214.875 L 175.781125 214.875 L 171.968437 210.09375 L 165.156281 209.75 C 158.818641 210.53125 159.593766 226.5 159.593766 226.5 L 157.843937 229.03125 L 161.625156 233.3125 L 162.374609 235.84375 C 166.668437 247.714844 161.375062 251.5 161.375062 251.5 L 161.375062 255.8125 Z M 159.750281 257.5625 " transform="matrix(4.716981,0,0,1,0,0)"/>
</g>
</svg>
