<?xml version="1.0" encoding="UTF-8"?>
<svg xmlns="http://www.w3.org/2000/svg" xmlns:xlink="http://www.w3.org/1999/xlink" width="50px" height="71px" viewBox="0 0 50 70" version="1.1">
<g id="surface1">
<path style="fill-rule:evenodd;fill:rgb(0%,0%,0%);fill-opacity:0.101961;stroke-width:3;stroke-linecap:butt;stroke-linejoin:miter;stroke:rgb(0%,0%,0%);stroke-opacity:1;stroke-miterlimit:4;" d="M 251.518125 83.064453 L 254.06875 92.156417 L 254.565625 112.613337 L 253.041875 115.655134 L 250.75625 118.42952 L 246.715 118.42952 L 245.224375 120.201116 L 242.176875 120.201116 L 241.183125 123.710882 L 232.60375 132.802846 L 219.718125 135.844643 L 213.39125 136.112054 L 211.8675 134.340458 L 211.8675 137.348828 L 210.87375 137.616239 L 208.588125 135.343248 L 207.594375 137.616239 L 208.588125 139.387835 L 208.588125 144.167801 L 210.87375 145.204018 L 209.846875 150.75279 C 209.846875 150.75279 210.045625 150.585658 209.846875 150.75279 C 198.650625 160.847545 187.388125 159.075949 187.388125 159.075949 C 190.170625 165.660937 185.599375 164.624721 185.599375 164.624721 L 187.62 166.396317 L 185.599375 168.435324 L 186.62625 171.20971 L 184.340625 178.028683 L 180.299375 181.304464 C 173.24375 173.716685 170.958125 184.346261 170.958125 184.346261 L 167.67875 187.354632 L 166.685 190.129018 L 167.94375 193.170815 L 166.42 195.945201 L 168.440625 199.220982 C 168.374375 198.853292 164.266875 204.836607 166.42 209.583147 C 158.6025 208.078962 159.59625 226.496875 159.59625 226.496875 L 157.840625 229.037277 L 161.616875 233.315848 L 162.37875 235.85625 C 166.685 247.7226 161.385 251.499777 161.385 251.499777 L 161.385 255.811775 L 158.0725 259.32154 C 152.7725 269.449721 160.623125 269.449721 160.623125 269.449721 L 161.616875 274.998493 L 158.6025 278.04029 L 154.56125 278.04029 L 150.52 282.820257 L 150.255 285.862054 L 148.0025 286.864844 C 144.955 309.093359 135.116875 303.544587 135.116875 303.544587 L 133.858125 302.508371 L 129.816875 302.006975 L 128.028125 303.277176 L 126.2725 302.006975 L 125.245625 300.50279 L 123.225 302.006975 L 116.434375 302.508371 L 115.4075 303.778571 L 115.6725 306.318973 L 118.455 309.327344 L 118.455 329.550279 L 117.163125 331.054464 L 117.428125 334.831641 L 107.59 352.514174 L 107.59 360.335938 L 105.80125 361.372154 L 105.039375 363.645145 L 102.521875 364.647935 L 99.5075 367.154911 L 100.50125 374.74269 L 97.98375 376.514286 L 97.98375 377.015681 L 94.704375 380.792857 L 94.439375 390.653627 L 91.656875 392.425223 C 91.656875 392.425223 91.49125 395.366741 91.425 395.701004 C 89.934375 403.723326 85.363125 403.790179 85.363125 403.790179 L 83.40875 418.464342 L 69.8275 432.937946 C 69.8275 432.937946 68.734375 433.807031 68.03875 434.174721 C 67.31 434.542411 64.46125 434.542411 64.46125 434.542411 L 63.765625 437.216518 C 56.080625 449.183147 51.973125 472.581585 51.973125 472.581585 L 44.98375 484.180525 L 44.288125 488.993917 L 41.439375 491.500893 L 39.81625 491.868583 L 38.5575 490.598382 L 36.9675 492.202846 L 37.133125 494.007868 L 40.180625 493.80731 L 42.33375 497.216797 L 42.135 507.044141 L 35.013125 523.289342 L 33.92 524.191853 L 30.3425 524.893806 L 27.49375 528.637556 L 25.90375 533.818638 L 24.479375 535.623661 L 15.37 540.604185 L 13.58125 543.111161 L 12.8525 545.618136 L 28.586875 548.626507 L 32.33 546.687779 L 36.073125 549.361886 L 40.545 548.459375 L 40.909375 544.548493 L 43.758125 545.9524 L 47.136875 548.091685 L 59.29375 546.320089 L 63.036875 543.47885 L 64.46125 545.9524 L 68.56875 546.152958 L 70.523125 551.501172 L 76.419375 558.988672 L 81.056875 559.724051 L 81.95125 560.793694 L 83.574375 560.593136 L 84.99875 559.18923 L 97.32125 557.384208 L 101.95875 550.598661 L 111.4325 550.063839 L 116.235625 551.133482 L 116.6 542.944029 L 121.601875 543.111161 L 124.285 537.562388 L 121.96625 535.957924 L 128.028125 519.345033 L 125.54375 511.489844 L 129.65125 505.77394 L 129.816875 501.127679 L 133.03 497.751618 L 134.653125 492.202846 L 137.86625 493.105357 L 138.760625 498.28644 L 147.87 505.974498 L 149.294375 505.071987 L 148.93 497.049665 L 154.29625 494.342132 L 157.145 496.514844 L 166.95 489.729297 L 170.72625 488.993917 L 173.045 481.673549 L 175.36375 480.069085 C 175.36375 480.069085 177.1525 480.069085 177.318125 480.771038 C 177.48375 481.506417 180.00125 482.041239 180.00125 482.041239 L 189.80625 478.297489 L 196.795625 473.283538 L 199.28 472.213895 L 199.644375 466.130301 L 202.12875 460.080134 L 221.970625 449.016016 L 221.970625 446.676172 L 225.879375 444.536886 L 228.396875 443.099554 L 231.61 442.76529 L 233.564375 436.314007 L 234.98875 434.542411 L 231.245625 431.500614 L 230.88125 429.194196 C 229.82125 423.812556 238.56625 420.603627 238.56625 420.603627 L 238.56625 420.770759 L 241.249375 417.227567 L 245.886875 416.325056 L 247.51 419.366853 L 251.94875 417.92952 L 254.46625 417.92952 L 262.846875 408.636998 C 267.31875 401.851451 256.785 397.038058 256.785 397.038058 L 251.41875 391.155022 L 248.04 390.954464 L 243.038125 386.508761 L 239.659375 386.843025 L 234.293125 386.141071 L 234.6575 383.466964 L 236.7775 379.522656 L 237.870625 376.848549 L 239.990625 375.778906 L 240.355 371.868025 L 242.67375 370.430692 L 236.081875 362.040681 L 241.249375 358.464063 L 248.205625 355.957087 L 254.101875 349.17154 L 258.57375 349.17154 L 264.635625 340.413839 L 266.78875 335.433315 L 270.730625 334.163114 L 276.2625 333.995982 L 280.9 330.419364 L 280.9 328.112946 L 285.173125 329.717411 L 289.115 325.605971 L 290.340625 322.029353 L 296.435625 328.480636 L 298.224375 327.745257 L 303.921875 331.154743 L 308.559375 328.280078 L 311.2425 326.508482 L 313.03125 324.536328 L 321.445 326.675614 L 332.50875 331.489007 L 345.725625 331.489007 L 349.27 333.093471 L 353.04625 328.647768 L 349.46875 324.536328 L 346.785625 316.84827 L 343.5725 311.867746 L 333.03875 311.667188 L 322.505 313.639342 L 320.18625 312.402567 L 326.6125 304.012556 L 327.506875 300.435937 L 334.993125 292.915011 L 336.61625 289.004129 L 341.949375 286.664286 L 350.52875 277.739453 L 351.953125 271.689286 L 357.319375 271.689286 L 355.530625 267.377288 L 359.108125 269.18231 L 362.85125 264.536049 L 368.913125 267.577846 L 375.9025 266.675335 L 380.175625 265.070871 L 384.813125 257.583371 L 382.32875 251.867467 L 392.498125 242.207254 L 396.605625 241.137612 L 400.34875 235.087444 L 399.454375 233.11529 L 402.86625 231.677958 L 403.760625 226.864565 L 408.7625 222.920257 L 412.87 222.753125 L 411.61125 217.572042 L 412.67125 215.432757 L 410.55125 209.349163 L 405.715 198.986998 L 405.715 195.610938 L 407.669375 192.201451 L 400.713125 188.825391 L 396.77125 185.248772 L 398.394375 180.769643 L 393.9225 176.32394 L 390.179375 167.198549 L 397.5 160.61356 L 398.22875 154.162277 L 398.75875 151.321038 L 396.075625 151.48817 L 393.226875 149.883705 L 388.390625 148.479799 L 382.494375 142.229074 L 383.5875 139.52154 L 379.645625 139.88923 L 374.64375 138.284766 L 372.689375 134.006194 L 368.383125 131.866908 L 370.900625 126.852958 L 369.8075 124.17885 L 364.64 123.276339 L 362.486875 122.574386 L 356.425 125.950446 L 347.514375 125.081362 L 344.6325 122.407254 L 352.681875 116.156529 L 354.470625 116.156529 L 355.895 112.914174 L 360.698125 112.045089 L 363.215625 108.100781 L 359.836875 104.357031 L 358.379375 101.850056 L 360.896875 93.994866 L 365.534375 96.501842 L 366.263125 99.175949 L 371.430625 99.877902 L 373.219375 96.668973 L 375.3725 85.237165 L 372.855 84.902902 L 364.275625 88.278962 L 358.9425 83.833259 L 356.060625 85.972545 L 347.15 77.582533 L 346.95125 73.471094 L 348.574375 71.331808 L 343.936875 67.220368 C 333.03875 69.359654 336.08625 77.916797 336.08625 77.916797 L 334.09875 83.097879 C 326.976875 90.083984 319.9875 83.833259 319.9875 83.833259 L 317.13875 86.306808 L 313.76 87.042187 L 310.546875 85.070033 L 309.45375 83.632701 L 303.0275 83.632701 L 302.133125 85.437723 L 299.814375 85.070033 L 289.280625 81.693973 L 287.1275 83.465569 L 282.49 82.930748 L 280.9 84.902902 L 277.488125 84.167522 L 273.579375 82.395926 L 270.730625 84.535212 L 266.25875 84.167522 L 259.468125 79.521261 L 255.725 79.186998 L 254.830625 77.214844 L 252.6775 77.582533 Z M 251.518125 83.064453 " transform="matrix(0.117925,0,0,0.116861,0,0)"/>
<path style="fill:none;stroke-width:1;stroke-linecap:butt;stroke-linejoin:miter;stroke:rgb(0%,0%,0%);stroke-opacity:1;stroke-miterlimit:4;" d="M 328.699375 132.000614 L 320.749375 138.953292 L 317.503125 138.451897 L 318.265 145.204018 L 318.496875 149.215179 L 315.979375 150.217969 L 314.455625 148.981194 L 313.23 150.217969 L 308.956875 149.716574 L 299.946875 152.223549 L 297.92625 149.983984 L 292.4275 149.983984 L 291.201875 146.173382 L 287.3925 141.426842 L 270.63125 140.925446 L 267.881875 142.697042 L 256.58625 142.697042 L 253.34 140.925446 L 250.590625 140.925446 L 248.801875 145.939397 L 244.561875 146.674777 L 242.0775 148.212388 L 243.8 149.716574 L 241.315625 152.457533 L 243.07125 152.958929 L 242.309375 155.465904 L 238.069375 157.705469 L 235.51875 156.702679 L 235.78375 162.485435 L 237.5725 165.259821 L 237.075625 167.733371 L 242.309375 171.243136 L 243.568125 174.284933 L 249.066875 177.794699 L 250.09375 179.532868 L 253.108125 180.535658 L 258.606875 187.287779 L 260.329375 186.518973 L 262.35 187.521763 L 262.4825 191.332366 L 267.385 191.064955 L 269.6375 193.070536 L 275.633125 191.29894 L 281.396875 190.56356 L 284.14625 188.323996 L 284.41125 184.546819 L 287.6575 183.778013 L 290.24125 185.349051 L 290.936875 182.307254 L 292.195625 182.07327 L 295.21 176.758482 L 296.73375 173.482701 L 299.748125 173.482701 L 305.578125 169.672098 L 305.81 167.399107 L 309.354375 164.858705 C 309.354375 164.858705 309.71875 164.992411 310.281875 164.892132 C 310.845 164.825279 311.673125 164.591295 312.50125 163.989621 C 312.931875 163.688783 313.329375 163.287667 313.76 162.786272 C 314.190625 162.251451 314.588125 161.649777 314.985625 160.847545 C 315.383125 160.045312 315.780625 159.109375 316.07875 157.972879 C 316.41 156.836384 316.708125 155.532757 316.94 154.028571 L 319.225625 153.794587 L 320.98125 151.48817 L 323.001875 144.201228 L 324.7575 140.658036 L 325.519375 137.88365 L 329.560625 133.571652 Z M 328.699375 132.000614 " transform="matrix(0.117925,0,0,0.116861,0,0)"/>
<path style="fill:none;stroke-width:1;stroke-linecap:butt;stroke-linejoin:miter;stroke:rgb(0%,0%,0%);stroke-opacity:1;stroke-miterlimit:4;" d="M 289.413125 188.992522 L 289.148125 190.162444 L 284.61 194.441016 L 282.3575 194.942411 L 275.00375 204.268359 L 274.506875 205.805971 L 270.89625 209.984263 L 268.18 213.661161 L 264.966875 214.697377 L 256.354375 225.494085 L 262.88 226.63058 L 256.32125 239.366016 L 254.7975 241.672433 L 253.27375 248.223996 L 252.776875 250.496987 L 249.000625 250.496987 L 245.45625 263.633538 L 243.435625 264.903739 L 238.16875 271.722712 L 230.815 274.764509 L 226.77375 279.77846 L 226.541875 285.594643 L 221.47375 290.64202 L 222.2025 294.686607 L 225.515 294.954018 L 226.1775 296.39135 L 229.29125 297.427567 L 231.046875 302.040402 L 236.015625 303.444308 L 239.195625 302.374665 L 243.104375 305.550167 L 245.224375 309.126786 L 246.64875 309.461049 L 245.953125 313.371931 L 250.193125 319.756362 L 254.433125 317.617076 L 256.221875 314.10731 L 260.461875 313.371931 L 259.76625 315.84548 L 264.370625 317.984766 L 268.24625 316.547433 L 270.035 316.547433 L 271.42625 319.422098 L 273.94375 318.686719 L 275.335 319.756362 L 266.9875 335.366462 L 270.730625 334.19654 L 276.2625 333.995982 L 280.9 330.45279 L 280.9 328.07952 L 285.173125 329.717411 L 289.081875 325.605971 L 290.340625 322.029353 L 296.435625 328.480636 L 298.224375 327.745257 L 303.921875 331.154743 L 308.559375 328.280078 L 311.2425 326.508482 L 313.03125 324.536328 L 321.445 326.675614 L 332.50875 331.489007 L 345.725625 331.489007 L 349.27 333.093471 L 353.04625 328.647768 L 349.46875 324.536328 L 346.785625 316.84827 L 343.5725 311.834319 L 333.03875 311.700614 L 322.505 313.672768 L 320.18625 312.402567 L 326.579375 304.012556 L 327.506875 300.435937 L 334.993125 292.948438 L 336.583125 289.004129 L 341.9825 286.697712 L 350.52875 277.739453 L 351.953125 271.689286 L 357.319375 271.689286 L 355.530625 267.410714 L 359.108125 269.18231 L 362.85125 264.536049 L 368.94625 267.577846 L 375.9025 266.675335 L 380.175625 265.070871 L 384.813125 257.549944 L 382.32875 251.83404 L 392.498125 242.207254 L 396.605625 241.171038 L 400.34875 235.054018 L 399.454375 233.081864 L 402.833125 231.677958 L 403.760625 226.831138 L 408.7625 222.953683 L 412.836875 222.753125 L 411.578125 217.572042 L 412.67125 215.432757 L 410.518125 209.349163 L 405.715 198.986998 L 405.715 195.577511 L 407.7025 192.234877 L 400.713125 188.825391 L 396.77125 185.248772 L 398.394375 180.769643 L 393.9225 176.32394 L 390.179375 167.231975 L 397.5 160.580134 L 398.22875 154.195703 L 398.75875 151.321038 L 396.075625 151.48817 L 393.226875 149.917132 L 388.390625 148.479799 L 382.85875 142.63019 L 377.7575 145.036886 L 376.333125 150.719364 L 372.424375 152.85865 L 362.52 162.418583 L 362.155625 166.663728 L 359.34 167.733371 L 355.43125 170.574609 L 349.766875 171.610826 L 348.01125 178.32952 L 347.646875 183.677734 L 345.89125 190.062165 L 342.678125 197.516239 L 335.258125 191.466071 L 332.409375 191.131808 L 330.289375 193.237667 L 332.078125 193.605357 L 332.078125 196.446596 L 329.229375 199.956362 L 321.77625 196.078906 L 316.47625 197.850502 L 318.59625 200.357478 L 327.440625 203.53298 L 332.409375 204.234933 L 332.078125 207.410435 L 329.925 210.251674 L 320.71625 207.076172 L 315.01875 205.672266 L 317.171875 203.867243 L 312.89875 201.026004 L 306.87 201.026004 L 299.45 198.920145 L 293.42125 195.711217 L 294.845625 192.201451 L 293.056875 190.062165 L 290.208125 190.062165 Z M 289.413125 188.992522 " transform="matrix(0.117925,0,0,0.116861,0,0)"/>
<path style="fill:none;stroke-width:1;stroke-linecap:butt;stroke-linejoin:miter;stroke:rgb(0%,0%,0%);stroke-opacity:1;stroke-miterlimit:4;" d="M 265.6625 214.563672 L 259.10375 210.585938 L 257.083125 212.591518 L 253.605 212.591518 L 249.82875 211.588728 L 245.555625 212.591518 L 244.065 211.354743 L 240.321875 210.084542 L 236.810625 210.351953 L 233.79625 211.588728 L 232.040625 211.354743 L 231.046875 206.608203 L 228.529375 203.098437 L 224.52125 203.599833 L 222.235625 200.558036 L 218.989375 200.558036 L 217.001875 198.819866 L 212.496875 200.056641 L 210.509375 201.360268 L 200.969375 199.321261 L 193.185 194.574721 L 186.195625 192.803125 L 184.671875 190.56356 L 185.930625 188.825391 L 183.18125 185.516183 L 180.66375 185.282199 L 179.173125 180.368527 C 173.045 175.120592 170.958125 184.346261 170.958125 184.346261 L 167.67875 187.388058 L 166.685 190.162444 L 167.94375 193.170815 L 166.453125 195.945201 L 168.440625 199.220982 C 168.374375 198.853292 164.266875 204.836607 166.453125 209.583147 C 165.95625 209.482868 165.591875 209.683426 165.16125 209.750279 L 171.985 210.084542 L 175.794375 214.864509 L 182.353125 214.864509 L 187.123125 218.173717 L 192.688125 218.173717 L 193.185 216.168136 L 195.9675 214.363114 L 200.240625 215.666741 L 200.770625 219.443917 L 205.30875 219.677902 L 205.57375 215.666741 L 207.0975 217.404911 L 212.629375 217.404911 L 219.718125 221.716908 L 219.453125 226.262891 L 221.970625 229.538672 L 229.059375 229.772656 L 230.815 228.268471 L 235.12125 228.268471 L 237.37375 225.99548 L 239.394375 225.494085 L 251.02125 229.772656 L 255.824375 232.814453 L 256.85125 238.363225 L 262.615 226.99827 L 256.05625 225.761496 L 265.165625 214.864509 Z M 265.6625 214.563672 " transform="matrix(0.117925,0,0,0.116861,0,0)"/>
<path style="fill:none;stroke-width:1;stroke-linecap:butt;stroke-linejoin:miter;stroke:rgb(0%,0%,0%);stroke-opacity:1;stroke-miterlimit:4;" d="M 204.546875 200.056641 L 207.23 198.318471 L 206.468125 195.811496 L 210.244375 194.30731 L 211.00625 192.30173 L 214.484375 192.30173 L 217.001875 194.808705 L 218.989375 194.073326 L 221.241875 190.062165 L 222.235625 186.786384 L 220.01625 181.271038 L 218.7575 172.513337 L 218.260625 168.000781 L 219.48625 164.491016 L 217.49875 161.750056 L 218.989375 160.479855 L 221.506875 160.479855 L 223.030625 155.465904 L 217.995625 156.23471 L 213.755625 147.710993 L 211.635625 152.190123 L 205.70625 156.702679 L 198.981875 161.014676 L 196.199375 158.24029 C 191.031875 159.577344 187.388125 159.109375 187.388125 159.109375 C 190.1375 165.660937 185.6325 164.624721 185.6325 164.624721 L 187.62 166.396317 L 185.6325 168.435324 L 186.36125 170.507757 L 190.20375 170.240346 L 194.940625 176.791908 L 192.688125 177.527288 L 188.183125 179.265458 L 186.6925 180.535658 L 184.0425 178.296094 L 180.299375 181.304464 C 180.034375 181.003627 179.769375 180.836496 179.5375 180.669364 L 179.371875 181.037054 L 180.66375 185.282199 L 183.18125 185.516183 L 185.930625 188.825391 L 184.671875 190.56356 L 186.195625 192.803125 L 193.185 194.574721 L 200.969375 199.321261 Z M 204.546875 200.056641 " transform="matrix(0.117925,0,0,0.116861,0,0)"/>
<path style="fill:none;stroke-width:1;stroke-linecap:butt;stroke-linejoin:miter;stroke:rgb(0%,0%,0%);stroke-opacity:1;stroke-miterlimit:4;" d="M 179.371875 181.037054 L 179.5375 180.669364 C 179.405 180.569085 179.305625 180.468806 179.173125 180.368527 Z M 179.371875 181.037054 " transform="matrix(0.117925,0,0,0.116861,0,0)"/>
<path style="fill:none;stroke-width:1;stroke-linecap:butt;stroke-linejoin:miter;stroke:rgb(0%,0%,0%);stroke-opacity:1;stroke-miterlimit:4;" d="M 222.169375 155.599609 L 222.235625 155.465904 L 223.5275 152.724944 L 219.75125 149.215179 L 218.7575 145.939397 L 221.241875 142.931027 L 221.506875 138.685882 L 219.22125 135.878069 L 213.39125 136.078627 L 211.8675 134.340458 L 211.8675 137.382254 L 210.87375 137.616239 L 208.588125 135.343248 L 207.594375 137.616239 L 208.588125 139.387835 L 208.588125 144.201228 L 210.87375 145.204018 L 209.846875 150.75279 C 204.9775 155.131641 200.14125 157.2375 196.199375 158.24029 L 198.981875 161.014676 L 205.70625 156.702679 L 211.635625 152.190123 L 213.755625 147.710993 L 217.995625 156.23471 Z M 222.169375 155.599609 " transform="matrix(0.117925,0,0,0.116861,0,0)"/>
<path style="fill:none;stroke-width:1;stroke-linecap:butt;stroke-linejoin:miter;stroke:rgb(0%,0%,0%);stroke-opacity:1;stroke-miterlimit:4;" d="M 221.275 142.362779 L 221.73875 142.429632 L 223.7925 142.429632 L 225.018125 138.685882 L 228.794375 136.947712 L 235.78375 139.688672 L 238.069375 136.947712 L 240.81875 137.449107 L 240.056875 139.187277 L 241.315625 143.198437 L 243.568125 140.925446 L 245.05875 141.426842 L 244.065 138.451897 L 246.3175 136.947712 L 248.305 138.451897 L 250.590625 138.451897 L 251.584375 135.944922 L 249.82875 132.903125 L 248.57 130.897545 L 252.08125 127.9226 L 253.836875 127.9226 L 254.59875 126.151004 L 252.08125 123.410045 L 249.82875 125.148214 L 247.04625 123.410045 L 246.814375 118.396094 L 246.715 118.396094 L 245.224375 120.201116 L 242.176875 120.201116 L 241.183125 123.710882 L 232.60375 132.802846 L 219.718125 135.844643 L 219.22125 135.878069 L 221.506875 138.685882 Z M 221.275 142.362779 " transform="matrix(0.117925,0,0,0.116861,0,0)"/>
<path style="fill:none;stroke-width:1;stroke-linecap:butt;stroke-linejoin:miter;stroke:rgb(0%,0%,0%);stroke-opacity:1;stroke-miterlimit:4;" d="M 290.24125 185.349051 L 287.6575 183.778013 L 284.41125 184.546819 L 284.14625 188.323996 L 281.396875 190.56356 L 275.633125 191.29894 L 269.6375 193.070536 L 267.385 191.064955 L 258.83875 191.56635 L 255.3275 194.808705 L 250.35875 194.30731 L 247.04625 193.571931 L 244.296875 191.29894 L 241.8125 191.29894 L 241.8125 195.076116 L 238.56625 195.076116 L 237.3075 192.569141 L 234.293125 189.326786 L 226.045 186.786384 L 222.765625 185.783594 L 221.54 185.014788 L 222.235625 186.786384 L 221.241875 190.062165 L 218.989375 194.073326 L 217.001875 194.808705 L 214.484375 192.30173 L 211.00625 192.30173 L 210.244375 194.30731 L 206.468125 195.811496 L 207.23 198.318471 L 204.546875 200.056641 L 210.509375 201.360268 L 212.496875 200.056641 L 217.001875 198.819866 L 218.989375 200.558036 L 222.235625 200.558036 L 224.52125 203.599833 L 228.529375 203.098437 L 231.046875 206.608203 L 232.040625 211.354743 L 233.79625 211.588728 L 236.810625 210.351953 L 240.321875 210.084542 L 244.065 211.354743 L 245.555625 212.591518 L 249.82875 211.588728 L 253.605 212.591518 L 257.083125 212.591518 L 259.10375 210.585938 L 265.6625 214.563672 L 268.445 212.858929 L 274.506875 205.805971 L 275.00375 204.268359 L 282.3575 194.942411 L 284.61 194.441016 L 289.148125 190.162444 Z M 290.24125 185.349051 " transform="matrix(0.117925,0,0,0.116861,0,0)"/>
<path style="fill:none;stroke-width:1;stroke-linecap:butt;stroke-linejoin:miter;stroke:rgb(0%,0%,0%);stroke-opacity:1;stroke-miterlimit:4;" d="M 254.565625 141.593973 L 252.180625 127.9226 L 252.08125 127.9226 L 248.57 130.897545 L 249.82875 132.903125 L 251.584375 135.944922 L 250.590625 138.451897 L 248.305 138.451897 L 246.3175 136.947712 L 244.065 138.451897 L 245.05875 141.426842 L 243.568125 140.925446 L 241.315625 143.198437 L 240.056875 139.187277 L 240.81875 137.449107 L 238.069375 136.947712 L 235.78375 139.688672 L 228.794375 136.947712 L 225.018125 138.685882 L 223.7925 142.429632 L 221.73875 142.429632 L 221.275 142.362779 L 221.241875 142.931027 L 218.7575 145.939397 L 219.75125 149.215179 L 223.5275 152.724944 L 222.235625 155.465904 L 222.169375 155.599609 L 223.030625 155.465904 L 221.506875 160.479855 L 218.989375 160.479855 L 217.49875 161.750056 L 219.48625 164.491016 L 218.260625 168.000781 L 218.7575 172.513337 L 220.01625 181.271038 L 221.54 185.014788 L 222.765625 185.783594 L 226.045 186.786384 L 234.293125 189.326786 L 237.3075 192.569141 L 238.56625 195.076116 L 241.8125 195.076116 L 241.8125 191.29894 L 244.296875 191.29894 L 247.04625 193.571931 L 250.35875 194.30731 L 255.3275 194.808705 L 258.83875 191.56635 L 262.4825 191.332366 L 262.35 187.521763 L 260.329375 186.518973 L 258.606875 187.287779 L 253.108125 180.535658 L 250.09375 179.532868 L 249.066875 177.794699 L 243.568125 174.284933 L 242.309375 171.243136 L 237.075625 167.733371 L 237.5725 165.259821 L 235.78375 162.485435 L 235.51875 156.702679 L 238.069375 157.705469 L 242.309375 155.465904 L 243.07125 152.958929 L 241.315625 152.457533 L 243.8 149.716574 L 242.0775 148.212388 L 244.561875 146.674777 L 248.801875 145.939397 L 250.590625 140.925446 L 253.34 140.925446 Z M 254.565625 141.593973 " transform="matrix(0.117925,0,0,0.116861,0,0)"/>
<path style="fill:none;stroke-width:1;stroke-linecap:butt;stroke-linejoin:miter;stroke:rgb(0%,0%,0%);stroke-opacity:1;stroke-miterlimit:4;" d="M 184.0425 178.296094 L 186.6925 180.535658 L 188.183125 179.265458 L 192.688125 177.527288 L 194.940625 176.791908 L 190.20375 170.240346 L 186.36125 170.507757 L 186.62625 171.176283 L 184.340625 178.028683 Z M 184.0425 178.296094 " transform="matrix(0.117925,0,0,0.116861,0,0)"/>
<path style="fill-rule:evenodd;fill:rgb(0%,76.078431%,100%);fill-opacity:0.219608;stroke-width:2;stroke-linecap:butt;stroke-linejoin:miter;stroke:rgb(0%,0%,0%);stroke-opacity:1;stroke-miterlimit:4;" d="M 246.715 118.396094 L 245.224375 120.201116 L 242.176875 120.201116 L 241.183125 123.710882 L 232.60375 132.802846 L 219.718125 135.844643 L 219.22125 135.878069 L 211.8675 137.382254 L 210.87375 137.616239 L 208.588125 135.343248 L 207.594375 137.616239 L 208.588125 139.387835 L 208.588125 144.201228 L 210.87375 145.204018 L 209.846875 150.75279 C 204.9775 155.131641 200.14125 157.2375 196.199375 158.24029 C 191.031875 159.577344 187.388125 159.109375 187.388125 159.109375 C 190.1375 165.660937 185.6325 164.624721 185.6325 164.624721 L 187.62 166.396317 L 185.6325 168.435324 L 186.36125 170.507757 L 186.62625 171.176283 L 184.340625 178.028683 L 184.0425 178.296094 L 180.299375 181.304464 C 180.034375 181.003627 179.769375 180.836496 179.5375 180.669364 L 179.371875 181.037054 L 179.173125 180.368527 C 173.045 175.120592 170.958125 184.346261 170.958125 184.346261 L 167.67875 187.388058 L 166.685 190.162444 L 167.94375 193.170815 L 166.453125 195.945201 L 168.440625 199.220982 C 168.374375 198.853292 164.266875 204.836607 166.453125 209.583147 C 165.95625 209.482868 165.591875 209.683426 165.16125 209.750279 L 171.985 210.084542 L 175.794375 214.864509 L 182.353125 214.864509 L 187.123125 218.173717 L 192.688125 218.173717 L 193.185 216.168136 L 195.9675 214.363114 L 200.240625 215.666741 L 200.770625 219.443917 L 205.30875 219.677902 L 205.57375 215.666741 L 207.0975 217.404911 L 212.629375 217.404911 L 219.718125 221.716908 L 219.453125 226.262891 L 221.970625 229.538672 L 229.059375 229.772656 L 230.815 228.268471 L 235.12125 228.268471 L 237.37375 225.99548 L 239.394375 225.494085 L 251.02125 229.772656 L 255.824375 232.814453 L 256.85125 238.363225 L 262.615 226.99827 L 256.05625 225.761496 L 265.165625 214.864509 L 265.6625 214.563672 L 268.445 212.858929 L 274.506875 205.805971 L 275.00375 204.268359 L 282.3575 194.942411 L 284.61 194.441016 L 289.148125 190.162444 L 290.24125 185.349051 L 290.936875 182.307254 L 292.195625 182.07327 L 295.21 176.758482 L 296.73375 173.482701 L 299.748125 173.482701 L 305.578125 169.672098 L 305.81 167.399107 L 309.354375 164.858705 C 309.354375 164.858705 309.71875 164.992411 310.281875 164.892132 C 310.845 164.825279 311.673125 164.591295 312.50125 163.989621 C 312.931875 163.688783 313.329375 163.287667 313.76 162.786272 C 314.190625 162.251451 314.588125 161.649777 314.985625 160.847545 C 315.383125 160.045312 315.780625 159.109375 316.07875 157.972879 C 316.41 156.836384 316.708125 155.532757 316.94 154.028571 L 319.225625 153.794587 L 320.98125 151.48817 L 323.001875 144.201228 L 324.7575 140.658036 L 325.519375 137.88365 L 329.560625 133.571652 L 328.699375 132.000614 L 320.749375 138.953292 L 317.503125 138.451897 L 318.265 145.204018 L 318.496875 149.215179 L 315.979375 150.217969 L 314.455625 148.981194 L 313.23 150.217969 L 308.956875 149.716574 L 299.946875 152.223549 L 297.92625 149.983984 L 292.4275 149.983984 L 291.201875 146.173382 L 287.3925 141.426842 L 270.63125 140.925446 L 267.881875 142.697042 L 256.58625 142.697042 L 254.565625 141.593973 L 252.180625 127.9226 L 253.836875 127.9226 L 254.59875 126.151004 L 252.08125 123.410045 L 249.82875 125.148214 L 247.04625 123.410045 L 246.814375 118.396094 Z M 246.715 118.396094 " transform="matrix(0.117925,0,0,0.116861,0,0)"/>
<path style="fill:none;stroke-width:1;stroke-linecap:butt;stroke-linejoin:miter;stroke:rgb(0%,0%,0%);stroke-opacity:1;stroke-miterlimit:4;" d="M 116.6 542.944029 L 109.5775 539.166853 L 111.134375 532.347879 L 112.36 529.807478 L 111.134375 527.768471 L 111.863125 522.219699 L 111.63125 515.400725 L 109.345625 516.403516 L 103.780625 516.169531 L 100.76625 509.584542 L 97.98375 506.810156 L 97.98375 499.991183 L 101.793125 496.481417 L 102.29 493.673605 L 104.045625 491.400614 L 102.521875 490.665234 L 98.1825 492.369978 L 97.71875 493.941016 L 96.46 495.980022 L 94.67125 497.216797 L 94.67125 503.534375 L 92.68375 505.071987 L 90.398125 502.531585 L 88.6425 501.528795 L 87.11875 505.071987 L 86.621875 507.846373 L 84.104375 507.846373 L 80.328125 508.849163 L 79.56625 510.88817 L 85.098125 513.127734 L 84.33625 514.89933 L 82.050625 513.89654 L 79.56625 517.439732 L 75.98875 516.169531 L 77.280625 519.679297 L 72.4775 523.991295 L 67.939375 522.453683 L 69.695 525.49548 L 68.933125 527.033092 L 66.415625 527.033092 L 66.945625 529.573493 L 63.898125 532.347879 L 64.395 541.406417 L 63.765625 544.715625 L 64.46125 545.9524 L 68.56875 546.152958 L 70.523125 551.501172 L 76.4525 558.988672 L 81.056875 559.724051 L 81.984375 560.793694 L 83.574375 560.593136 L 84.99875 559.18923 L 97.32125 557.417634 L 101.95875 550.598661 L 111.4325 550.063839 L 116.235625 551.166908 Z M 116.6 542.944029 " transform="matrix(0.117925,0,0,0.116861,0,0)"/>
<path style="fill:none;stroke-width:1;stroke-linecap:butt;stroke-linejoin:miter;stroke:rgb(0%,0%,0%);stroke-opacity:1;stroke-miterlimit:4;" d="M 129.021875 470.876842 L 128.028125 477.027288 L 125.510625 488.124833 L 123.258125 487.122042 L 119.44875 485.617857 L 114.14875 485.617857 L 112.89 483.344866 L 102.786875 483.077455 L 101.29625 483.812835 L 101.793125 484.347656 L 102.29 486.888058 L 100.50125 488.659654 L 98.745625 490.397824 L 98.1825 492.369978 L 102.521875 490.665234 L 104.045625 491.400614 L 102.29 493.673605 L 101.793125 496.481417 L 97.98375 499.991183 L 97.98375 506.810156 L 100.76625 509.584542 L 103.780625 516.169531 L 109.345625 516.403516 L 111.63125 515.400725 L 111.863125 522.219699 L 111.134375 527.768471 L 112.36 529.807478 L 111.134375 532.347879 L 109.5775 539.166853 L 116.6 542.944029 L 121.601875 543.077734 L 124.285 537.562388 L 121.96625 535.957924 L 128.028125 519.345033 L 125.54375 511.489844 L 129.65125 505.77394 L 129.816875 501.161105 L 133.03 497.751618 L 134.653125 492.202846 L 137.833125 493.105357 L 138.760625 498.28644 L 147.836875 505.974498 L 149.12875 505.172266 L 148.0025 492.670815 L 152.7725 486.119252 L 153.269375 483.846261 L 151.77875 482.609487 L 151.77875 478.030078 L 150.486875 476.525893 L 152.04375 472.213895 L 153.76625 469.439509 L 152.7725 465.896317 L 151.546875 462.620536 L 148.764375 458.609375 L 145.253125 456.536942 L 143.199375 457.305748 L 141.410625 462.620536 L 135.381875 461.885156 L 131.075625 464.893527 L 129.551875 470.70971 Z M 129.021875 470.876842 " transform="matrix(0.117925,0,0,0.116861,0,0)"/>
<path style="fill-rule:evenodd;fill:rgb(35.294118%,0%,100%);fill-opacity:0.207843;stroke-width:1;stroke-linecap:butt;stroke-linejoin:miter;stroke:rgb(0%,0%,0%);stroke-opacity:1;stroke-miterlimit:4;" d="M 126.769375 422.475502 L 124.74875 423.745703 L 123.49 426.520089 L 120.9725 426.520089 L 119.44875 427.79029 L 115.6725 430.063281 L 114.645625 431.300056 L 112.89 432.570257 L 110.339375 427.522879 L 108.086875 427.522879 L 108.58375 430.564676 L 107.59 432.570257 L 102.786875 428.79308 L 101.29625 428.79308 L 99.5075 431.567467 L 96.228125 431.066071 L 94.439375 432.570257 L 97.98375 434.107868 L 100.004375 436.614844 L 97.71875 439.422656 L 92.451875 437.617634 L 91.391875 440.158036 L 89.90125 446.208203 L 90.16625 449.016016 L 93.6775 452.525781 L 94.439375 454.029967 L 91.391875 454.798772 L 91.16 455.066183 L 86.125 456.302958 L 84.833125 459.578739 L 86.125 461.885156 L 83.6075 462.620536 L 79.03625 458.10798 L 78.274375 453.294587 L 76.51875 454.564788 L 74.498125 454.564788 L 72.709375 456.570368 L 68.17125 460.080134 L 71.715625 459.077344 L 71.715625 462.887946 L 65.65375 463.890737 C 65.65375 463.890737 68.96625 464.659542 70.225 464.893527 C 71.48375 465.160937 72.4775 465.394922 73.504375 465.394922 C 74.498125 465.394922 75.98875 465.662333 75.98875 465.662333 L 77.7775 468.202734 C 77.7775 468.202734 78.804375 468.202734 80.328125 468.202734 C 81.056875 468.202734 81.7525 468.503571 82.249375 468.804408 C 82.74625 469.138672 83.0775 469.439509 83.0775 469.439509 L 82.050625 472.982701 L 80.56 474.988281 L 78.0425 477.027288 L 77.545625 479.300279 C 77.545625 479.300279 79.30125 480.804464 80.328125 481.305859 C 81.321875 481.807254 81.81875 481.807254 83.0775 482.074665 C 83.74 482.174944 84.104375 482.542634 84.303125 482.810045 C 84.535 483.110882 84.60125 483.344866 84.60125 483.344866 L 87.11875 483.57885 L 88.9075 481.57327 L 90.663125 483.344866 L 92.68375 485.083036 L 94.67125 484.080246 L 96.46 482.609487 L 97.45375 481.305859 L 100.004375 482.30865 L 101.29625 483.812835 L 101.793125 484.347656 L 102.29 486.888058 L 100.50125 488.659654 L 98.745625 490.397824 L 98.1825 492.369978 L 97.71875 493.941016 L 96.46 495.980022 L 94.67125 497.216797 L 94.67125 503.534375 L 92.68375 505.071987 L 90.398125 502.531585 L 88.6425 501.528795 L 87.11875 505.071987 L 86.621875 507.846373 L 84.104375 507.846373 L 80.328125 508.849163 L 79.56625 510.88817 L 85.098125 513.127734 L 84.33625 514.89933 L 82.050625 513.89654 L 79.56625 517.439732 L 75.98875 516.169531 L 77.280625 519.679297 L 72.4775 523.991295 L 67.939375 522.453683 L 69.695 525.49548 L 68.933125 527.033092 L 66.415625 527.033092 L 66.945625 529.573493 L 63.898125 532.347879 L 64.395 541.406417 L 63.765625 544.715625 L 64.46125 545.9524 L 68.56875 546.152958 L 70.523125 551.501172 L 76.4525 558.988672 L 81.056875 559.724051 L 81.984375 560.793694 L 83.574375 560.593136 L 84.99875 559.18923 L 97.32125 557.417634 L 101.95875 550.598661 L 111.4325 550.063839 L 116.235625 551.166908 L 116.6 542.944029 L 121.601875 543.077734 L 124.285 537.562388 L 121.96625 535.957924 L 128.028125 519.345033 L 125.54375 511.489844 L 129.65125 505.77394 L 129.816875 501.161105 L 133.03 497.751618 L 134.653125 492.202846 L 137.833125 493.105357 L 138.760625 498.28644 L 147.836875 505.974498 L 149.12875 505.172266 L 149.294375 505.071987 L 148.93 497.016239 L 154.29625 494.342132 L 157.145 496.514844 L 166.983125 489.729297 L 170.72625 488.993917 L 173.045 481.673549 L 175.330625 480.069085 C 175.330625 480.069085 177.119375 480.069085 177.318125 480.771038 C 177.48375 481.506417 180.00125 482.041239 180.00125 482.041239 L 189.80625 478.297489 L 196.795625 473.283538 L 199.28 472.213895 L 199.644375 466.163728 L 202.161875 460.046708 L 211.768125 454.698493 L 203.023125 446.977009 L 200.00875 446.208203 L 197.988125 449.985379 L 196.96125 453.528571 L 188.911875 453.027176 L 183.346875 444.704018 L 185.6325 440.659431 L 185.135625 438.38644 L 181.32625 434.609263 L 168.9375 439.890625 L 167.446875 437.38365 L 165.89 438.119029 L 165.658125 442.431027 L 162.37875 446.208203 L 162.37875 447.979799 L 159.099375 450.98817 L 156.051875 447.210993 L 149.26125 451.522991 L 146.47875 452.525781 L 146.47875 456.068973 L 145.253125 456.536942 L 143.199375 457.305748 L 141.410625 462.620536 L 135.381875 461.885156 L 131.075625 464.893527 L 129.551875 470.70971 L 129.021875 470.876842 L 127.79625 471.211105 L 127.53125 466.397712 L 124.251875 465.896317 L 124.48375 459.578739 L 129.055 451.790402 L 128.79 449.751395 L 126.2725 449.25 L 125.245625 447.210993 L 128.525 441.662221 L 124.74875 437.885045 L 126.040625 435.077232 L 130.810625 430.798661 L 129.32 429.294475 L 132.599375 424.514509 Z M 126.769375 422.475502 " transform="matrix(0.117925,0,0,0.116861,0,0)"/>
<path style="fill-rule:evenodd;fill:rgb(0%,97.647059%,4.705882%);fill-opacity:0.196078;stroke-width:2;stroke-linecap:butt;stroke-linejoin:miter;stroke:rgb(0%,0%,0%);stroke-opacity:1;stroke-miterlimit:4;" d="M 152.11 449.751395 L 152.275625 446.709598 L 153.76625 443.199833 L 151.016875 442.431027 L 147.7375 448.24721 L 146.47875 446.977009 L 148.764375 441.896205 L 148.0025 439.422656 L 149.99 433.105078 L 151.281875 427.522879 L 147.2075 425.985268 L 149.493125 418.430915 L 148.234375 413.617522 L 144.425 410.107757 L 147.7375 403.288783 L 144.955 398.508817 L 139.92 399.511607 L 136.8725 396.703795 L 133.593125 399.010212 L 128.028125 401.015792 L 123.986875 401.015792 L 118.686875 403.288783 L 114.41375 403.522768 L 114.14875 404.826395 L 111.63125 405.32779 L 106.828125 403.021373 L 102.786875 401.784598 L 100.76625 399.745592 L 96.46 399.745592 L 91.0275 396.870926 C 89.305 403.489342 85.33 403.790179 85.33 403.790179 L 83.40875 418.464342 L 69.8275 432.937946 C 69.8275 432.937946 68.734375 433.840458 68.03875 434.174721 C 67.31 434.542411 64.46125 434.542411 64.46125 434.542411 L 63.765625 437.216518 C 56.080625 449.183147 51.973125 472.548158 51.973125 472.548158 L 44.98375 484.180525 L 44.288125 488.993917 L 41.439375 491.500893 L 39.81625 491.835156 L 38.5575 490.598382 L 36.9675 492.202846 L 37.16625 494.007868 L 40.180625 493.80731 L 42.300625 497.216797 L 42.168125 507.044141 L 35.013125 523.289342 L 33.953125 524.191853 L 30.3425 524.893806 L 27.49375 528.670982 L 25.90375 533.818638 L 24.479375 535.590234 L 15.336875 540.604185 L 13.548125 543.077734 L 12.8525 545.58471 L 28.55375 548.659933 L 32.296875 546.687779 L 36.073125 549.32846 L 40.545 548.459375 L 40.909375 544.515067 L 43.758125 545.9524 L 47.17 548.091685 L 59.29375 546.320089 L 63.036875 543.47885 L 63.765625 544.715625 L 64.395 541.406417 L 63.898125 532.347879 L 66.945625 529.573493 L 66.415625 527.033092 L 68.933125 527.033092 L 69.695 525.49548 L 67.939375 522.453683 L 72.4775 523.991295 L 77.280625 519.679297 L 75.98875 516.169531 L 79.56625 517.439732 L 82.050625 513.89654 L 84.33625 514.89933 L 85.098125 513.127734 L 79.56625 510.88817 L 80.328125 508.849163 L 84.104375 507.846373 L 86.621875 507.846373 L 87.11875 505.071987 L 88.6425 501.528795 L 90.398125 502.531585 L 92.68375 505.071987 L 94.67125 503.534375 L 94.67125 497.216797 L 96.46 495.980022 L 97.71875 493.941016 L 98.745625 490.397824 L 100.50125 488.659654 L 102.29 486.888058 L 101.793125 484.347656 L 100.004375 482.30865 L 97.45375 481.305859 L 96.46 482.609487 L 94.67125 484.080246 L 92.68375 485.083036 L 90.663125 483.344866 L 88.9075 481.57327 L 87.11875 483.57885 L 84.60125 483.344866 C 84.60125 483.344866 84.535 483.110882 84.303125 482.810045 C 84.104375 482.542634 83.74 482.174944 83.0775 482.074665 C 81.81875 481.807254 81.321875 481.807254 80.328125 481.305859 C 79.30125 480.804464 77.545625 479.300279 77.545625 479.300279 L 78.0425 477.027288 L 80.56 474.988281 L 82.050625 472.982701 L 83.0775 469.439509 C 83.0775 469.439509 82.74625 469.138672 82.249375 468.804408 C 81.7525 468.503571 81.056875 468.202734 80.328125 468.202734 C 78.804375 468.202734 77.7775 468.202734 77.7775 468.202734 L 75.98875 465.662333 C 75.98875 465.662333 74.498125 465.394922 73.504375 465.394922 C 72.4775 465.394922 71.48375 465.160937 70.225 464.893527 C 68.96625 464.659542 65.65375 463.890737 65.65375 463.890737 L 71.715625 462.887946 L 71.715625 459.077344 L 68.17125 460.080134 L 72.709375 456.570368 L 74.498125 454.564788 L 76.51875 454.564788 L 78.274375 453.294587 L 79.03625 458.10798 L 83.6075 462.620536 L 86.125 461.885156 L 84.833125 459.578739 L 86.125 456.302958 L 91.16 455.066183 L 91.391875 454.798772 L 94.439375 454.029967 L 93.6775 452.525781 L 90.16625 449.016016 L 89.90125 446.208203 L 91.391875 440.158036 L 92.451875 437.617634 L 97.71875 439.422656 L 100.004375 436.614844 L 97.98375 434.107868 L 94.439375 432.570257 L 96.228125 431.066071 L 99.5075 431.567467 L 101.29625 428.79308 L 102.786875 428.79308 L 107.59 432.570257 L 108.58375 430.564676 L 108.086875 427.522879 L 110.339375 427.522879 L 112.89 432.570257 L 114.645625 431.300056 L 115.6725 430.063281 L 119.44875 427.79029 L 120.9725 426.520089 L 123.49 426.520089 L 124.74875 423.745703 L 126.769375 422.475502 L 132.599375 424.514509 L 129.32 429.294475 L 130.810625 430.798661 L 126.040625 435.077232 L 124.74875 437.885045 L 128.525 441.662221 L 125.245625 447.210993 L 126.2725 449.25 L 128.79 449.751395 L 129.055 451.790402 L 124.48375 459.578739 L 124.251875 465.896317 L 127.53125 466.397712 L 127.79625 471.211105 L 129.551875 470.70971 L 131.075625 464.893527 L 135.381875 461.885156 L 141.410625 462.620536 L 143.199375 457.305748 L 146.47875 456.068973 L 146.47875 452.525781 L 149.26125 451.522991 Z M 152.11 449.751395 " transform="matrix(0.117925,0,0,0.116861,0,0)"/>
<path style="fill-rule:evenodd;fill:rgb(98.823529%,97.254902%,36.470588%);fill-opacity:0.341176;stroke-width:2;stroke-linecap:butt;stroke-linejoin:miter;stroke:rgb(0%,0%,0%);stroke-opacity:1;stroke-miterlimit:4;" d="M 266.9875 335.366462 L 275.335 319.756362 L 273.94375 318.686719 L 271.42625 319.422098 L 270.035 316.547433 L 268.24625 316.547433 L 264.370625 317.984766 L 259.76625 315.84548 L 260.461875 313.371931 L 256.221875 314.10731 L 254.433125 317.617076 L 250.193125 319.756362 L 245.953125 313.371931 L 246.64875 309.461049 L 245.224375 309.126786 L 243.104375 305.550167 L 239.195625 302.374665 L 236.015625 303.444308 L 231.046875 302.040402 L 229.29125 297.427567 L 226.1775 296.39135 L 226.541875 297.227009 L 224.488125 300.736775 L 219.983125 302.006975 L 217.4325 301.23817 L 213.65625 304.547377 L 215.411875 306.051562 L 214.153125 308.057143 L 211.635625 309.327344 L 212.1325 311.867746 L 206.5675 315.410937 L 200.505625 322.96529 L 198.485 324.235491 L 199.246875 326.508482 L 200.505625 327.778683 L 197.22625 329.784263 L 196.2325 333.327455 L 194.476875 333.327455 L 190.6675 332.55865 L 191.164375 334.831641 L 193.45 338.374833 L 199.511875 339.645033 L 201.2675 338.876228 L 201.2675 340.915234 L 199.246875 343.689621 L 199.246875 347.466797 L 196.96125 350.241183 L 193.185 353.516964 L 189.640625 355.823382 L 187.885 359.333147 L 185.3675 362.374944 L 183.57875 366.152121 L 180.79625 368.425112 L 176.523125 370.430692 L 171.455 373.7399 L 175.264375 380.324888 L 173.740625 380.324888 L 170.958125 377.517076 L 167.94375 383.099275 L 164.664375 386.876451 L 159.59625 401.784598 L 157.840625 410.341741 L 154.29625 416.893304 L 152.7725 427.021484 L 151.1825 427.890569 L 149.99 433.105078 L 148.0025 439.422656 L 148.764375 441.896205 L 146.47875 446.977009 L 147.7375 448.24721 L 151.016875 442.431027 L 153.76625 443.199833 L 152.275625 446.709598 L 152.11 449.751395 L 156.051875 447.210993 L 159.099375 450.98817 L 162.37875 447.979799 L 162.37875 446.208203 L 165.658125 442.431027 L 165.89 438.119029 L 167.446875 437.38365 L 168.9375 439.890625 L 181.32625 434.609263 L 185.135625 438.38644 L 185.6325 440.659431 L 183.346875 444.704018 L 188.911875 453.027176 L 196.96125 453.528571 L 197.988125 449.985379 L 200.00875 446.208203 L 203.023125 446.977009 L 211.768125 454.698493 L 221.970625 449.016016 L 221.970625 446.676172 L 225.9125 444.536886 L 228.396875 443.099554 L 231.61 442.76529 L 233.564375 436.314007 L 234.98875 434.542411 L 231.245625 431.500614 L 230.914375 429.194196 C 229.82125 423.845982 238.56625 420.603627 238.56625 420.603627 L 238.56625 420.770759 L 241.249375 417.227567 L 245.92 416.325056 L 247.51 419.333426 L 251.981875 417.92952 L 254.46625 417.92952 L 262.846875 408.670424 C 267.31875 401.884877 256.785 397.038058 256.785 397.038058 L 251.451875 391.155022 L 248.04 390.954464 L 243.038125 386.508761 L 239.659375 386.843025 L 234.293125 386.141071 L 234.6575 383.466964 L 236.7775 379.522656 L 237.8375 376.848549 L 239.990625 375.778906 L 240.355 371.834598 L 242.67375 370.430692 L 236.04875 362.040681 L 241.249375 358.464063 L 248.205625 355.957087 L 254.101875 349.17154 L 258.57375 349.17154 L 264.66875 340.447266 L 266.78875 335.433315 Z M 266.9875 335.366462 " transform="matrix(0.117925,0,0,0.116861,0,0)"/>
<path style="fill:none;stroke-width:1;stroke-linecap:butt;stroke-linejoin:miter;stroke:rgb(0%,0%,0%);stroke-opacity:1;stroke-miterlimit:4;" d="M 289.413125 188.992522 L 290.208125 190.062165 L 293.056875 190.062165 L 294.845625 192.201451 L 293.42125 195.711217 L 299.45 198.920145 L 306.87 201.026004 L 312.89875 201.026004 L 317.171875 203.867243 L 315.01875 205.672266 L 320.71625 207.076172 L 329.925 210.251674 L 332.078125 207.410435 L 332.409375 204.234933 L 327.440625 203.53298 L 318.59625 200.357478 L 316.47625 197.850502 L 321.77625 196.078906 L 329.229375 199.956362 L 332.078125 196.446596 L 332.078125 193.605357 L 330.289375 193.237667 L 332.409375 191.131808 L 335.258125 191.466071 L 342.678125 197.516239 L 345.89125 190.062165 L 347.646875 183.677734 L 348.01125 178.32952 L 349.766875 171.610826 L 355.43125 170.574609 L 359.34 167.733371 L 362.155625 166.663728 L 362.52 162.418583 L 372.424375 152.85865 L 376.333125 150.719364 L 377.7575 145.036886 L 382.85875 142.63019 L 382.494375 142.229074 L 383.554375 139.52154 L 379.645625 139.922656 L 374.64375 138.284766 L 372.689375 134.006194 L 368.41625 131.833482 L 370.900625 126.852958 L 369.8075 124.17885 L 364.64 123.276339 L 362.486875 122.574386 L 356.425 125.983873 L 347.514375 125.047935 L 345.328125 123.042355 L 343.705 123.710882 L 342.943125 125.248493 L 341.4525 125.248493 L 341.4525 119.933705 L 336.119375 122.206696 L 333.336875 125.248493 L 333.336875 126.986663 L 330.819375 127.254074 L 328.566875 131.800056 L 329.560625 133.571652 L 325.519375 137.88365 L 324.7575 140.658036 L 323.001875 144.201228 L 320.98125 151.48817 L 319.225625 153.794587 L 316.94 154.028571 C 316.708125 155.532757 316.41 156.836384 316.07875 157.972879 C 315.780625 159.109375 315.383125 160.045312 314.985625 160.847545 C 314.588125 161.649777 314.190625 162.251451 313.76 162.786272 C 313.329375 163.287667 312.931875 163.688783 312.50125 163.989621 C 311.673125 164.591295 310.845 164.825279 310.281875 164.892132 C 309.71875 164.992411 309.354375 164.858705 309.354375 164.858705 L 305.81 167.399107 L 305.578125 169.672098 L 299.748125 173.482701 L 296.73375 173.482701 L 295.21 176.758482 L 292.195625 182.07327 L 290.936875 182.307254 Z M 289.413125 188.992522 " transform="matrix(0.117925,0,0,0.116861,0,0)"/>
<path style="fill-rule:evenodd;fill:rgb(43.921569%,70.588235%,0%);fill-opacity:0.25098;stroke-width:2;stroke-linecap:butt;stroke-linejoin:miter;stroke:rgb(0%,0%,0%);stroke-opacity:1;stroke-miterlimit:4;" d="M 343.936875 67.220368 C 333.03875 69.359654 336.053125 77.950223 336.053125 77.950223 L 334.09875 83.097879 C 326.94375 90.050558 319.9875 83.799833 319.9875 83.799833 L 317.171875 86.306808 L 313.76 87.042187 L 310.546875 85.070033 L 309.45375 83.666127 L 303.0275 83.666127 L 302.16625 85.437723 L 299.814375 85.070033 L 289.280625 81.693973 L 287.160625 83.465569 L 282.49 82.930748 L 280.9 84.902902 L 277.488125 84.200949 L 273.54625 82.395926 L 270.730625 84.535212 L 266.25875 84.200949 L 259.468125 79.521261 L 255.725 79.186998 L 254.7975 77.214844 L 252.6775 77.549107 L 251.518125 83.064453 L 254.06875 92.156417 L 254.565625 112.613337 L 253.041875 115.655134 L 250.789375 118.396094 L 246.814375 118.396094 L 247.04625 123.410045 L 249.82875 125.148214 L 252.08125 123.410045 L 254.59875 126.151004 L 253.836875 127.9226 L 252.180625 127.9226 L 254.565625 141.593973 L 256.58625 142.697042 L 267.881875 142.697042 L 270.63125 140.925446 L 287.3925 141.426842 L 291.201875 146.173382 L 292.4275 149.983984 L 297.92625 149.983984 L 299.946875 152.223549 L 308.956875 149.716574 L 313.23 150.217969 L 314.455625 148.981194 L 315.979375 150.217969 L 318.496875 149.215179 L 318.265 145.204018 L 317.503125 138.451897 L 320.749375 138.953292 L 328.699375 132.000614 L 328.566875 131.800056 L 330.819375 127.254074 L 333.336875 126.986663 L 333.336875 125.248493 L 336.119375 122.206696 L 341.4525 119.933705 L 341.4525 125.248493 L 342.943125 125.248493 L 343.705 123.710882 L 345.328125 123.042355 L 344.665625 122.407254 L 352.681875 116.156529 L 354.470625 116.156529 L 355.895 112.9476 L 360.73125 112.045089 L 363.215625 108.100781 L 359.80375 104.357031 L 358.4125 101.850056 L 360.896875 93.994866 L 365.534375 96.501842 L 366.263125 99.175949 L 371.430625 99.911328 L 373.219375 96.7024 L 375.339375 85.237165 L 372.855 84.902902 L 364.275625 88.278962 L 358.9425 83.799833 L 356.060625 85.972545 L 347.15 77.549107 L 346.984375 73.471094 L 348.574375 71.298382 Z M 343.936875 67.220368 " transform="matrix(0.117925,0,0,0.116861,0,0)"/>
<path style="fill-rule:evenodd;fill:rgb(100%,66.27451%,49.803922%);fill-opacity:0.278431;stroke-width:2;stroke-linecap:butt;stroke-linejoin:miter;stroke:rgb(0%,0%,0%);stroke-opacity:1;stroke-miterlimit:4;" d="M 151.1825 427.890569 L 152.7725 427.021484 L 154.29625 416.893304 L 157.840625 410.341741 L 159.59625 401.784598 L 164.664375 386.876451 L 167.94375 383.099275 L 170.958125 377.517076 L 173.740625 380.324888 L 175.264375 380.324888 L 171.455 373.7399 L 176.523125 370.430692 L 180.79625 368.425112 L 183.57875 366.152121 L 185.3675 362.374944 L 187.885 359.333147 L 189.640625 355.823382 L 193.185 353.516964 L 196.96125 350.241183 L 199.246875 347.466797 L 199.246875 343.689621 L 201.2675 340.915234 L 201.2675 338.876228 L 199.511875 339.645033 L 193.45 338.374833 L 191.164375 334.831641 L 190.6675 332.55865 L 194.476875 333.327455 L 196.2325 333.327455 L 197.22625 329.784263 L 200.505625 327.778683 L 199.246875 326.508482 L 198.485 324.235491 L 200.505625 322.96529 L 206.5675 315.410937 L 212.1325 311.867746 L 211.635625 309.327344 L 214.153125 308.057143 L 215.411875 306.051562 L 213.65625 304.547377 L 217.4325 301.23817 L 219.983125 302.006975 L 224.488125 300.736775 L 226.541875 297.227009 L 225.515 294.954018 L 222.2025 294.686607 L 221.47375 290.64202 L 226.541875 285.594643 L 226.77375 279.77846 L 230.815 274.764509 L 238.16875 271.722712 L 243.435625 264.903739 L 245.45625 263.633538 L 249.000625 250.496987 L 252.776875 250.496987 L 253.27375 248.223996 L 254.7975 241.672433 L 256.32125 239.366016 L 256.85125 238.363225 L 255.824375 232.814453 L 251.02125 229.772656 L 239.394375 225.494085 L 237.37375 225.99548 L 235.12125 228.268471 L 230.815 228.268471 L 229.059375 229.772656 L 221.970625 229.538672 L 219.453125 226.262891 L 219.718125 221.716908 L 212.629375 217.404911 L 207.0975 217.404911 L 205.57375 215.666741 L 205.30875 219.677902 L 200.770625 219.443917 L 200.240625 215.666741 L 195.9675 214.363114 L 193.185 216.168136 L 192.688125 218.173717 L 187.123125 218.173717 L 182.353125 214.864509 L 175.794375 214.864509 L 171.985 210.084542 L 165.16125 209.750279 C 158.834375 210.519085 159.59625 226.496875 159.59625 226.496875 L 157.840625 229.037277 L 161.616875 233.315848 L 162.37875 235.85625 C 166.651875 247.7226 161.385 251.499777 161.385 251.499777 L 161.385 255.811775 L 158.105625 259.354967 C 152.805625 269.449721 160.623125 269.449721 160.623125 269.449721 L 161.616875 274.998493 L 158.6025 278.04029 L 154.56125 278.04029 L 150.486875 282.820257 L 150.255 285.828627 L 148.0025 286.864844 C 144.955 309.093359 135.08375 303.544587 135.08375 303.544587 L 133.858125 302.541797 L 133.03 302.441518 L 131.804375 309.093359 L 129.32 310.597545 L 125.01375 315.410937 L 123.986875 313.371931 L 118.686875 312.870536 L 118.421875 312.703404 L 118.421875 329.516853 L 117.19625 331.054464 L 117.428125 334.831641 L 107.59 352.5476 L 107.59 360.335938 L 105.80125 361.372154 L 105.0725 363.611719 L 102.521875 364.647935 L 99.5075 367.154911 L 100.50125 374.74269 L 97.98375 376.514286 L 97.98375 377.015681 L 94.67125 380.826283 L 94.439375 390.653627 L 91.656875 392.425223 C 91.656875 392.425223 91.458125 395.366741 91.391875 395.734431 C 91.325625 396.2024 91.16 396.436384 91.0275 396.870926 L 96.46 399.745592 L 100.76625 399.745592 L 102.786875 401.784598 L 106.828125 403.021373 L 111.63125 405.32779 L 114.14875 404.826395 L 114.41375 403.522768 L 118.686875 403.288783 L 123.986875 401.015792 L 128.028125 401.015792 L 133.593125 399.010212 L 136.8725 396.703795 L 139.92 399.511607 L 144.955 398.508817 L 147.7375 403.288783 L 144.425 410.107757 L 148.234375 413.617522 L 149.493125 418.430915 L 147.2075 425.985268 L 151.281875 427.522879 Z M 151.1825 427.890569 " transform="matrix(0.117925,0,0,0.116861,0,0)"/>
<path style="fill:none;stroke-width:1;stroke-linecap:butt;stroke-linejoin:miter;stroke:rgb(0%,0%,0%);stroke-opacity:1;stroke-miterlimit:4;" d="M 172.945625 249.226786 L 165.4925 252.435714 L 165.128125 254.575 L 159.761875 257.549944 L 158.105625 259.354967 C 152.805625 269.449721 160.623125 269.449721 160.623125 269.449721 L 161.616875 274.998493 L 158.6025 278.04029 L 154.56125 278.04029 L 150.486875 282.820257 L 150.255 285.828627 L 148.896875 286.463728 L 151.679375 290.00692 L 161.948125 292.112779 L 171.885625 291.076562 L 181.425625 287.867634 L 187.454375 285.728348 L 191.7275 289.63923 L 194.57625 288.235324 L 194.17875 285.360658 L 203.05625 283.956752 L 203.420625 281.850893 L 207.660625 282.51942 L 209.085 285.360658 L 221.54 291.076562 L 221.47375 290.64202 L 226.541875 285.594643 L 226.77375 279.77846 L 230.815 274.764509 L 238.16875 271.722712 L 243.435625 264.903739 L 244.098125 264.502623 L 238.135625 255.243527 L 236.71125 259.154408 L 234.9225 259.154408 L 229.986875 263.399554 L 227.5025 264.469196 L 224.686875 258.084766 L 220.41375 258.084766 L 216.140625 257.382812 L 213.689375 261.293694 L 211.900625 259.488672 L 209.449375 259.488672 L 203.420625 260.926004 L 198.451875 261.293694 L 198.81625 258.820145 L 196.29875 256.31317 L 199.511875 252.435714 L 200.2075 249.928739 L 195.23875 249.928739 L 193.11875 251.332645 L 183.91 251.733761 L 177.185625 249.226786 Z M 172.945625 249.226786 " transform="matrix(0.117925,0,0,0.116861,0,0)"/>
<path style="fill:none;stroke-width:1;stroke-linecap:butt;stroke-linejoin:miter;stroke:rgb(0%,0%,0%);stroke-opacity:1;stroke-miterlimit:4;" d="M 203.05625 309.828739 L 195.9675 310.530692 L 189.243125 313.371931 L 182.85 310.530692 L 175.794375 310.196429 L 168.308125 310.530692 L 163.3725 312.302288 L 157.675 314.10731 L 154.16375 315.511217 L 152.04375 319.422098 L 149.890625 321.527958 L 146.34625 322.931864 L 138.230625 320.458315 L 136.441875 315.84548 L 131.473125 314.441574 L 131.473125 311.600335 L 130.346875 309.962444 L 129.32 310.597545 L 125.01375 315.410937 L 123.986875 313.371931 L 118.686875 312.870536 L 118.421875 312.703404 L 118.421875 325.605971 L 123.324375 326.508482 L 125.08 324.369196 L 129.353125 327.177009 L 127.92875 329.683984 L 132.864375 335.333036 L 135.0175 330.018248 L 140.681875 328.614342 L 141.741875 325.773103 L 145.650625 326.508482 L 154.495 331.422154 L 160.52375 332.491797 L 162.64375 330.753627 L 166.188125 333.56144 L 172.216875 334.296819 L 176.125625 333.227176 L 179.67 336.736942 L 183.214375 337.138058 L 188.87875 333.227176 L 190.766875 333.126897 L 190.6675 332.55865 L 192.820625 332.993192 L 196.365 332.82606 L 197.22625 329.784263 L 200.505625 327.778683 L 199.246875 326.508482 L 198.485 324.235491 L 200.505625 322.96529 L 206.5675 315.410937 L 210.575625 312.837109 Z M 203.05625 309.828739 " transform="matrix(0.117925,0,0,0.116861,0,0)"/>
<path style="fill:none;stroke-width:1;stroke-linecap:butt;stroke-linejoin:miter;stroke:rgb(0%,0%,0%);stroke-opacity:1;stroke-miterlimit:4;" d="M 190.766875 333.126897 L 188.87875 333.227176 L 183.214375 337.138058 L 179.67 336.736942 L 176.125625 333.227176 L 172.216875 334.296819 L 166.188125 333.56144 L 162.64375 330.753627 L 160.52375 332.491797 L 154.495 331.422154 L 145.650625 326.508482 L 141.741875 325.773103 L 140.681875 328.614342 L 135.0175 330.018248 L 132.864375 335.333036 L 127.92875 329.683984 L 129.353125 327.177009 L 125.08 324.369196 L 123.324375 326.508482 L 118.421875 325.605971 L 118.421875 329.516853 L 117.19625 331.054464 L 117.428125 334.831641 L 111.796875 344.993248 L 114.48 348.101897 L 119.78 350.943136 L 114.81125 351.2774 L 112.36 354.118638 L 116.235625 355.188281 L 113.42 357.66183 L 117.32875 359.433426 L 120.50875 364.046261 L 131.10875 361.572712 L 138.561875 356.592187 L 146.710625 358.363783 L 148.135 355.188281 L 152.375 354.452902 L 157.0125 350.943136 L 161.58375 354.452902 L 166.5525 354.854018 L 169.036875 352.714732 L 171.885625 349.53923 L 174.336875 349.53923 L 178.245625 352.347042 L 190.170625 355.489118 L 193.185 353.516964 L 196.96125 350.241183 L 199.246875 347.466797 L 199.246875 343.689621 L 201.2675 340.915234 L 201.2675 338.876228 L 199.511875 339.645033 L 193.45 338.374833 L 191.164375 334.831641 Z M 190.766875 333.126897 " transform="matrix(0.117925,0,0,0.116861,0,0)"/>
<path style="fill:none;stroke-width:1;stroke-linecap:butt;stroke-linejoin:miter;stroke:rgb(0%,0%,0%);stroke-opacity:1;stroke-miterlimit:4;" d="M 221.54 291.076562 L 209.085 285.360658 L 207.660625 282.51942 L 203.420625 281.850893 L 203.05625 283.956752 L 194.17875 285.360658 L 194.57625 288.235324 L 191.7275 289.63923 L 187.454375 285.728348 L 181.425625 287.867634 L 171.885625 291.076562 L 161.948125 292.112779 L 151.679375 290.00692 L 148.896875 286.463728 L 148.0025 286.864844 C 144.955 309.093359 135.08375 303.544587 135.08375 303.544587 L 133.858125 302.541797 L 133.03 302.441518 L 131.804375 309.093359 L 130.346875 309.962444 L 131.473125 311.600335 L 131.473125 314.441574 L 136.441875 315.84548 L 138.230625 320.458315 L 146.34625 322.931864 L 149.890625 321.527958 L 152.04375 319.422098 L 154.16375 315.511217 L 157.675 314.10731 L 163.3725 312.302288 L 168.308125 310.530692 L 175.794375 310.196429 L 182.85 310.530692 L 189.243125 313.371931 L 195.9675 310.530692 L 203.05625 309.828739 L 210.575625 312.837109 L 212.1325 311.867746 L 211.635625 309.327344 L 214.153125 308.057143 L 215.411875 306.051562 L 213.65625 304.547377 L 217.4325 301.23817 L 219.983125 302.006975 L 224.488125 300.736775 L 226.541875 297.227009 L 225.515 294.954018 L 222.2025 294.686607 Z M 221.54 291.076562 " transform="matrix(0.117925,0,0,0.116861,0,0)"/>
<path style="fill:none;stroke-width:1;stroke-linecap:butt;stroke-linejoin:miter;stroke:rgb(0%,0%,0%);stroke-opacity:1;stroke-miterlimit:4;" d="M 190.170625 355.489118 L 178.245625 352.347042 L 174.336875 349.53923 L 171.885625 349.53923 L 169.036875 352.714732 L 166.5525 354.854018 L 161.58375 354.452902 L 157.0125 350.943136 L 152.375 354.452902 L 148.135 355.188281 L 146.710625 358.363783 L 138.561875 356.592187 L 131.10875 361.572712 L 120.50875 364.046261 L 117.32875 359.433426 L 113.42 357.66183 L 116.235625 355.188281 L 112.36 354.118638 L 114.81125 351.2774 L 119.78 350.943136 L 114.48 348.101897 L 111.796875 344.993248 L 107.59 352.5476 L 107.59 360.335938 L 105.80125 361.372154 L 105.0725 363.611719 L 102.521875 364.647935 L 99.5075 367.154911 L 100.50125 374.74269 L 97.98375 376.514286 L 97.98375 377.015681 L 94.67125 380.826283 L 94.439375 390.653627 L 91.656875 392.425223 C 91.656875 392.425223 91.458125 395.366741 91.391875 395.734431 C 91.325625 396.2024 91.16 396.436384 91.0275 396.870926 L 96.46 399.745592 L 100.76625 399.745592 L 102.786875 401.784598 L 106.828125 403.021373 L 111.63125 405.32779 L 114.14875 404.826395 L 114.41375 403.522768 L 118.686875 403.288783 L 123.986875 401.015792 L 128.028125 401.015792 L 133.593125 399.010212 L 136.8725 396.703795 L 139.92 399.511607 L 144.955 398.508817 L 147.7375 403.288783 L 144.425 410.107757 L 148.234375 413.617522 L 149.493125 418.430915 L 147.2075 425.985268 L 151.281875 427.522879 L 151.1825 427.890569 L 152.7725 427.021484 L 154.29625 416.893304 L 157.840625 410.341741 L 159.59625 401.784598 L 164.664375 386.876451 L 167.94375 383.099275 L 170.958125 377.517076 L 173.740625 380.324888 L 175.264375 380.324888 L 171.455 373.7399 L 176.523125 370.430692 L 180.79625 368.425112 L 183.57875 366.152121 L 185.3675 362.374944 L 187.885 359.333147 L 189.640625 355.823382 Z M 190.170625 355.489118 " transform="matrix(0.117925,0,0,0.116861,0,0)"/>
<path style="fill:none;stroke-width:1;stroke-linecap:butt;stroke-linejoin:miter;stroke:rgb(0%,0%,0%);stroke-opacity:1;stroke-miterlimit:4;" d="M 266.9875 335.366462 L 275.335 319.756362 L 273.94375 318.686719 L 271.42625 319.422098 L 270.035 316.547433 L 268.24625 316.547433 L 264.370625 317.984766 L 259.76625 315.84548 L 260.461875 313.371931 L 256.221875 314.10731 L 254.433125 317.617076 L 250.193125 319.756362 L 245.953125 313.371931 L 246.64875 309.461049 L 245.224375 309.126786 L 243.104375 305.550167 L 239.195625 302.374665 L 236.015625 303.444308 L 231.046875 302.040402 L 229.29125 297.427567 L 226.1775 296.39135 L 226.541875 297.227009 L 224.488125 300.736775 L 219.983125 302.006975 L 217.4325 301.23817 L 213.65625 304.547377 L 215.411875 306.051562 L 214.153125 308.057143 L 211.635625 309.327344 L 212.1325 311.867746 L 206.5675 315.410937 L 200.505625 322.96529 L 198.485 324.235491 L 199.246875 326.508482 L 200.505625 327.778683 L 197.22625 329.784263 L 196.2325 333.327455 L 194.476875 333.327455 L 190.6675 332.55865 L 191.164375 334.831641 L 193.45 338.374833 L 199.511875 339.645033 L 201.2675 338.876228 L 201.2675 340.915234 L 199.246875 343.689621 L 199.246875 347.466797 L 196.96125 350.241183 L 195.76875 351.2774 L 199.511875 352.347042 L 201.631875 350.943136 L 201.99625 356.257924 L 204.480625 365.817857 L 207.660625 355.890234 L 213.358125 351.645089 L 213.689375 348.101897 L 221.109375 344.558705 L 223.626875 345.628348 L 222.898125 348.469587 L 224.3225 351.645089 L 225.018125 355.522545 L 222.566875 357.327567 L 219.718125 358.363783 L 216.538125 363.678571 L 221.109375 368.659096 L 225.746875 366.8875 L 229.29125 367.25519 L 235.65125 373.639621 L 240.355 371.834598 L 242.67375 370.430692 L 236.04875 362.040681 L 241.249375 358.464063 L 248.205625 355.957087 L 254.101875 349.17154 L 258.57375 349.17154 L 264.53625 340.614397 L 264.370625 340.31356 L 266.026875 337.204911 L 266.78875 335.433315 Z M 266.9875 335.366462 " transform="matrix(0.117925,0,0,0.116861,0,0)"/>
<path style="fill:none;stroke-width:1;stroke-linecap:butt;stroke-linejoin:miter;stroke:rgb(0%,0%,0%);stroke-opacity:1;stroke-miterlimit:4;" d="M 233.763125 371.734319 L 228.5625 375.043527 L 228.5625 380.726004 L 224.686875 383.901507 L 216.538125 387.110435 L 214.020625 384.97115 L 210.509375 387.444699 L 209.085 392.024107 L 203.05625 395.934989 L 203.751875 397.706585 L 200.571875 397.706585 L 199.511875 394.531083 L 194.9075 395.266462 L 193.51625 398.074275 L 190.6675 399.511607 L 192.05875 401.617467 L 189.243125 406.230301 L 188.5475 409.740067 L 185.69875 409.740067 L 182.485625 411.1774 L 175.396875 414.386328 L 169.036875 414.720592 L 167.6125 418.631473 L 172.58125 418.29721 L 172.945625 421.472712 L 172.58125 427.121763 L 171.52125 429.261049 L 173.64125 430.698382 L 175.794375 428.191406 L 181.425625 433.506194 L 181.19375 434.64269 L 181.32625 434.609263 L 185.135625 438.38644 L 185.6325 440.659431 L 183.346875 444.704018 L 188.911875 453.027176 L 196.96125 453.528571 L 197.988125 449.985379 L 200.00875 446.208203 L 203.023125 446.977009 L 211.768125 454.698493 L 221.970625 449.016016 L 221.970625 446.676172 L 225.9125 444.536886 L 228.396875 443.099554 L 231.61 442.76529 L 233.564375 436.314007 L 234.98875 434.542411 L 231.245625 431.500614 L 230.914375 429.194196 C 229.82125 423.845982 238.56625 420.603627 238.56625 420.603627 L 238.56625 420.770759 L 241.249375 417.227567 L 245.92 416.325056 L 247.51 419.333426 L 251.981875 417.92952 L 254.46625 417.92952 L 262.846875 408.670424 C 267.31875 401.884877 256.785 397.038058 256.785 397.038058 L 251.451875 391.155022 L 248.04 390.954464 L 243.038125 386.508761 L 239.659375 386.843025 L 234.293125 386.141071 L 234.6575 383.466964 L 236.7775 379.522656 L 237.8375 376.848549 L 239.990625 375.778906 L 240.355 371.834598 L 235.65125 373.639621 Z M 233.763125 371.734319 " transform="matrix(0.117925,0,0,0.116861,0,0)"/>
<path style="fill:none;stroke-width:1;stroke-linecap:butt;stroke-linejoin:miter;stroke:rgb(0%,0%,0%);stroke-opacity:1;stroke-miterlimit:4;" d="M 221.109375 344.558705 L 213.689375 348.101897 L 213.358125 351.645089 L 207.660625 355.890234 L 204.480625 365.817857 L 201.99625 356.257924 L 201.631875 350.943136 L 199.511875 352.347042 L 195.76875 351.2774 L 193.185 353.516964 L 189.640625 355.823382 L 187.885 359.333147 L 185.3675 362.374944 L 183.57875 366.152121 L 180.79625 368.425112 L 176.523125 370.430692 L 171.455 373.7399 L 175.264375 380.324888 L 173.740625 380.324888 L 170.958125 377.517076 L 167.94375 383.099275 L 164.664375 386.876451 L 159.59625 401.784598 L 157.840625 410.341741 L 154.29625 416.893304 L 152.7725 427.021484 L 151.1825 427.890569 L 149.99 433.105078 L 148.0025 439.422656 L 148.764375 441.896205 L 146.47875 446.977009 L 147.7375 448.24721 L 151.016875 442.431027 L 153.76625 443.199833 L 152.275625 446.709598 L 152.11 449.751395 L 156.051875 447.210993 L 159.099375 450.98817 L 162.37875 447.979799 L 162.37875 446.208203 L 165.658125 442.431027 L 165.89 438.119029 L 167.446875 437.38365 L 168.9375 439.890625 L 181.19375 434.64269 L 181.425625 433.506194 L 175.794375 428.191406 L 173.64125 430.698382 L 171.52125 429.261049 L 172.58125 427.121763 L 172.945625 421.472712 L 172.58125 418.29721 L 167.6125 418.631473 L 169.036875 414.720592 L 175.396875 414.386328 L 182.485625 411.1774 L 185.69875 409.740067 L 188.5475 409.740067 L 189.243125 406.230301 L 192.05875 401.617467 L 190.6675 399.511607 L 193.51625 398.074275 L 194.9075 395.266462 L 199.511875 394.531083 L 200.571875 397.706585 L 203.751875 397.706585 L 203.05625 395.934989 L 209.085 392.024107 L 210.509375 387.444699 L 214.020625 384.97115 L 216.538125 387.110435 L 224.686875 383.901507 L 228.5625 380.726004 L 228.5625 375.043527 L 233.763125 371.734319 L 229.29125 367.25519 L 225.746875 366.8875 L 221.109375 368.659096 L 216.538125 363.678571 L 219.718125 358.363783 L 222.566875 357.327567 L 225.018125 355.522545 L 224.3225 351.645089 L 222.898125 348.469587 L 223.626875 345.628348 Z M 221.109375 344.558705 " transform="matrix(0.117925,0,0,0.116861,0,0)"/>
<path style="fill:none;stroke-width:1;stroke-linecap:butt;stroke-linejoin:miter;stroke:rgb(0%,0%,0%);stroke-opacity:1;stroke-miterlimit:4;" d="M 126.769375 422.475502 L 124.74875 423.745703 L 123.49 426.520089 L 120.9725 426.520089 L 119.44875 427.79029 L 115.6725 430.063281 L 114.645625 431.300056 L 112.89 432.570257 L 110.339375 427.522879 L 108.086875 427.522879 L 108.58375 430.564676 L 107.59 432.570257 L 102.786875 428.79308 L 101.29625 428.79308 L 99.5075 431.567467 L 96.228125 431.066071 L 94.439375 432.570257 L 97.98375 434.107868 L 100.004375 436.614844 L 97.71875 439.422656 L 92.451875 437.617634 L 91.391875 440.158036 L 89.90125 446.208203 L 90.16625 449.016016 L 93.6775 452.525781 L 94.439375 454.029967 L 91.391875 454.798772 L 91.16 455.066183 L 86.125 456.302958 L 84.833125 459.578739 L 86.125 461.885156 L 83.6075 462.620536 L 79.03625 458.10798 L 78.274375 453.294587 L 76.51875 454.564788 L 74.498125 454.564788 L 72.709375 456.570368 L 68.17125 460.080134 L 71.715625 459.077344 L 71.715625 462.887946 L 65.65375 463.890737 C 65.65375 463.890737 68.96625 464.659542 70.225 464.893527 C 71.48375 465.160937 72.4775 465.394922 73.504375 465.394922 C 74.498125 465.394922 75.98875 465.662333 75.98875 465.662333 L 77.7775 468.202734 C 77.7775 468.202734 78.804375 468.202734 80.328125 468.202734 C 81.056875 468.202734 81.7525 468.503571 82.249375 468.804408 C 82.74625 469.138672 83.0775 469.439509 83.0775 469.439509 L 82.050625 472.982701 L 80.56 474.988281 L 78.0425 477.027288 L 77.545625 479.300279 C 77.545625 479.300279 79.30125 480.804464 80.328125 481.305859 C 81.321875 481.807254 81.81875 481.807254 83.0775 482.074665 C 83.74 482.174944 84.104375 482.542634 84.303125 482.810045 C 84.535 483.110882 84.60125 483.344866 84.60125 483.344866 L 87.11875 483.57885 L 88.9075 481.57327 L 90.663125 483.344866 L 92.68375 485.083036 L 94.67125 484.080246 L 96.46 482.609487 L 97.45375 481.305859 L 100.004375 482.30865 L 101.29625 483.812835 L 102.786875 483.077455 L 112.89 483.344866 L 114.14875 485.617857 L 119.44875 485.617857 L 123.258125 487.122042 L 125.510625 488.124833 L 128.028125 477.027288 L 129.021875 470.876842 L 127.79625 471.211105 L 127.53125 466.397712 L 124.251875 465.896317 L 124.48375 459.578739 L 129.055 451.790402 L 128.79 449.751395 L 126.2725 449.25 L 125.245625 447.210993 L 128.525 441.662221 L 124.74875 437.885045 L 126.040625 435.077232 L 130.810625 430.798661 L 129.32 429.294475 L 132.599375 424.514509 Z M 126.769375 422.475502 " transform="matrix(0.117925,0,0,0.116861,0,0)"/>
<path style="fill:none;stroke-width:1;stroke-linecap:butt;stroke-linejoin:miter;stroke:rgb(0%,0%,0%);stroke-opacity:1;stroke-miterlimit:4;" d="M 145.253125 456.536942 L 148.764375 458.609375 L 151.546875 462.620536 L 152.7725 465.896317 L 153.76625 469.439509 L 152.04375 472.213895 L 150.486875 476.525893 L 151.77875 478.030078 L 151.77875 482.609487 L 153.269375 483.846261 L 152.7725 486.119252 L 148.0025 492.670815 L 149.12875 505.172266 L 149.294375 505.071987 L 148.93 497.016239 L 154.29625 494.342132 L 157.145 496.514844 L 166.983125 489.729297 L 170.72625 488.993917 L 173.045 481.673549 L 175.330625 480.069085 C 175.330625 480.069085 177.119375 480.069085 177.318125 480.771038 C 177.48375 481.506417 180.00125 482.041239 180.00125 482.041239 L 189.80625 478.297489 L 196.795625 473.283538 L 199.28 472.213895 L 199.644375 466.163728 L 202.161875 460.046708 L 211.768125 454.698493 L 203.023125 446.977009 L 200.00875 446.208203 L 197.988125 449.985379 L 196.96125 453.528571 L 188.911875 453.027176 L 183.346875 444.704018 L 185.6325 440.659431 L 185.135625 438.38644 L 181.32625 434.609263 L 168.9375 439.890625 L 167.446875 437.38365 L 165.89 438.119029 L 165.658125 442.431027 L 162.37875 446.208203 L 162.37875 447.979799 L 159.099375 450.98817 L 156.051875 447.210993 L 149.26125 451.522991 L 146.47875 452.525781 L 146.47875 456.068973 Z M 145.253125 456.536942 " transform="matrix(0.117925,0,0,0.116861,0,0)"/>
<path style="fill:none;stroke-width:1;stroke-linecap:butt;stroke-linejoin:miter;stroke:rgb(0%,0%,0%);stroke-opacity:1;stroke-miterlimit:4;" d="M 77.876875 477.762667 L 66.05125 477.929799 L 59.29375 477.227846 L 55.71625 475.422824 L 53.231875 472.213895 L 52.039375 472.314174 C 52.039375 472.314174 51.973125 472.548158 51.973125 472.548158 L 44.98375 484.180525 L 44.288125 488.993917 L 41.439375 491.500893 L 39.81625 491.835156 L 38.5575 490.598382 L 36.9675 492.202846 L 37.16625 494.007868 L 40.180625 493.80731 L 42.300625 497.216797 L 42.168125 507.044141 L 35.013125 523.289342 L 33.953125 524.191853 L 30.3425 524.893806 L 27.49375 528.670982 L 25.90375 533.818638 L 24.479375 535.590234 L 15.336875 540.604185 L 13.548125 543.077734 L 12.8525 545.58471 L 28.55375 548.659933 L 32.296875 546.687779 L 36.073125 549.32846 L 40.545 548.459375 L 40.909375 544.515067 L 43.758125 545.9524 L 47.17 548.091685 L 59.29375 546.320089 L 63.036875 543.47885 L 63.765625 544.715625 L 64.395 541.406417 L 63.898125 532.347879 L 66.945625 529.573493 L 66.415625 527.033092 L 68.933125 527.033092 L 69.695 525.49548 L 67.939375 522.453683 L 72.4775 523.991295 L 77.280625 519.679297 L 75.98875 516.169531 L 79.56625 517.439732 L 82.050625 513.89654 L 84.33625 514.89933 L 85.098125 513.127734 L 79.56625 510.88817 L 80.328125 508.849163 L 84.104375 507.846373 L 86.621875 507.846373 L 87.11875 505.071987 L 88.6425 501.528795 L 90.398125 502.531585 L 92.68375 505.071987 L 94.67125 503.534375 L 94.67125 497.216797 L 96.46 495.980022 L 97.71875 493.941016 L 98.745625 490.397824 L 100.50125 488.659654 L 102.29 486.888058 L 101.793125 484.347656 L 100.004375 482.30865 L 97.45375 481.305859 L 96.46 482.609487 L 94.67125 484.080246 L 92.68375 485.083036 L 90.663125 483.344866 L 88.9075 481.57327 L 87.11875 483.57885 L 84.60125 483.344866 C 84.60125 483.344866 84.535 483.110882 84.303125 482.810045 C 84.104375 482.542634 83.74 482.174944 83.0775 482.074665 C 81.81875 481.807254 81.321875 481.807254 80.328125 481.305859 C 79.30125 480.804464 77.545625 479.300279 77.545625 479.300279 Z M 77.876875 477.762667 " transform="matrix(0.117925,0,0,0.116861,0,0)"/>
<path style="fill:none;stroke-width:1;stroke-linecap:butt;stroke-linejoin:miter;stroke:rgb(0%,0%,0%);stroke-opacity:1;stroke-miterlimit:4;" d="M 119.515 427.723437 L 119.283125 422.943471 L 121.7675 421.171875 L 119.6475 420.068806 L 119.283125 417.56183 L 113.95 416.157924 L 113.22125 421.171875 L 106.795 420.068806 L 105.00625 422.943471 L 99.64 417.56183 L 102.853125 414.720592 L 99.64 412.213616 L 101.793125 409.004687 L 105.3375 407.233092 L 102.786875 401.784598 L 100.76625 399.745592 L 96.46 399.745592 L 91.0275 396.870926 C 89.305 403.489342 85.33 403.790179 85.33 403.790179 L 83.40875 418.464342 L 69.8275 432.937946 C 69.8275 432.937946 68.734375 433.840458 68.03875 434.174721 C 67.31 434.542411 64.46125 434.542411 64.46125 434.542411 L 63.765625 437.216518 C 56.146875 449.082868 52.105625 471.879632 52.039375 472.314174 L 53.231875 472.213895 L 55.71625 475.422824 L 59.29375 477.227846 L 66.05125 477.929799 L 77.876875 477.762667 L 78.0425 477.027288 L 80.56 474.988281 L 82.050625 472.982701 L 83.0775 469.439509 C 83.0775 469.439509 82.74625 469.138672 82.249375 468.804408 C 81.7525 468.503571 81.056875 468.202734 80.328125 468.202734 C 78.804375 468.202734 77.7775 468.202734 77.7775 468.202734 L 75.98875 465.662333 C 75.98875 465.662333 74.498125 465.394922 73.504375 465.394922 C 72.4775 465.394922 71.48375 465.160937 70.225 464.893527 C 68.96625 464.659542 65.65375 463.890737 65.65375 463.890737 L 71.715625 462.887946 L 71.715625 459.077344 L 68.17125 460.080134 L 72.709375 456.570368 L 74.498125 454.564788 L 76.51875 454.564788 L 78.274375 453.294587 L 79.03625 458.10798 L 83.6075 462.620536 L 86.125 461.885156 L 84.833125 459.578739 L 86.125 456.302958 L 91.16 455.066183 L 91.391875 454.798772 L 94.439375 454.029967 L 93.6775 452.525781 L 90.16625 449.016016 L 89.90125 446.208203 L 91.391875 440.158036 L 92.451875 437.617634 L 97.71875 439.422656 L 100.004375 436.614844 L 97.98375 434.107868 L 94.439375 432.570257 L 96.228125 431.066071 L 99.5075 431.567467 L 101.29625 428.79308 L 102.786875 428.79308 L 107.59 432.570257 L 108.58375 430.564676 L 108.086875 427.522879 L 110.339375 427.522879 L 112.89 432.570257 L 114.645625 431.300056 L 115.6725 430.063281 L 119.44875 427.79029 Z M 119.515 427.723437 " transform="matrix(0.117925,0,0,0.116861,0,0)"/>
<path style="fill-rule:evenodd;fill:rgb(100%,73.333333%,30.980392%);fill-opacity:0.341176;stroke-width:2;stroke-linecap:butt;stroke-linejoin:miter;stroke:rgb(0%,0%,0%);stroke-opacity:1;stroke-miterlimit:4;" d="M 341.4525 119.933705 L 336.119375 122.206696 L 333.336875 125.248493 L 333.336875 126.986663 L 330.819375 127.254074 L 328.566875 131.800056 L 329.560625 133.571652 L 325.519375 137.88365 L 324.7575 140.658036 L 323.001875 144.201228 L 320.98125 151.48817 L 319.225625 153.794587 L 316.94 154.028571 C 316.708125 155.532757 316.41 156.836384 316.07875 157.972879 C 315.780625 159.109375 315.383125 160.045312 314.985625 160.847545 C 314.588125 161.649777 314.190625 162.251451 313.76 162.786272 C 313.329375 163.287667 312.931875 163.688783 312.50125 163.989621 C 311.673125 164.591295 310.845 164.825279 310.281875 164.892132 C 309.71875 164.992411 309.354375 164.858705 309.354375 164.858705 L 305.81 167.399107 L 305.578125 169.672098 L 299.748125 173.482701 L 296.73375 173.482701 L 295.21 176.758482 L 292.195625 182.07327 L 290.936875 182.307254 L 289.148125 190.162444 L 284.61 194.441016 L 282.3575 194.942411 L 275.00375 204.268359 L 274.506875 205.805971 L 270.89625 209.984263 L 268.18 213.661161 L 264.966875 214.697377 L 256.354375 225.494085 L 262.88 226.63058 L 256.32125 239.366016 L 254.7975 241.672433 L 253.27375 248.223996 L 252.776875 250.496987 L 249.000625 250.496987 L 245.45625 263.633538 L 243.435625 264.903739 L 238.16875 271.722712 L 230.815 274.764509 L 226.77375 279.77846 L 226.541875 285.594643 L 221.47375 290.64202 L 222.2025 294.686607 L 225.515 294.954018 L 226.1775 296.39135 L 229.29125 297.427567 L 231.046875 302.040402 L 236.015625 303.444308 L 239.195625 302.374665 L 243.104375 305.550167 L 245.224375 309.126786 L 246.64875 309.461049 L 245.953125 313.371931 L 250.193125 319.756362 L 254.433125 317.617076 L 256.221875 314.10731 L 260.461875 313.371931 L 259.76625 315.84548 L 264.370625 317.984766 L 268.24625 316.547433 L 270.035 316.547433 L 271.42625 319.422098 L 273.94375 318.686719 L 275.335 319.756362 L 266.9875 335.366462 L 270.730625 334.19654 L 276.2625 333.995982 L 280.9 330.45279 L 280.9 328.07952 L 285.173125 329.717411 L 289.081875 325.605971 L 290.340625 322.029353 L 296.435625 328.480636 L 298.224375 327.745257 L 303.921875 331.154743 L 308.559375 328.280078 L 311.2425 326.508482 L 313.03125 324.536328 L 321.445 326.675614 L 332.50875 331.489007 L 345.725625 331.489007 L 349.27 333.093471 L 353.04625 328.647768 L 349.46875 324.536328 L 346.785625 316.84827 L 343.5725 311.834319 L 333.03875 311.700614 L 322.505 313.672768 L 320.18625 312.402567 L 326.579375 304.012556 L 327.506875 300.435937 L 334.993125 292.948438 L 336.583125 289.004129 L 341.9825 286.697712 L 350.52875 277.739453 L 351.953125 271.689286 L 357.319375 271.689286 L 355.530625 267.410714 L 359.108125 269.18231 L 362.85125 264.536049 L 368.94625 267.577846 L 375.9025 266.675335 L 380.175625 265.070871 L 384.813125 257.549944 L 382.32875 251.83404 L 392.498125 242.207254 L 396.605625 241.171038 L 400.34875 235.054018 L 399.454375 233.081864 L 402.833125 231.677958 L 403.760625 226.831138 L 408.7625 222.953683 L 412.836875 222.753125 L 411.578125 217.572042 L 412.67125 215.432757 L 410.518125 209.349163 L 405.715 198.986998 L 405.715 195.577511 L 407.7025 192.234877 L 400.713125 188.825391 L 396.77125 185.248772 L 398.394375 180.769643 L 393.9225 176.32394 L 390.179375 167.231975 L 397.5 160.580134 L 398.22875 154.195703 L 398.75875 151.321038 L 396.075625 151.48817 L 393.226875 149.917132 L 388.390625 148.479799 L 382.494375 142.229074 L 383.554375 139.52154 L 379.645625 139.922656 L 374.64375 138.284766 L 372.689375 134.006194 L 368.41625 131.833482 L 370.900625 126.852958 L 369.8075 124.17885 L 364.64 123.276339 L 362.486875 122.574386 L 356.425 125.983873 L 347.514375 125.047935 L 345.328125 123.042355 L 343.705 123.710882 L 342.943125 125.248493 L 341.4525 125.248493 Z M 341.4525 119.933705 " transform="matrix(0.117925,0,0,0.116861,0,0)"/>
<path style="fill:none;stroke-width:1;stroke-linecap:butt;stroke-linejoin:miter;stroke:rgb(0%,0%,0%);stroke-opacity:1;stroke-miterlimit:4;" d="M 240.520625 419.901674 Z M 240.520625 419.901674 " transform="matrix(0.117925,0,0,0.116861,0,0)"/>
<path style="fill-rule:evenodd;fill:rgb(0%,0%,0%);fill-opacity:0.643137;stroke-width:1;stroke-linecap:butt;stroke-linejoin:miter;stroke:rgb(0%,0%,0%);stroke-opacity:1;stroke-miterlimit:4;" d="M 118.421875 312.703404 L 118.686875 312.870536 L 123.986875 313.371931 L 125.01375 315.410937 L 129.32 310.597545 L 131.804375 309.093359 L 133.03 302.441518 L 129.816875 302.006975 L 128.028125 303.277176 L 126.2725 302.006975 L 125.245625 300.50279 L 123.258125 302.006975 L 116.40125 302.541797 L 115.4075 303.778571 L 115.6725 306.318973 L 118.421875 309.327344 Z M 118.421875 312.703404 " transform="matrix(0.117925,0,0,0.116861,0,0)"/>
<path style="fill:none;stroke-width:1;stroke-linecap:butt;stroke-linejoin:miter;stroke:rgb(0%,0%,0%);stroke-opacity:1;stroke-miterlimit:4;" d="M 119.515 427.723437 L 120.9725 426.520089 L 123.49 426.520089 L 124.74875 423.745703 L 126.769375 422.475502 L 132.599375 424.514509 L 129.32 429.294475 L 130.810625 430.798661 L 126.040625 435.077232 L 124.74875 437.885045 L 128.525 441.662221 L 125.245625 447.210993 L 126.2725 449.25 L 128.79 449.751395 L 129.055 451.790402 L 124.48375 459.578739 L 124.251875 465.896317 L 127.53125 466.397712 L 127.79625 471.211105 L 129.551875 470.70971 L 131.075625 464.893527 L 135.381875 461.885156 L 141.410625 462.620536 L 143.199375 457.305748 L 146.47875 456.068973 L 146.47875 452.525781 L 149.26125 451.522991 L 152.11 449.751395 L 152.275625 446.709598 L 153.76625 443.199833 L 151.016875 442.431027 L 147.7375 448.24721 L 146.47875 446.977009 L 148.764375 441.896205 L 148.0025 439.422656 L 149.99 433.105078 L 151.281875 427.522879 L 147.2075 425.985268 L 149.493125 418.430915 L 148.234375 413.617522 L 144.425 410.107757 L 147.7375 403.288783 L 144.955 398.508817 L 139.92 399.511607 L 136.8725 396.703795 L 133.593125 399.010212 L 128.028125 401.015792 L 123.986875 401.015792 L 118.686875 403.288783 L 114.41375 403.522768 L 114.14875 404.826395 L 111.63125 405.32779 L 106.828125 403.021373 L 102.786875 401.784598 L 105.3375 407.233092 L 101.793125 409.004687 L 99.64 412.213616 L 102.853125 414.720592 L 99.64 417.56183 L 105.00625 422.943471 L 106.795 420.068806 L 113.22125 421.171875 L 113.95 416.157924 L 119.283125 417.56183 L 119.6475 420.068806 L 121.7675 421.171875 L 119.283125 422.943471 Z M 119.515 427.723437 " transform="matrix(0.117925,0,0,0.116861,0,0)"/>
<path style="fill:none;stroke-width:1;stroke-linecap:butt;stroke-linejoin:miter;stroke:rgb(0%,0%,0%);stroke-opacity:1;stroke-miterlimit:4;" d="M 266.026875 337.204911 L 264.370625 340.31356 L 264.53625 340.614397 L 264.66875 340.447266 Z M 266.026875 337.204911 " transform="matrix(0.117925,0,0,0.116861,0,0)"/>
<path style="fill:none;stroke-width:1;stroke-linecap:butt;stroke-linejoin:miter;stroke:rgb(0%,0%,0%);stroke-opacity:1;stroke-miterlimit:4;" d="M 196.365 332.82606 L 192.820625 332.993192 L 194.476875 333.327455 L 196.2325 333.327455 Z M 196.365 332.82606 " transform="matrix(0.117925,0,0,0.116861,0,0)"/>
<path style="fill:none;stroke-width:1;stroke-linecap:butt;stroke-linejoin:miter;stroke:rgb(0%,0%,0%);stroke-opacity:1;stroke-miterlimit:4;" d="M 159.761875 257.549944 L 165.128125 254.575 L 165.4925 252.435714 L 172.945625 249.226786 L 177.185625 249.226786 L 183.91 251.733761 L 193.11875 251.332645 L 195.23875 249.928739 L 200.2075 249.928739 L 199.511875 252.435714 L 196.29875 256.31317 L 198.81625 258.820145 L 198.451875 261.293694 L 203.420625 260.926004 L 209.449375 259.488672 L 211.900625 259.488672 L 213.689375 261.293694 L 216.140625 257.382812 L 220.41375 258.084766 L 224.686875 258.084766 L 227.5025 264.469196 L 229.986875 263.399554 L 234.9225 259.154408 L 236.71125 259.154408 L 238.135625 255.243527 L 244.098125 264.502623 L 245.45625 263.633538 L 249.000625 250.496987 L 252.776875 250.496987 L 253.27375 248.223996 L 254.7975 241.672433 L 256.32125 239.366016 L 256.85125 238.363225 L 255.824375 232.814453 L 251.02125 229.772656 L 239.394375 225.494085 L 237.37375 225.99548 L 235.12125 228.268471 L 230.815 228.268471 L 229.059375 229.772656 L 221.970625 229.538672 L 219.453125 226.262891 L 219.718125 221.716908 L 212.629375 217.404911 L 207.0975 217.404911 L 205.57375 215.666741 L 205.30875 219.677902 L 200.770625 219.443917 L 200.240625 215.666741 L 195.9675 214.363114 L 193.185 216.168136 L 192.688125 218.173717 L 187.123125 218.173717 L 182.353125 214.864509 L 175.794375 214.864509 L 171.985 210.084542 L 165.16125 209.750279 C 158.834375 210.519085 159.59625 226.496875 159.59625 226.496875 L 157.840625 229.037277 L 161.616875 233.315848 L 162.37875 235.85625 C 166.651875 247.7226 161.385 251.499777 161.385 251.499777 L 161.385 255.811775 Z M 159.761875 257.549944 " transform="matrix(0.117925,0,0,0.116861,0,0)"/>
</g>
</svg>
