<?xml version="1.0" encoding="UTF-8" standalone="no"?>
<!-- Created with Inkscape (http://www.inkscape.org/) -->
<svg
   xmlns:dc="http://purl.org/dc/elements/1.1/"
   xmlns:cc="http://web.resource.org/cc/"
   xmlns:rdf="http://www.w3.org/1999/02/22-rdf-syntax-ns#"
   xmlns:svg="http://www.w3.org/2000/svg"
   xmlns="http://www.w3.org/2000/svg"
   xmlns:sodipodi="http://sodipodi.sourceforge.net/DTD/sodipodi-0.dtd"
   xmlns:inkscape="http://www.inkscape.org/namespaces/inkscape"
   width="424"
   height="599"
   id="svg2"
   sodipodi:version="0.32"
   inkscape:version="0.45.1"
   version="1.0"
   sodipodi:docbase="C:\Documents and Settings\Asis\Escritorio"
   sodipodi:docname="dibujo-1.svg"
   inkscape:output_extension="org.inkscape.output.svg.inkscape">
  <defs
     id="defs4" />
  <sodipodi:namedview
     id="base"
     pagecolor="#ffffff"
     bordercolor="#666666"
     borderopacity="1.0"
     inkscape:pageopacity="0.0"
     inkscape:pageshadow="2"
     inkscape:zoom="0.70546875"
     inkscape:cx="297.37874"
     inkscape:cy="358.76947"
     inkscape:document-units="px"
     inkscape:current-layer="layer1"
     borderlayer="true"
     inkscape:window-width="1024"
     inkscape:window-height="712"
     inkscape:window-x="0"
     inkscape:window-y="22"
     showguides="true"
     inkscape:guide-bbox="true" />
  <metadata
     id="metadata7">
    <rdf:RDF>
      <cc:Work
         rdf:about="">
        <dc:format>image/svg+xml</dc:format>
        <dc:type
           rdf:resource="http://purl.org/dc/dcmitype/StillImage" />
      </cc:Work>
    </rdf:RDF>
  </metadata>
  <g
     inkscape:label="Capa 1"
     inkscape:groupmode="layer"
     id="layer1"
     transform="translate(-205.14285,-190.00502)">
    <path
       style="fill:#000000;fill-rule:evenodd;stroke:#000000;stroke-width:3;stroke-linecap:butt;stroke-linejoin:miter;stroke-opacity:1;fill-opacity:0.10055866;stroke-miterlimit:4;stroke-dasharray:none"
       d="M 251.52798,83.064587 L 254.05337,92.15596 L 254.55844,112.61155 L 253.04321,115.64201 L 250.77037,118.41993 L 246.72976,118.41993 L 245.21453,120.18769 L 242.18407,120.18769 L 241.17392,123.72323 L 232.58762,132.8146 L 219.70818,135.84506 L 213.39473,136.0976 L 211.8795,134.32983 L 211.8795,137.36029 L 210.86934,137.61282 L 208.5965,135.33998 L 207.58635,137.61282 L 208.5965,139.38059 L 208.5965,144.17882 L 210.86934,145.18897 L 209.85919,150.74481 C 209.85919,150.74481 210.04681,150.57578 209.85919,150.74481 C 198.64654,160.84691 187.3833,159.07857 187.3833,159.07857 C 190.16122,165.64456 185.61553,164.63441 185.61553,164.63441 L 187.63584,166.40217 L 185.61553,168.42248 L 186.62568,171.2004 L 184.35284,178.01893 L 180.31223,181.30192 C 173.24116,173.72578 170.96832,184.33238 170.96832,184.33238 L 167.68532,187.36284 L 166.67517,190.14076 L 167.93786,193.17121 L 166.42263,195.94913 L 168.44294,199.23213 C 168.36477,198.86508 164.26662,204.84412 166.42263,209.58619 C 158.59395,208.07096 159.6041,226.50625 159.6041,226.50625 L 157.83634,229.03163 L 161.62441,233.32478 L 162.38202,235.85016 C 166.67517,247.71945 161.37187,251.50752 161.37187,251.50752 L 161.37187,255.80067 L 158.08887,259.33621 C 152.78558,269.43773 160.61425,269.43773 160.61425,269.43773 L 161.62441,274.99357 L 158.59395,278.02403 L 154.55334,278.02403 L 150.51273,282.82225 L 150.26019,285.85271 L 147.98735,286.86286 C 144.95689,309.08622 135.1079,303.53038 135.1079,303.53038 L 133.84521,302.52023 L 129.8046,302.01515 L 128.03684,303.27784 L 126.26907,302.01515 L 125.25892,300.49992 L 123.23861,302.01515 L 116.42008,302.52023 L 115.40993,303.78292 L 115.66247,306.3083 L 118.44039,309.33876 L 118.44039,329.54181 L 117.1777,331.05704 L 117.43023,334.84511 L 107.58125,352.52278 L 107.58125,360.35146 L 105.81348,361.36161 L 105.05586,363.63446 L 102.53048,364.64461 L 99.500026,367.16999 L 100.51018,374.74613 L 97.984797,376.5139 L 97.984797,377.01898 L 94.701801,380.80705 L 94.449263,390.65604 L 91.671344,392.4238 C 91.671344,392.4238 91.484429,395.35462 91.418805,395.7068 C 89.925536,403.72062 85.35789,403.78802 85.35789,403.78802 L 83.392857,418.46429 L 69.821429,432.92857 C 69.821429,432.92857 68.75,433.82143 68.035714,434.17857 C 67.321429,434.53571 64.464286,434.53571 64.464286,434.53571 L 63.75,437.21429 C 56.071429,449.17858 51.964286,472.57143 51.964286,472.57143 L 45,484.17857 L 44.285714,489 L 41.428572,491.5 L 39.821429,491.85714 L 38.571429,490.60714 L 36.964286,492.21429 L 37.142857,494 L 40.178572,493.82143 L 42.321429,497.21429 L 42.142857,507.03571 L 35,523.28571 L 33.928572,524.17857 L 30.357143,524.89286 L 27.5,528.64286 L 25.892857,533.82143 L 24.464286,535.60714 L 15.357143,540.60714 L 13.571429,543.10714 L 12.857143,545.60714 L 28.571429,548.64286 L 32.321429,546.67857 L 36.071429,549.35714 L 40.535714,548.46429 L 40.892857,544.53571 L 43.75,545.96429 L 47.142857,548.10714 L 59.285714,546.32143 L 63.035714,543.46429 L 64.464286,545.96429 L 68.571429,546.14286 L 70.535714,551.5 L 76.428572,559 L 81.071429,559.71429 L 81.964286,560.78571 L 83.571429,560.60714 L 85,559.17857 L 97.321429,557.39286 L 101.96429,550.60714 L 111.42857,550.07143 L 116.25,551.14286 L 116.60714,542.92857 L 121.60714,543.10714 L 124.28571,537.57143 L 121.96429,535.96429 L 128.03571,519.35714 L 125.53571,511.5 L 129.64286,505.78571 L 129.82143,501.14286 L 133.03571,497.75 L 134.64286,492.21429 L 137.85714,493.10714 L 138.75,498.28571 L 147.85714,505.96429 L 149.28571,505.07143 L 148.92857,497.03571 L 154.28571,494.35714 L 157.14286,496.5 L 166.96429,489.71429 L 170.71429,489 L 173.03571,481.67857 L 175.35714,480.07143 C 175.35714,480.07143 177.14286,480.07143 177.32143,480.78571 C 177.5,481.5 180,482.03571 180,482.03571 L 189.82143,478.28571 L 196.78571,473.28571 L 199.28571,472.21429 L 199.64286,466.14286 L 202.14286,460.07143 L 221.96429,449 L 221.96429,446.67857 L 225.89286,444.53571 L 228.39286,443.10714 L 231.60714,442.75 L 233.57143,436.32143 L 235,434.53571 L 231.25,431.5 L 230.89286,429.17857 C 229.82143,423.82143 238.57143,420.60714 238.57143,420.60714 L 238.57143,420.78571 L 241.25,417.21429 L 245.89286,416.32143 L 247.5,419.35714 L 251.96429,417.92857 L 254.46429,417.92857 L 262.85714,408.64286 C 267.32143,401.85715 256.78571,397.03571 256.78571,397.03571 L 251.42857,391.14286 L 248.03571,390.96429 L 243.03571,386.5 L 239.64286,386.85714 L 234.28571,386.14286 L 234.64286,383.46429 L 236.78571,379.53571 L 237.85714,376.85714 L 240,375.78571 L 240.35714,371.85714 L 242.67857,370.42857 L 236.07143,362.03571 L 241.25,358.46429 L 248.21429,355.96429 L 254.10714,349.17857 L 258.57143,349.17857 L 264.64286,340.42857 L 266.78571,335.42857 L 270.71429,334.17857 L 276.25,334 L 280.89286,330.42857 L 280.89286,328.10714 L 285.17857,329.71429 L 289.10714,325.60714 L 290.35714,322.03571 L 296.42857,328.46429 L 298.21429,327.75 L 303.92857,331.14286 L 308.57143,328.28571 L 311.25,326.5 L 313.03571,324.53571 L 321.42857,326.67857 L 332.5,331.5 L 345.71429,331.5 L 349.28572,333.10714 L 353.03572,328.64286 L 349.46429,324.53571 L 346.78572,316.85714 L 343.57143,311.85714 L 333.03571,311.67857 L 322.5,313.64286 L 320.17857,312.39286 L 326.60714,304 L 327.5,300.42857 L 335,292.92857 L 336.60714,289 L 341.96429,286.67857 L 350.53572,277.75 L 351.96429,271.67857 L 357.32143,271.67857 L 355.53572,267.39286 L 359.10714,269.17857 L 362.85714,264.53571 L 368.92857,267.57143 L 375.89286,266.67857 L 380.17857,265.07143 L 384.82143,257.57143 L 382.32143,251.85714 L 392.5,242.21428 L 396.60714,241.14286 L 400.35714,235.07143 L 399.46429,233.10714 L 402.85714,231.67857 L 403.75,226.85714 L 408.75,222.92857 L 412.85714,222.75 L 411.60714,217.57143 L 412.67857,215.42857 L 410.53572,209.35714 L 405.71429,199 L 405.71429,195.60714 L 407.67857,192.21428 L 400.71429,188.82143 L 400.71429,188.82143 L 396.78572,185.25 L 398.39286,180.78571 L 393.92857,176.32143 L 390.17857,167.21428 L 397.5,160.60714 L 398.21429,154.17857 L 398.75,151.32143 L 396.07143,151.5 L 393.21429,149.89286 L 388.39286,148.46428 L 382.5,142.21428 L 383.57143,139.53571 L 379.64286,139.89286 L 374.64286,138.28571 L 372.67857,134 L 368.39286,131.85714 L 370.89286,126.85714 L 369.82143,124.17857 L 364.64286,123.28571 L 362.5,122.57143 L 356.42857,125.96428 L 347.5,125.07143 L 344.64286,122.39286 L 352.67857,116.14286 L 354.46429,116.14286 L 355.89286,112.92857 L 360.71429,112.03571 L 363.21429,108.10714 L 359.82143,104.35714 L 358.39286,101.85714 L 360.89286,93.999999 L 365.53572,96.499999 L 366.25,99.17857 L 371.42857,99.892856 L 373.21429,96.67857 L 375.35714,85.249999 L 372.85714,84.892856 L 364.28572,88.285713 L 358.92857,83.821427 L 356.07143,85.964285 L 347.14286,77.571427 L 346.96429,73.464285 L 348.57143,71.321427 L 343.92857,67.214285 C 333.03572,69.357142 336.07143,77.92857 336.07143,77.92857 L 334.10714,83.107142 C 326.96429,90.071428 320,83.821427 320,83.821427 L 317.14286,86.321427 L 313.75,87.035713 L 310.53571,85.071427 L 309.46429,83.642856 L 303.03571,83.642856 L 302.14286,85.42857 L 299.82143,85.071427 L 289.28571,81.67857 L 287.14286,83.464285 L 282.5,82.92857 L 280.89286,84.892856 L 277.5,84.17857 L 273.57143,82.392856 L 270.71429,84.535713 L 266.25,84.17857 L 259.46429,79.535713 L 255.71429,79.17857 L 254.82143,77.214285 L 252.67857,77.571427 L 251.52798,83.064587 z "
       id="path2188"
       sodipodi:nodetypes="cccccccccccccccccccccsccccccccccccccccccccccccccccccccccccccccccccccccccccccscccsccccccccccccccccccccccccccccccccccccccccccccccccccccccccccccccccsccccccccccccccccccccccccccccccccccccccccccccccccccccccccccccccccccccccccccccccccccccccccccccccccccccccccccccccccccccccccccccccccccccccccccccccccccccccccccccccccccccc"
       transform="translate(205.14285,190.00502)" />
    <path
       style="fill:none;fill-rule:evenodd;stroke:#000000;stroke-width:1;stroke-linecap:butt;stroke-linejoin:miter;stroke-opacity:1;stroke-miterlimit:4;stroke-dasharray:none"
       d="M 328.6875 132 L 320.75 138.9375 L 317.5 138.4375 L 318.25 145.1875 L 318.5 149.21875 L 315.96875 150.21875 L 314.46875 148.96875 L 313.21875 150.21875 L 308.96875 149.71875 L 299.9375 152.21875 L 297.9375 149.96875 L 292.4375 149.96875 L 291.1875 146.1875 L 287.40625 141.4375 L 270.625 140.9375 L 267.875 142.6875 L 256.59375 142.6875 L 253.34375 140.9375 L 250.59375 140.9375 L 248.8125 145.9375 L 244.5625 146.6875 L 242.0625 148.21875 L 243.8125 149.71875 L 241.3125 152.46875 L 243.0625 152.96875 L 242.3125 155.46875 L 238.0625 157.71875 L 235.53125 156.71875 L 235.78125 162.5 L 237.5625 165.25 L 237.0625 167.75 L 242.3125 171.25 L 243.5625 174.28125 L 249.0625 177.78125 L 250.09375 179.53125 L 253.09375 180.53125 L 258.59375 187.28125 L 260.34375 186.53125 L 262.34375 187.53125 L 262.46875 191.34375 L 267.375 191.0625 L 269.625 193.0625 L 275.625 191.3125 L 281.40625 190.5625 L 284.15625 188.3125 L 284.40625 184.53125 L 287.65625 183.78125 L 290.25 185.34375 L 290.9375 182.3125 L 292.1875 182.0625 L 295.21875 176.75 L 296.71875 173.46875 L 299.75 173.46875 L 305.5625 169.6875 L 305.8125 167.40625 L 309.34375 164.875 C 309.34375 164.875 309.70909 164.97728 310.28125 164.90625 C 310.85341 164.83522 311.66347 164.59978 312.5 164 C 312.91827 163.70011 313.32335 163.29915 313.75 162.78125 C 314.17665 162.26335 314.60344 161.63688 315 160.84375 C 315.39656 160.05062 315.76575 159.09432 316.09375 157.96875 C 316.42175 156.84318 316.71653 155.54648 316.9375 154.03125 L 319.21875 153.78125 L 320.96875 151.5 L 323 144.1875 L 324.75 140.65625 L 325.53125 137.875 L 329.5625 133.5625 L 328.6875 132 z "
       id="path12949"
       transform="translate(205.14285,190.00502)" />
    <path
       style="fill:none;fill-rule:evenodd;stroke:#000000;stroke-width:1;stroke-linecap:butt;stroke-linejoin:miter;stroke-opacity:1;stroke-miterlimit:4;stroke-dasharray:none"
       d="M 289.40625 189 L 289.15625 190.15625 L 284.625 194.4375 L 282.34375 194.9375 L 275 204.28125 L 274.5 205.8125 L 270.90625 210 L 268.1875 213.65625 L 264.96875 214.6875 L 256.34375 225.5 L 262.875 226.625 L 256.3125 239.375 L 254.8125 241.65625 L 253.28125 248.21875 L 252.78125 250.5 L 249 250.5 L 245.46875 263.625 L 243.4375 264.90625 L 238.15625 271.71875 L 230.8125 274.75 L 226.78125 279.78125 L 226.53125 285.59375 L 221.46875 290.65625 L 222.21875 294.6875 L 225.53125 294.9375 L 226.1875 296.40625 L 229.28125 297.4375 L 231.0625 302.03125 L 236 303.4375 L 239.1875 302.375 L 243.09375 305.5625 L 245.21875 309.125 L 246.65625 309.46875 L 245.9375 313.375 L 250.1875 319.75 L 254.4375 317.625 L 256.21875 314.09375 L 260.46875 313.375 L 259.75 315.84375 L 264.375 317.96875 L 268.25 316.5625 L 270.03125 316.5625 L 271.4375 319.40625 L 273.9375 318.6875 L 275.34375 319.75 L 267 335.375 L 270.71875 334.1875 L 276.25 334 L 280.90625 330.4375 L 280.90625 328.09375 L 285.1875 329.71875 L 289.09375 325.59375 L 290.34375 322.03125 L 296.4375 328.46875 L 298.21875 327.75 L 303.9375 331.15625 L 308.5625 328.28125 L 311.25 326.5 L 313.03125 324.53125 L 321.4375 326.6875 L 332.5 331.5 L 345.71875 331.5 L 349.28125 333.09375 L 353.03125 328.65625 L 349.46875 324.53125 L 346.78125 316.84375 L 343.5625 311.84375 L 333.03125 311.6875 L 322.5 313.65625 L 320.1875 312.40625 L 326.59375 304 L 327.5 300.4375 L 335 292.9375 L 336.59375 289 L 341.96875 286.6875 L 350.53125 277.75 L 351.96875 271.6875 L 357.3125 271.6875 L 355.53125 267.40625 L 359.09375 269.1875 L 362.84375 264.53125 L 368.9375 267.5625 L 375.90625 266.6875 L 380.1875 265.0625 L 384.8125 257.5625 L 382.3125 251.84375 L 392.5 242.21875 L 396.59375 241.15625 L 400.34375 235.0625 L 399.46875 233.09375 L 402.84375 231.6875 L 403.75 226.84375 L 408.75 222.9375 L 412.84375 222.75 L 411.59375 217.5625 L 412.6875 215.4375 L 410.53125 209.34375 L 405.71875 199 L 405.71875 195.59375 L 407.6875 192.21875 L 400.71875 188.8125 L 396.78125 185.25 L 398.40625 180.78125 L 393.9375 176.3125 L 390.1875 167.21875 L 397.5 160.59375 L 398.21875 154.1875 L 398.75 151.3125 L 396.0625 151.5 L 393.21875 149.90625 L 388.40625 148.46875 L 382.875 142.625 L 377.75 145.03125 L 376.34375 150.71875 L 372.4375 152.84375 L 362.53125 162.40625 L 362.15625 166.65625 L 359.34375 167.71875 L 355.4375 170.5625 L 349.78125 171.625 L 348 178.34375 L 347.65625 183.6875 L 345.875 190.0625 L 342.6875 197.5 L 335.25 191.46875 L 332.40625 191.125 L 330.28125 193.25 L 332.0625 193.59375 L 332.0625 196.4375 L 329.21875 199.96875 L 321.78125 196.0625 L 316.46875 197.84375 L 318.59375 200.34375 L 327.4375 203.53125 L 332.40625 204.21875 L 332.0625 207.40625 L 329.9375 210.25 L 320.71875 207.0625 L 315.03125 205.65625 L 317.15625 203.875 L 312.90625 201.03125 L 306.875 201.03125 L 299.4375 198.90625 L 293.4375 195.71875 L 294.84375 192.1875 L 293.0625 190.0625 L 290.21875 190.0625 L 289.40625 189 z "
       id="path15890"
       transform="translate(205.14285,190.00502)" />
    <path
       style="fill:none;fill-rule:evenodd;stroke:#000000;stroke-width:1;stroke-linecap:butt;stroke-linejoin:miter;stroke-opacity:1;stroke-miterlimit:4;stroke-dasharray:none"
       d="M 265.65625 214.5625 L 259.09375 210.59375 L 257.09375 212.59375 L 253.59375 212.59375 L 249.84375 211.59375 L 245.5625 212.59375 L 244.0625 211.34375 L 240.3125 210.09375 L 236.8125 210.34375 L 233.78125 211.59375 L 232.03125 211.34375 L 231.03125 206.59375 L 228.53125 203.09375 L 224.53125 203.59375 L 222.25 200.5625 L 219 200.5625 L 217 198.8125 L 212.5 200.0625 L 210.5 201.34375 L 200.96875 199.3125 L 193.1875 194.5625 L 186.1875 192.8125 L 184.6875 190.5625 L 185.9375 188.8125 L 183.1875 185.53125 L 180.65625 185.28125 L 179.1875 180.375 C 173.03817 175.12269 170.96875 184.34375 170.96875 184.34375 L 167.6875 187.375 L 166.6875 190.15625 L 167.9375 193.15625 L 166.4375 195.9375 L 168.4375 199.21875 C 168.35932 198.8517 164.28149 204.85168 166.4375 209.59375 C 165.94756 209.49892 165.57937 209.69796 165.15625 209.75 L 171.96875 210.09375 L 175.78125 214.875 L 182.34375 214.875 L 187.125 218.1875 L 192.6875 218.1875 L 193.1875 216.15625 L 195.96875 214.375 L 200.25 215.65625 L 200.78125 219.4375 L 205.3125 219.6875 L 205.5625 215.65625 L 207.09375 217.40625 L 212.625 217.40625 L 219.71875 221.71875 L 219.46875 226.25 L 221.96875 229.53125 L 229.0625 229.78125 L 230.8125 228.28125 L 235.125 228.28125 L 237.375 226 L 239.40625 225.5 L 251.03125 229.78125 L 255.8125 232.8125 L 256.84375 238.375 L 262.625 227 L 256.0625 225.75 L 265.15625 214.875 L 265.65625 214.5625 z "
       id="path12922"
       transform="translate(205.14285,190.00502)" />
    <path
       style="fill:none;fill-rule:evenodd;stroke:#000000;stroke-width:1;stroke-linecap:butt;stroke-linejoin:miter;stroke-opacity:1;stroke-miterlimit:4;stroke-dasharray:none"
       d="M 204.53125 200.0625 L 207.21875 198.3125 L 206.46875 195.8125 L 210.25 194.3125 L 211 192.3125 L 214.5 192.3125 L 217 194.8125 L 219 194.0625 L 221.25 190.0625 L 222.25 186.78125 L 220 181.28125 L 218.75 172.5 L 218.25 168 L 219.5 164.5 L 217.5 161.75 L 219 160.46875 L 221.5 160.46875 L 223.03125 155.46875 L 218 156.21875 L 213.75 147.71875 L 211.625 152.1875 L 205.71875 156.71875 L 198.96875 161 L 196.1875 158.25 C 191.03224 159.58793 187.375 159.09375 187.375 159.09375 C 190.15292 165.65974 185.625 164.625 185.625 164.625 L 187.625 166.40625 L 185.625 168.4375 L 186.375 170.5 L 190.1875 170.25 L 194.9375 176.78125 L 192.6875 177.53125 L 188.1875 179.28125 L 186.6875 180.53125 L 184.03125 178.28125 L 180.3125 181.3125 C 180.02827 181.00797 179.785 180.84567 179.53125 180.65625 L 179.375 181.03125 L 180.65625 185.28125 L 183.1875 185.53125 L 185.9375 188.8125 L 184.6875 190.5625 L 186.1875 192.8125 L 193.1875 194.5625 L 200.96875 199.3125 L 204.53125 200.0625 z "
       id="path12934"
       transform="translate(205.14285,190.00502)" />
    <path
       style="fill:none;fill-rule:evenodd;stroke:#000000;stroke-width:1;stroke-linecap:butt;stroke-linejoin:miter;stroke-opacity:1;stroke-miterlimit:4;stroke-dasharray:none"
       d="M 179.375 181.03125 L 179.53125 180.65625 C 179.4208 180.5738 179.30168 180.47253 179.1875 180.375 L 179.375 181.03125 z "
       id="path12927"
       transform="translate(205.14285,190.00502)" />
    <path
       style="fill:none;fill-rule:evenodd;stroke:#000000;stroke-width:1;stroke-linecap:butt;stroke-linejoin:miter;stroke-opacity:1;stroke-miterlimit:4;stroke-dasharray:none"
       d="M 222.15625 155.59375 L 222.25 155.46875 L 223.53125 152.71875 L 219.75 149.21875 L 218.75 145.9375 L 221.25 142.9375 L 221.5 138.6875 L 219.21875 135.875 L 213.40625 136.09375 L 211.875 134.34375 L 211.875 137.375 L 210.875 137.625 L 208.59375 135.34375 L 207.59375 137.625 L 208.59375 139.375 L 208.59375 144.1875 L 210.875 145.1875 L 209.84375 150.75 C 204.97147 155.13971 200.14907 157.22187 196.1875 158.25 L 198.96875 161 L 205.71875 156.71875 L 211.625 152.1875 L 213.75 147.71875 L 218 156.21875 L 222.15625 155.59375 z "
       id="path12944"
       transform="translate(205.14285,190.00502)" />
    <path
       style="fill:none;fill-rule:evenodd;stroke:#000000;stroke-width:1;stroke-linecap:butt;stroke-linejoin:miter;stroke-opacity:1;stroke-miterlimit:4;stroke-dasharray:none"
       d="M 221.28125 142.375 L 221.75 142.4375 L 223.78125 142.4375 L 225.03125 138.6875 L 228.78125 136.9375 L 235.78125 139.6875 L 238.0625 136.9375 L 240.8125 137.4375 L 240.0625 139.1875 L 241.3125 143.1875 L 243.5625 140.9375 L 245.0625 141.4375 L 244.0625 138.4375 L 246.3125 136.9375 L 248.3125 138.4375 L 250.59375 138.4375 L 251.59375 135.9375 L 249.84375 132.90625 L 248.5625 130.90625 L 252.09375 127.90625 L 253.84375 127.90625 L 254.59375 126.15625 L 252.09375 123.40625 L 249.84375 125.15625 L 247.0625 123.40625 L 246.8125 118.40625 L 246.71875 118.40625 L 245.21875 120.1875 L 242.1875 120.1875 L 241.1875 123.71875 L 232.59375 132.8125 L 219.71875 135.84375 L 219.21875 135.875 L 221.5 138.6875 L 221.28125 142.375 z "
       id="path12954"
       transform="translate(205.14285,190.00502)" />
    <path
       style="fill:none;fill-rule:evenodd;stroke:#000000;stroke-width:1;stroke-linecap:butt;stroke-linejoin:miter;stroke-opacity:1;stroke-miterlimit:4;stroke-dasharray:none"
       d="M 290.25 185.34375 L 287.65625 183.78125 L 284.40625 184.53125 L 284.15625 188.3125 L 281.40625 190.5625 L 275.625 191.3125 L 269.625 193.0625 L 267.375 191.0625 L 258.84375 191.5625 L 255.34375 194.8125 L 250.34375 194.3125 L 247.0625 193.5625 L 244.3125 191.3125 L 241.8125 191.3125 L 241.8125 195.0625 L 238.5625 195.0625 L 237.3125 192.5625 L 234.28125 189.3125 L 226.03125 186.78125 L 222.78125 185.78125 L 221.53125 185 L 222.25 186.78125 L 221.25 190.0625 L 219 194.0625 L 217 194.8125 L 214.5 192.3125 L 211 192.3125 L 210.25 194.3125 L 206.46875 195.8125 L 207.21875 198.3125 L 204.53125 200.0625 L 210.5 201.34375 L 212.5 200.0625 L 217 198.8125 L 219 200.5625 L 222.25 200.5625 L 224.53125 203.59375 L 228.53125 203.09375 L 231.03125 206.59375 L 232.03125 211.34375 L 233.78125 211.59375 L 236.8125 210.34375 L 240.3125 210.09375 L 244.0625 211.34375 L 245.5625 212.59375 L 249.84375 211.59375 L 253.59375 212.59375 L 257.09375 212.59375 L 259.09375 210.59375 L 265.65625 214.5625 L 268.4375 212.875 L 274.5 205.8125 L 275 204.28125 L 282.34375 194.9375 L 284.625 194.4375 L 289.15625 190.15625 L 290.25 185.34375 z "
       id="path12939"
       transform="translate(205.14285,190.00502)" />
    <path
       style="fill:none;fill-rule:evenodd;stroke:#000000;stroke-width:1;stroke-linecap:butt;stroke-linejoin:miter;stroke-opacity:1;stroke-miterlimit:4;stroke-dasharray:none"
       d="M 254.5625 141.59375 L 252.1875 127.90625 L 252.09375 127.90625 L 248.5625 130.90625 L 249.84375 132.90625 L 251.59375 135.9375 L 250.59375 138.4375 L 248.3125 138.4375 L 246.3125 136.9375 L 244.0625 138.4375 L 245.0625 141.4375 L 243.5625 140.9375 L 241.3125 143.1875 L 240.0625 139.1875 L 240.8125 137.4375 L 238.0625 136.9375 L 235.78125 139.6875 L 228.78125 136.9375 L 225.03125 138.6875 L 223.78125 142.4375 L 221.75 142.4375 L 221.28125 142.375 L 221.25 142.9375 L 218.75 145.9375 L 219.75 149.21875 L 223.53125 152.71875 L 222.25 155.46875 L 222.15625 155.59375 L 223.03125 155.46875 L 221.5 160.46875 L 219 160.46875 L 217.5 161.75 L 219.5 164.5 L 218.25 168 L 218.75 172.5 L 220 181.28125 L 221.53125 185 L 222.78125 185.78125 L 226.03125 186.78125 L 234.28125 189.3125 L 237.3125 192.5625 L 238.5625 195.0625 L 241.8125 195.0625 L 241.8125 191.3125 L 244.3125 191.3125 L 247.0625 193.5625 L 250.34375 194.3125 L 255.34375 194.8125 L 258.84375 191.5625 L 262.46875 191.34375 L 262.34375 187.53125 L 260.34375 186.53125 L 258.59375 187.28125 L 253.09375 180.53125 L 250.09375 179.53125 L 249.0625 177.78125 L 243.5625 174.28125 L 242.3125 171.25 L 237.0625 167.75 L 237.5625 165.25 L 235.78125 162.5 L 235.53125 156.71875 L 238.0625 157.71875 L 242.3125 155.46875 L 243.0625 152.96875 L 241.3125 152.46875 L 243.8125 149.71875 L 242.0625 148.21875 L 244.5625 146.6875 L 248.8125 145.9375 L 250.59375 140.9375 L 253.34375 140.9375 L 254.5625 141.59375 z "
       id="path12959"
       transform="translate(205.14285,190.00502)" />
    <path
       style="fill:none;fill-rule:evenodd;stroke:#000000;stroke-width:1;stroke-linecap:butt;stroke-linejoin:miter;stroke-opacity:1;stroke-miterlimit:4;stroke-dasharray:none"
       d="M 184.03125 178.28125 L 186.6875 180.53125 L 188.1875 179.28125 L 192.6875 177.53125 L 194.9375 176.78125 L 190.1875 170.25 L 186.375 170.5 L 186.625 171.1875 L 184.34375 178.03125 L 184.03125 178.28125 z "
       id="path12929"
       transform="translate(205.14285,190.00502)" />
    <path
       style="fill:#00c2ff;fill-rule:evenodd;stroke:#000000;stroke-width:2;stroke-linecap:butt;stroke-linejoin:miter;stroke-opacity:1;stroke-miterlimit:4;stroke-dasharray:none;fill-opacity:0.21787709"
       d="M 246.71875,118.40625 L 245.21875,120.1875 L 242.1875,120.1875 L 241.1875,123.71875 L 232.59375,132.8125 L 219.71875,135.84375 L 219.21875,135.875 L 211.875,137.375 L 210.875,137.625 L 208.59375,135.34375 L 207.59375,137.625 L 208.59375,139.375 L 208.59375,144.1875 L 210.875,145.1875 L 209.84375,150.75 C 204.97147,155.13971 200.14907,157.22187 196.1875,158.25 C 191.03224,159.58793 187.375,159.09375 187.375,159.09375 C 190.15292,165.65974 185.625,164.625 185.625,164.625 L 187.625,166.40625 L 185.625,168.4375 L 186.375,170.5 L 186.625,171.1875 L 184.34375,178.03125 L 184.03125,178.28125 L 180.3125,181.3125 C 180.02827,181.00797 179.785,180.84567 179.53125,180.65625 L 179.375,181.03125 L 179.1875,180.375 C 173.03817,175.12269 170.96875,184.34375 170.96875,184.34375 L 167.6875,187.375 L 166.6875,190.15625 L 167.9375,193.15625 L 166.4375,195.9375 L 168.4375,199.21875 C 168.35932,198.8517 164.28149,204.85168 166.4375,209.59375 C 165.94756,209.49892 165.57937,209.69796 165.15625,209.75 L 171.96875,210.09375 L 175.78125,214.875 L 182.34375,214.875 L 187.125,218.1875 L 192.6875,218.1875 L 193.1875,216.15625 L 195.96875,214.375 L 200.25,215.65625 L 200.78125,219.4375 L 205.3125,219.6875 L 205.5625,215.65625 L 207.09375,217.40625 L 212.625,217.40625 L 219.71875,221.71875 L 219.46875,226.25 L 221.96875,229.53125 L 229.0625,229.78125 L 230.8125,228.28125 L 235.125,228.28125 L 237.375,226 L 239.40625,225.5 L 251.03125,229.78125 L 255.8125,232.8125 L 256.84375,238.375 L 262.625,227 L 256.0625,225.75 L 265.15625,214.875 L 265.65625,214.5625 L 268.4375,212.875 L 274.5,205.8125 L 275,204.28125 L 282.34375,194.9375 L 284.625,194.4375 L 289.15625,190.15625 L 290.25,185.34375 L 290.9375,182.3125 L 292.1875,182.0625 L 295.21875,176.75 L 296.71875,173.46875 L 299.75,173.46875 L 305.5625,169.6875 L 305.8125,167.40625 L 309.34375,164.875 C 309.34375,164.875 309.70909,164.97728 310.28125,164.90625 C 310.85341,164.83522 311.66347,164.59978 312.5,164 C 312.91827,163.70011 313.32335,163.29915 313.75,162.78125 C 314.17665,162.26335 314.60344,161.63688 315,160.84375 C 315.39656,160.05062 315.76575,159.09432 316.09375,157.96875 C 316.42175,156.84318 316.71653,155.54648 316.9375,154.03125 L 319.21875,153.78125 L 320.96875,151.5 L 323,144.1875 L 324.75,140.65625 L 325.53125,137.875 L 329.5625,133.5625 L 328.6875,132 L 320.75,138.9375 L 317.5,138.4375 L 318.25,145.1875 L 318.5,149.21875 L 315.96875,150.21875 L 314.46875,148.96875 L 313.21875,150.21875 L 308.96875,149.71875 L 299.9375,152.21875 L 297.9375,149.96875 L 292.4375,149.96875 L 291.1875,146.1875 L 287.40625,141.4375 L 270.625,140.9375 L 267.875,142.6875 L 256.59375,142.6875 L 254.5625,141.59375 L 252.1875,127.90625 L 253.84375,127.90625 L 254.59375,126.15625 L 252.09375,123.40625 L 249.84375,125.15625 L 247.0625,123.40625 L 246.8125,118.40625 L 246.71875,118.40625 z "
       transform="translate(205.14285,190.00502)"
       id="path25838"
       sodipodi:nodetypes="cccccccccccccccscccccccccccccccccccccccccccccccccccccccccccccccccccccccccccccccsssssccccccccccccccccccccccccccccccccc" />
    <path
       style="fill:none;fill-rule:evenodd;stroke:#000000;stroke-width:1;stroke-linecap:butt;stroke-linejoin:miter;stroke-opacity:1;stroke-miterlimit:4;stroke-dasharray:none"
       d="M 116.59375 542.9375 L 109.59375 539.15625 L 111.125 532.34375 L 112.375 529.8125 L 111.125 527.78125 L 111.875 522.21875 L 111.625 515.40625 L 109.34375 516.40625 L 103.78125 516.15625 L 100.75 509.59375 L 98 506.8125 L 98 500 L 101.78125 496.46875 L 102.28125 493.6875 L 104.03125 491.40625 L 102.53125 490.65625 L 98.1875 492.375 L 97.71875 493.9375 L 96.46875 495.96875 L 94.6875 497.21875 L 94.6875 500 L 94.6875 503.53125 L 92.6875 505.0625 L 90.40625 502.53125 L 88.65625 501.53125 L 87.125 505.0625 L 86.625 507.84375 L 84.09375 507.84375 L 80.3125 508.84375 L 79.5625 510.875 L 85.09375 513.125 L 84.34375 514.90625 L 82.0625 513.90625 L 79.5625 517.4375 L 76 516.15625 L 77.28125 519.6875 L 72.46875 524 L 67.9375 522.46875 L 69.6875 525.5 L 68.9375 527.03125 L 66.40625 527.03125 L 66.9375 529.5625 L 63.90625 532.34375 L 64.40625 541.40625 L 63.75 544.71875 L 64.46875 545.96875 L 68.5625 546.15625 L 70.53125 551.5 L 76.4375 559 L 81.0625 559.71875 L 81.96875 560.78125 L 83.5625 560.59375 L 85 559.1875 L 97.3125 557.40625 L 101.96875 550.59375 L 111.4375 550.0625 L 116.25 551.15625 L 116.59375 542.9375 z "
       id="path9998"
       transform="translate(205.14285,190.00502)" />
    <path
       style="fill:none;fill-rule:evenodd;stroke:#000000;stroke-width:1;stroke-linecap:butt;stroke-linejoin:miter;stroke-opacity:1;stroke-miterlimit:4;stroke-dasharray:none"
       d="M 129.03125 470.875 L 128.03125 477.03125 L 125.5 488.125 L 123.25 487.125 L 119.4375 485.625 L 114.15625 485.625 L 112.875 483.34375 L 102.78125 483.09375 L 101.3125 483.8125 L 101.78125 484.34375 L 102.28125 486.875 L 100.5 488.65625 L 98.75 490.40625 L 98.1875 492.375 L 102.53125 490.65625 L 104.03125 491.40625 L 102.28125 493.6875 L 101.78125 496.46875 L 98 500 L 98 506.8125 L 100.75 509.59375 L 103.78125 516.15625 L 109.34375 516.40625 L 111.625 515.40625 L 111.875 522.21875 L 111.125 527.78125 L 112.375 529.8125 L 111.125 532.34375 L 109.59375 539.15625 L 116.59375 542.9375 L 121.59375 543.09375 L 124.28125 537.5625 L 121.96875 535.96875 L 128.03125 519.34375 L 125.53125 511.5 L 129.65625 505.78125 L 129.8125 501.15625 L 133.03125 497.75 L 134.65625 492.21875 L 137.84375 493.09375 L 138.75 498.28125 L 147.84375 505.96875 L 149.125 505.15625 L 148 492.6875 L 152.78125 486.125 L 153.28125 483.84375 L 151.78125 482.59375 L 151.78125 478.03125 L 150.5 476.53125 L 152.03125 472.21875 L 153.78125 469.4375 L 152.78125 465.90625 L 151.53125 462.625 L 148.75 458.59375 L 145.25 456.53125 L 143.1875 457.3125 L 141.40625 462.625 L 135.375 461.875 L 131.0625 464.90625 L 129.5625 470.71875 L 129.03125 470.875 z "
       id="path11943"
       transform="translate(205.14285,190.00502)" />
    <path
       style="fill:#5a00ff;fill-rule:evenodd;stroke:#000000;stroke-width:1;stroke-linecap:butt;stroke-linejoin:miter;stroke-opacity:1;stroke-miterlimit:4;stroke-dasharray:none;fill-opacity:0.20670393"
       d="M 126.78125 422.46875 L 124.75 423.75 L 123.5 426.53125 L 120.96875 426.53125 L 119.4375 427.78125 L 115.65625 430.0625 L 114.65625 431.3125 L 112.875 432.5625 L 110.34375 427.53125 L 108.09375 427.53125 L 108.59375 430.5625 L 107.59375 432.5625 L 102.78125 428.78125 L 101.28125 428.78125 L 99.5 431.5625 L 96.21875 431.0625 L 94.4375 432.5625 L 98 434.09375 L 100 436.625 L 97.71875 439.40625 L 92.4375 437.625 L 91.40625 440.15625 L 89.90625 446.21875 L 90.15625 449 L 93.6875 452.53125 L 94.4375 454.03125 L 91.40625 454.8125 L 91.15625 455.0625 L 86.125 456.3125 L 84.84375 459.59375 L 86.125 461.875 L 83.59375 462.625 L 79.03125 458.09375 L 78.28125 453.28125 L 76.53125 454.5625 L 74.5 454.5625 L 72.71875 456.5625 L 68.1875 460.09375 L 71.71875 459.09375 L 71.71875 462.875 L 65.65625 463.90625 C 65.65625 463.90625 68.956056 464.65371 70.21875 464.90625 C 71.481441 465.15879 72.489843 465.40626 73.5 465.40625 C 74.510152 465.40625 76.000002 465.65626 76 465.65625 L 77.78125 468.1875 C 77.78125 468.1875 78.79727 468.18751 80.3125 468.1875 C 81.070115 468.1875 81.744924 468.49683 82.25 468.8125 C 82.755076 469.12817 83.093751 469.4375 83.09375 469.4375 L 82.0625 472.96875 L 80.5625 475 L 78.03125 477.03125 L 77.53125 479.3125 C 77.53125 479.3125 79.302346 480.80742 80.3125 481.3125 C 81.322653 481.81757 81.831061 481.80997 83.09375 482.0625 C 83.725096 482.18877 84.091529 482.5284 84.3125 482.8125 C 84.533471 483.0966 84.593751 483.34375 84.59375 483.34375 L 87.125 483.59375 L 88.90625 481.5625 L 90.65625 483.34375 L 92.6875 485.09375 L 94.6875 484.09375 L 96.46875 482.59375 L 97.46875 481.3125 L 100 482.3125 L 101.3125 483.8125 L 101.78125 484.34375 L 102.28125 486.875 L 100.5 488.65625 L 98.75 490.40625 L 98.1875 492.375 L 97.71875 493.9375 L 96.46875 495.96875 L 94.6875 497.21875 L 94.6875 500 L 94.6875 503.53125 L 92.6875 505.0625 L 90.40625 502.53125 L 88.65625 501.53125 L 87.125 505.0625 L 86.625 507.84375 L 84.09375 507.84375 L 80.3125 508.84375 L 79.5625 510.875 L 85.09375 513.125 L 84.34375 514.90625 L 82.0625 513.90625 L 79.5625 517.4375 L 76 516.15625 L 77.28125 519.6875 L 72.46875 524 L 67.9375 522.46875 L 69.6875 525.5 L 68.9375 527.03125 L 66.40625 527.03125 L 66.9375 529.5625 L 63.90625 532.34375 L 64.40625 541.40625 L 63.75 544.71875 L 64.46875 545.96875 L 68.5625 546.15625 L 70.53125 551.5 L 76.4375 559 L 81.0625 559.71875 L 81.96875 560.78125 L 83.5625 560.59375 L 85 559.1875 L 97.3125 557.40625 L 101.96875 550.59375 L 111.4375 550.0625 L 116.25 551.15625 L 116.59375 542.9375 L 121.59375 543.09375 L 124.28125 537.5625 L 121.96875 535.96875 L 128.03125 519.34375 L 125.53125 511.5 L 129.65625 505.78125 L 129.8125 501.15625 L 133.03125 497.75 L 134.65625 492.21875 L 137.84375 493.09375 L 138.75 498.28125 L 147.84375 505.96875 L 149.125 505.15625 L 149.28125 505.0625 L 148.9375 497.03125 L 154.28125 494.34375 L 157.15625 496.5 L 166.96875 489.71875 L 170.71875 489 L 173.03125 481.6875 L 175.34375 480.0625 C 175.34374 480.06249 177.13393 480.06697 177.3125 480.78125 C 177.49107 481.49554 180 482.03125 180 482.03125 L 189.8125 478.28125 L 196.78125 473.28125 L 199.28125 472.21875 L 199.65625 466.15625 L 202.15625 460.0625 L 211.78125 454.6875 L 203.03125 446.96875 L 200 446.21875 L 198 450 L 196.96875 453.53125 L 188.90625 453.03125 L 183.34375 444.6875 L 185.625 440.65625 L 185.125 438.375 L 181.3125 434.59375 L 168.9375 439.90625 L 167.4375 437.375 L 165.90625 438.125 L 165.65625 442.4375 L 162.375 446.21875 L 162.375 447.96875 L 159.09375 451 L 156.0625 447.21875 L 149.25 451.53125 L 146.46875 452.53125 L 146.46875 456.0625 L 145.25 456.53125 L 143.1875 457.3125 L 141.40625 462.625 L 135.375 461.875 L 131.0625 464.90625 L 129.5625 470.71875 L 129.03125 470.875 L 127.78125 471.21875 L 127.53125 466.40625 L 124.25 465.90625 L 124.5 459.59375 L 129.0625 451.78125 L 128.78125 449.75 L 126.28125 449.25 L 125.25 447.21875 L 128.53125 441.65625 L 124.75 437.875 L 126.03125 435.09375 L 130.8125 430.8125 L 129.3125 429.28125 L 132.59375 424.5 L 126.78125 422.46875 z "
       transform="translate(205.14285,190.00502)"
       id="path24852" />
    <path
       style="fill:#00f90c;fill-rule:evenodd;stroke:#000000;stroke-width:2;stroke-linecap:butt;stroke-linejoin:miter;stroke-opacity:1;stroke-miterlimit:4;stroke-dasharray:none;fill-opacity:0.19553073"
       d="M 152.09375 449.75 L 152.28125 446.71875 L 153.78125 443.1875 L 151.03125 442.4375 L 147.75 448.25 L 146.46875 446.96875 L 148.75 441.90625 L 148 439.40625 L 150 433.09375 L 151.28125 427.53125 L 147.21875 426 L 149.5 418.4375 L 148.25 413.625 L 144.4375 410.09375 L 147.75 403.28125 L 144.96875 398.5 L 139.90625 399.5 L 136.875 396.71875 L 133.59375 399 L 128.03125 401 L 124 401 L 118.6875 403.28125 L 114.40625 403.53125 L 114.15625 404.8125 L 111.625 405.3125 L 106.8125 403.03125 L 102.78125 401.78125 L 100.75 399.75 L 96.46875 399.75 L 91.03125 396.875 C 89.299617 403.48893 85.34375 403.78125 85.34375 403.78125 L 83.40625 418.46875 L 69.8125 432.9375 C 69.812503 432.93751 68.745536 433.83036 68.03125 434.1875 C 67.316966 434.54465 64.46875 434.53125 64.46875 434.53125 L 63.75 437.21875 C 56.071429 449.18304 51.96875 472.5625 51.96875 472.5625 L 45 484.1875 L 44.28125 489 L 41.4375 491.5 L 39.8125 491.84375 L 38.5625 490.59375 L 36.96875 492.21875 L 37.15625 494 L 40.1875 493.8125 L 42.3125 497.21875 L 42.15625 507.03125 L 35 523.28125 L 33.9375 524.1875 L 30.34375 524.90625 L 27.5 528.65625 L 25.90625 533.8125 L 24.46875 535.59375 L 15.34375 540.59375 L 13.5625 543.09375 L 12.84375 545.59375 L 28.5625 548.65625 L 32.3125 546.6875 L 36.0625 549.34375 L 40.53125 548.46875 L 40.90625 544.53125 L 43.75 545.96875 L 47.15625 548.09375 L 59.28125 546.3125 L 63.03125 543.46875 L 63.75 544.71875 L 64.40625 541.40625 L 63.90625 532.34375 L 66.9375 529.5625 L 66.40625 527.03125 L 68.9375 527.03125 L 69.6875 525.5 L 67.9375 522.46875 L 72.46875 524 L 77.28125 519.6875 L 76 516.15625 L 79.5625 517.4375 L 82.0625 513.90625 L 84.34375 514.90625 L 85.09375 513.125 L 79.5625 510.875 L 80.3125 508.84375 L 84.09375 507.84375 L 86.625 507.84375 L 87.125 505.0625 L 88.65625 501.53125 L 90.40625 502.53125 L 92.6875 505.0625 L 94.6875 503.53125 L 94.6875 500 L 94.6875 497.21875 L 96.46875 495.96875 L 97.71875 493.9375 L 98.75 490.40625 L 100.5 488.65625 L 102.28125 486.875 L 101.78125 484.34375 L 100 482.3125 L 97.46875 481.3125 L 96.46875 482.59375 L 94.6875 484.09375 L 92.6875 485.09375 L 90.65625 483.34375 L 88.90625 481.5625 L 87.125 483.59375 L 84.59375 483.34375 C 84.593751 483.34375 84.533471 483.0966 84.3125 482.8125 C 84.091529 482.5284 83.725096 482.18877 83.09375 482.0625 C 81.831061 481.80997 81.322653 481.81757 80.3125 481.3125 C 79.302346 480.80742 77.53125 479.3125 77.53125 479.3125 L 78.03125 477.03125 L 80.5625 475 L 82.0625 472.96875 L 83.09375 469.4375 C 83.093751 469.4375 82.755076 469.12817 82.25 468.8125 C 81.744924 468.49683 81.070115 468.1875 80.3125 468.1875 C 78.79727 468.18751 77.78125 468.1875 77.78125 468.1875 L 76 465.65625 C 76.000002 465.65626 74.510152 465.40625 73.5 465.40625 C 72.489843 465.40626 71.481441 465.15879 70.21875 464.90625 C 68.956056 464.65371 65.65625 463.90625 65.65625 463.90625 L 71.71875 462.875 L 71.71875 459.09375 L 68.1875 460.09375 L 72.71875 456.5625 L 74.5 454.5625 L 76.53125 454.5625 L 78.28125 453.28125 L 79.03125 458.09375 L 83.59375 462.625 L 86.125 461.875 L 84.84375 459.59375 L 86.125 456.3125 L 91.15625 455.0625 L 91.40625 454.8125 L 94.4375 454.03125 L 93.6875 452.53125 L 90.15625 449 L 89.90625 446.21875 L 91.40625 440.15625 L 92.4375 437.625 L 97.71875 439.40625 L 100 436.625 L 98 434.09375 L 94.4375 432.5625 L 96.21875 431.0625 L 99.5 431.5625 L 101.28125 428.78125 L 102.78125 428.78125 L 107.59375 432.5625 L 108.59375 430.5625 L 108.09375 427.53125 L 110.34375 427.53125 L 112.875 432.5625 L 114.65625 431.3125 L 115.65625 430.0625 L 119.4375 427.78125 L 120.96875 426.53125 L 123.5 426.53125 L 124.75 423.75 L 126.78125 422.46875 L 132.59375 424.5 L 129.3125 429.28125 L 130.8125 430.8125 L 126.03125 435.09375 L 124.75 437.875 L 128.53125 441.65625 L 125.25 447.21875 L 126.28125 449.25 L 128.78125 449.75 L 129.0625 451.78125 L 124.5 459.59375 L 124.25 465.90625 L 127.53125 466.40625 L 127.78125 471.21875 L 129.5625 470.71875 L 131.0625 464.90625 L 135.375 461.875 L 141.40625 462.625 L 143.1875 457.3125 L 146.46875 456.0625 L 146.46875 452.53125 L 149.25 451.53125 L 152.09375 449.75 z "
       id="path2211"
       transform="translate(205.14285,190.00502)" />
    <path
       style="fill:#fcf85d;fill-rule:evenodd;stroke:#000000;stroke-width:2;stroke-linecap:butt;stroke-linejoin:miter;stroke-opacity:1;stroke-miterlimit:4;stroke-dasharray:none;fill-opacity:0.34078214"
       d="M 267 335.375 L 275.34375 319.75 L 273.9375 318.6875 L 271.4375 319.40625 L 270.03125 316.5625 L 268.25 316.5625 L 264.375 317.96875 L 259.75 315.84375 L 260.46875 313.375 L 256.21875 314.09375 L 254.4375 317.625 L 250.1875 319.75 L 245.9375 313.375 L 246.65625 309.46875 L 245.21875 309.125 L 243.09375 305.5625 L 239.1875 302.375 L 236 303.4375 L 231.0625 302.03125 L 229.28125 297.4375 L 226.1875 296.40625 L 226.53125 297.21875 L 224.5 300.75 L 219.96875 302 L 217.4375 301.25 L 213.65625 304.53125 L 215.40625 306.0625 L 214.15625 308.0625 L 211.625 309.34375 L 212.125 311.875 L 206.5625 315.40625 L 200.5 322.96875 L 198.5 324.25 L 199.25 326.5 L 200.5 327.78125 L 197.21875 329.78125 L 196.21875 333.34375 L 194.46875 333.34375 L 190.65625 332.5625 L 191.15625 334.84375 L 193.4375 338.375 L 199.5 339.65625 L 201.28125 338.875 L 201.28125 340.90625 L 199.25 343.6875 L 199.25 347.46875 L 196.96875 350.25 L 193.1875 353.53125 L 189.65625 355.8125 L 187.875 359.34375 L 185.375 362.375 L 183.59375 366.15625 L 180.8125 368.4375 L 176.53125 370.4375 L 171.46875 373.75 L 175.25 380.3125 L 173.75 380.3125 L 170.96875 377.53125 L 167.9375 383.09375 L 164.65625 386.875 L 159.59375 401.78125 L 157.84375 410.34375 L 154.3125 416.90625 L 152.78125 427.03125 L 151.1875 427.90625 L 150 433.09375 L 148 439.40625 L 148.75 441.90625 L 146.46875 446.96875 L 147.75 448.25 L 151.03125 442.4375 L 153.78125 443.1875 L 152.28125 446.71875 L 152.09375 449.75 L 156.0625 447.21875 L 159.09375 451 L 162.375 447.96875 L 162.375 446.21875 L 165.65625 442.4375 L 165.90625 438.125 L 167.4375 437.375 L 168.9375 439.90625 L 181.3125 434.59375 L 185.125 438.375 L 185.625 440.65625 L 183.34375 444.6875 L 188.90625 453.03125 L 196.96875 453.53125 L 198 450 L 200 446.21875 L 203.03125 446.96875 L 211.78125 454.6875 L 221.96875 449 L 221.96875 446.6875 L 225.90625 444.53125 L 228.40625 443.09375 L 231.59375 442.75 L 233.5625 436.3125 L 235 434.53125 L 231.25 431.5 L 230.90625 429.1875 C 229.83483 423.83037 238.5625 420.59375 238.5625 420.59375 L 238.5625 420.78125 L 241.25 417.21875 L 245.90625 416.3125 L 247.5 419.34375 L 251.96875 417.9375 L 254.46875 417.9375 L 262.84375 408.65625 C 267.30803 401.87055 256.78125 397.03125 256.78125 397.03125 L 251.4375 391.15625 L 248.03125 390.96875 L 243.03125 386.5 L 239.65625 386.84375 L 234.28125 386.15625 L 234.65625 383.46875 L 236.78125 379.53125 L 237.84375 376.84375 L 240 375.78125 L 240.34375 371.84375 L 242.6875 370.4375 L 236.0625 362.03125 L 241.25 358.46875 L 248.21875 355.96875 L 254.09375 349.1875 L 258.5625 349.1875 L 264.65625 340.4375 L 266.78125 335.4375 L 267 335.375 z "
       id="path21943"
       transform="translate(205.14285,190.00502)" />
    <path
       style="fill:none;fill-rule:evenodd;stroke:#000000;stroke-width:1;stroke-linecap:butt;stroke-linejoin:miter;stroke-opacity:1;stroke-miterlimit:4;stroke-dasharray:none"
       d="M 289.40625 189 L 290.21875 190.0625 L 293.0625 190.0625 L 294.84375 192.1875 L 293.4375 195.71875 L 299.4375 198.90625 L 306.875 201.03125 L 312.90625 201.03125 L 317.15625 203.875 L 315.03125 205.65625 L 320.71875 207.0625 L 329.9375 210.25 L 332.0625 207.40625 L 332.40625 204.21875 L 327.4375 203.53125 L 318.59375 200.34375 L 316.46875 197.84375 L 321.78125 196.0625 L 329.21875 199.96875 L 332.0625 196.4375 L 332.0625 193.59375 L 330.28125 193.25 L 332.40625 191.125 L 335.25 191.46875 L 342.6875 197.5 L 345.875 190.0625 L 347.65625 183.6875 L 348 178.34375 L 349.78125 171.625 L 355.4375 170.5625 L 359.34375 167.71875 L 362.15625 166.65625 L 362.53125 162.40625 L 372.4375 152.84375 L 376.34375 150.71875 L 377.75 145.03125 L 382.875 142.625 L 382.5 142.21875 L 383.5625 139.53125 L 379.65625 139.90625 L 374.65625 138.28125 L 372.6875 134 L 368.40625 131.84375 L 370.90625 126.84375 L 369.8125 124.1875 L 364.65625 123.28125 L 362.5 122.5625 L 356.4375 125.96875 L 347.5 125.0625 L 345.34375 123.03125 L 343.71875 123.71875 L 342.9375 125.25 L 341.4375 125.25 L 341.4375 119.9375 L 336.125 122.21875 L 333.34375 125.25 L 333.34375 127 L 330.8125 127.25 L 328.5625 131.8125 L 329.5625 133.5625 L 325.53125 137.875 L 324.75 140.65625 L 323 144.1875 L 320.96875 151.5 L 319.21875 153.78125 L 316.9375 154.03125 C 316.71653 155.54648 316.42175 156.84318 316.09375 157.96875 C 315.76575 159.09432 315.39656 160.05062 315 160.84375 C 314.60344 161.63688 314.17665 162.26335 313.75 162.78125 C 313.32335 163.29915 312.91827 163.70011 312.5 164 C 311.66347 164.59978 310.85341 164.83522 310.28125 164.90625 C 309.70909 164.97728 309.34375 164.875 309.34375 164.875 L 305.8125 167.40625 L 305.5625 169.6875 L 299.75 173.46875 L 296.71875 173.46875 L 295.21875 176.75 L 292.1875 182.0625 L 290.9375 182.3125 L 289.40625 189 z "
       id="path14899"
       transform="translate(205.14285,190.00502)" />
    <path
       style="fill:#70b400;fill-rule:evenodd;stroke:#000000;stroke-width:2;stroke-linecap:butt;stroke-linejoin:miter;stroke-opacity:1;stroke-miterlimit:4;stroke-dasharray:none;fill-opacity:0.25139666"
       d="M 343.9375 67.21875 C 333.04466 69.361605 336.0625 77.9375 336.0625 77.9375 L 334.09375 83.09375 C 326.95089 90.058038 320 83.8125 320 83.8125 L 317.15625 86.3125 L 313.75 87.03125 L 310.53125 85.0625 L 309.46875 83.65625 L 303.03125 83.65625 L 302.15625 85.4375 L 299.8125 85.0625 L 289.28125 81.6875 L 287.15625 83.46875 L 282.5 82.9375 L 280.90625 84.90625 L 277.5 84.1875 L 273.5625 82.40625 L 270.71875 84.53125 L 266.25 84.1875 L 259.46875 79.53125 L 255.71875 79.1875 L 254.8125 77.21875 L 252.6875 77.5625 L 251.53125 83.0625 L 254.0625 92.15625 L 254.5625 112.625 L 253.03125 115.65625 L 250.78125 118.40625 L 246.8125 118.40625 L 247.0625 123.40625 L 249.84375 125.15625 L 252.09375 123.40625 L 254.59375 126.15625 L 253.84375 127.90625 L 252.1875 127.90625 L 254.5625 141.59375 L 256.59375 142.6875 L 267.875 142.6875 L 270.625 140.9375 L 287.40625 141.4375 L 291.1875 146.1875 L 292.4375 149.96875 L 297.9375 149.96875 L 299.9375 152.21875 L 308.96875 149.71875 L 313.21875 150.21875 L 314.46875 148.96875 L 315.96875 150.21875 L 318.5 149.21875 L 318.25 145.1875 L 317.5 138.4375 L 320.75 138.9375 L 328.6875 132 L 328.5625 131.8125 L 330.8125 127.25 L 333.34375 127 L 333.34375 125.25 L 336.125 122.21875 L 341.4375 119.9375 L 341.4375 125.25 L 342.9375 125.25 L 343.71875 123.71875 L 345.34375 123.03125 L 344.65625 122.40625 L 352.6875 116.15625 L 354.46875 116.15625 L 355.90625 112.9375 L 360.71875 112.03125 L 363.21875 108.09375 L 359.8125 104.34375 L 358.40625 101.84375 L 360.90625 94 L 365.53125 96.5 L 366.25 99.1875 L 371.4375 99.90625 L 373.21875 96.6875 L 375.34375 85.25 L 372.84375 84.90625 L 364.28125 88.28125 L 358.9375 83.8125 L 356.0625 85.96875 L 347.15625 77.5625 L 346.96875 73.46875 L 348.5625 71.3125 L 343.9375 67.21875 z "
       id="path2194"
       transform="translate(205.14285,190.00502)" />
    <path
       style="fill:#ffa97f;fill-rule:evenodd;stroke:#000000;stroke-width:2;stroke-linecap:butt;stroke-linejoin:miter;stroke-opacity:1;stroke-miterlimit:4;stroke-dasharray:none;fill-opacity:0.2793296"
       d="M 151.1875,427.90625 L 152.78125,427.03125 L 154.3125,416.90625 L 157.84375,410.34375 L 159.59375,401.78125 L 164.65625,386.875 L 167.9375,383.09375 L 170.96875,377.53125 L 173.75,380.3125 L 175.25,380.3125 L 171.46875,373.75 L 176.53125,370.4375 L 180.8125,368.4375 L 183.59375,366.15625 L 185.375,362.375 L 187.875,359.34375 L 189.65625,355.8125 L 193.1875,353.53125 L 196.96875,350.25 L 199.25,347.46875 L 199.25,343.6875 L 201.28125,340.90625 L 201.28125,338.875 L 199.5,339.65625 L 193.4375,338.375 L 191.15625,334.84375 L 190.65625,332.5625 L 194.46875,333.34375 L 196.21875,333.34375 L 197.21875,329.78125 L 200.5,327.78125 L 199.25,326.5 L 198.5,324.25 L 200.5,322.96875 L 206.5625,315.40625 L 212.125,311.875 L 211.625,309.34375 L 214.15625,308.0625 L 215.40625,306.0625 L 213.65625,304.53125 L 217.4375,301.25 L 219.96875,302 L 224.5,300.75 L 226.53125,297.21875 L 225.53125,294.9375 L 222.21875,294.6875 L 221.46875,290.65625 L 226.53125,285.59375 L 226.78125,279.78125 L 230.8125,274.75 L 238.15625,271.71875 L 243.4375,264.90625 L 245.46875,263.625 L 249,250.5 L 252.78125,250.5 L 253.28125,248.21875 L 254.8125,241.65625 L 256.3125,239.375 L 256.84375,238.375 L 255.8125,232.8125 L 251.03125,229.78125 L 239.40625,225.5 L 237.375,226 L 235.125,228.28125 L 230.8125,228.28125 L 229.0625,229.78125 L 221.96875,229.53125 L 219.46875,226.25 L 219.71875,221.71875 L 212.625,217.40625 L 207.09375,217.40625 L 205.5625,215.65625 L 205.3125,219.6875 L 200.78125,219.4375 L 200.25,215.65625 L 195.96875,214.375 L 193.1875,216.15625 L 192.6875,218.1875 L 187.125,218.1875 L 182.34375,214.875 L 175.78125,214.875 L 171.96875,210.09375 L 165.15625,209.75 C 158.81843,210.5295 159.59375,226.5 159.59375,226.5 L 157.84375,229.03125 L 161.625,233.3125 L 162.375,235.84375 C 166.66815,247.71304 161.375,251.5 161.375,251.5 L 161.375,255.8125 L 158.09375,259.34375 C 152.79046,269.44527 160.625,269.4375 160.625,269.4375 L 161.625,275 L 158.59375,278.03125 L 154.5625,278.03125 L 150.5,282.8125 L 150.25,285.84375 L 148,286.875 C 144.96954,309.09837 135.09375,303.53125 135.09375,303.53125 L 133.84375,302.53125 L 133.03125,302.4375 L 131.8125,309.09375 L 129.3125,310.59375 L 125,315.40625 L 124,313.375 L 118.6875,312.875 L 118.4375,312.71875 L 118.4375,329.53125 L 117.1875,331.0625 L 117.4375,334.84375 L 107.59375,352.53125 L 107.59375,360.34375 L 105.8125,361.375 L 105.0625,363.625 L 102.53125,364.65625 L 99.5,367.15625 L 100.5,374.75 L 98,376.5 L 98,377.03125 L 94.6875,380.8125 L 94.4375,390.65625 L 91.65625,392.4375 C 91.656253,392.4375 91.471874,395.36657 91.40625,395.71875 C 91.313303,396.21756 91.146188,396.436 91.03125,396.875 L 96.46875,399.75 L 100.75,399.75 L 102.78125,401.78125 L 106.8125,403.03125 L 111.625,405.3125 L 114.15625,404.8125 L 114.40625,403.53125 L 118.6875,403.28125 L 124,401 L 128.03125,401 L 133.59375,399 L 136.875,396.71875 L 139.90625,399.5 L 144.96875,398.5 L 147.75,403.28125 L 144.4375,410.09375 L 148.25,413.625 L 149.5,418.4375 L 147.21875,426 L 151.28125,427.53125 L 151.1875,427.90625 z "
       id="path2221"
       transform="translate(205.14285,190.00502)"
       sodipodi:nodetypes="cccccccccccccccccccccccccccccccccccccccccccccccccccccccccccccccccccccccccccccccccccccccccccccccccccccccccccccccccccccccccscccccccccccccccccccccc" />
    <path
       style="fill:none;fill-rule:evenodd;stroke:#000000;stroke-width:1;stroke-linecap:butt;stroke-linejoin:miter;stroke-opacity:1;stroke-miterlimit:4;stroke-dasharray:none"
       d="M 172.9375 249.21875 L 165.5 252.4375 L 165.125 254.5625 L 159.75 257.5625 L 158.09375 259.34375 C 152.79046 269.44527 160.625 269.4375 160.625 269.4375 L 161.625 275 L 158.59375 278.03125 L 154.5625 278.03125 L 150.5 282.8125 L 150.25 285.84375 L 148.90625 286.46875 L 151.6875 290 L 161.9375 292.125 L 171.875 291.0625 L 181.4375 287.875 L 187.46875 285.71875 L 191.71875 289.625 L 194.5625 288.21875 L 194.1875 285.375 L 203.0625 283.96875 L 203.40625 281.84375 L 207.65625 282.53125 L 209.09375 285.375 L 221.53125 291.0625 L 221.46875 290.65625 L 226.53125 285.59375 L 226.78125 279.78125 L 230.8125 274.75 L 238.15625 271.71875 L 243.4375 264.90625 L 244.09375 264.5 L 238.125 255.25 L 236.71875 259.15625 L 234.9375 259.15625 L 230 263.40625 L 227.5 264.46875 L 224.6875 258.09375 L 220.40625 258.09375 L 216.15625 257.375 L 213.6875 261.28125 L 211.90625 259.5 L 209.4375 259.5 L 203.40625 260.9375 L 198.4375 261.28125 L 198.8125 258.8125 L 196.3125 256.3125 L 199.5 252.4375 L 200.21875 249.9375 L 195.25 249.9375 L 193.125 251.34375 L 183.90625 251.71875 L 177.1875 249.21875 L 172.9375 249.21875 z "
       id="path16885"
       transform="translate(205.14285,190.00502)" />
    <path
       style="fill:none;fill-rule:evenodd;stroke:#000000;stroke-width:1;stroke-linecap:butt;stroke-linejoin:miter;stroke-opacity:1;stroke-miterlimit:4;stroke-dasharray:none"
       d="M 203.0625 309.84375 L 195.96875 310.53125 L 189.25 313.375 L 182.84375 310.53125 L 175.78125 310.1875 L 168.3125 310.53125 L 163.375 312.3125 L 157.6875 314.09375 L 154.15625 315.5 L 152.03125 319.40625 L 149.90625 321.53125 L 146.34375 322.9375 L 138.21875 320.46875 L 136.4375 315.84375 L 131.46875 314.4375 L 131.46875 311.59375 L 130.34375 309.96875 L 129.3125 310.59375 L 125 315.40625 L 124 313.375 L 118.6875 312.875 L 118.4375 312.71875 L 118.4375 325.59375 L 123.3125 326.5 L 125.09375 324.375 L 129.34375 327.1875 L 127.9375 329.6875 L 132.875 335.34375 L 135.03125 330.03125 L 140.6875 328.625 L 141.75 325.78125 L 145.65625 326.5 L 154.5 331.4375 L 160.53125 332.5 L 162.65625 330.75 L 166.1875 333.5625 L 172.21875 334.28125 L 176.125 333.21875 L 179.65625 336.75 L 183.21875 337.125 L 188.875 333.21875 L 190.78125 333.125 L 190.65625 332.5625 L 192.8125 333 L 196.375 332.8125 L 197.21875 329.78125 L 200.5 327.78125 L 199.25 326.5 L 198.5 324.25 L 200.5 322.96875 L 206.5625 315.40625 L 210.5625 312.84375 L 203.0625 309.84375 z "
       id="path16892"
       transform="translate(205.14285,190.00502)" />
    <path
       style="fill:none;fill-rule:evenodd;stroke:#000000;stroke-width:1;stroke-linecap:butt;stroke-linejoin:miter;stroke-opacity:1;stroke-miterlimit:4;stroke-dasharray:none"
       d="M 190.78125 333.125 L 188.875 333.21875 L 183.21875 337.125 L 179.65625 336.75 L 176.125 333.21875 L 172.21875 334.28125 L 166.1875 333.5625 L 162.65625 330.75 L 160.53125 332.5 L 154.5 331.4375 L 145.65625 326.5 L 141.75 325.78125 L 140.6875 328.625 L 135.03125 330.03125 L 132.875 335.34375 L 127.9375 329.6875 L 129.34375 327.1875 L 125.09375 324.375 L 123.3125 326.5 L 118.4375 325.59375 L 118.4375 329.53125 L 117.1875 331.0625 L 117.4375 334.84375 L 111.78125 345 L 114.46875 348.09375 L 119.78125 350.9375 L 114.8125 351.28125 L 112.34375 354.125 L 116.25 355.1875 L 113.40625 357.65625 L 117.3125 359.4375 L 120.5 364.0625 L 131.125 361.5625 L 138.5625 356.59375 L 146.71875 358.375 L 148.125 355.1875 L 152.375 354.46875 L 157 350.9375 L 161.59375 354.46875 L 166.5625 354.84375 L 169.03125 352.71875 L 171.875 349.53125 L 174.34375 349.53125 L 178.25 352.34375 L 190.15625 355.5 L 193.1875 353.53125 L 196.96875 350.25 L 199.25 347.46875 L 199.25 343.6875 L 201.28125 340.90625 L 201.28125 338.875 L 199.5 339.65625 L 193.4375 338.375 L 191.15625 334.84375 L 190.78125 333.125 z "
       id="path16899"
       transform="translate(205.14285,190.00502)" />
    <path
       style="fill:none;fill-rule:evenodd;stroke:#000000;stroke-width:1;stroke-linecap:butt;stroke-linejoin:miter;stroke-opacity:1;stroke-miterlimit:4;stroke-dasharray:none"
       d="M 221.53125 291.0625 L 209.09375 285.375 L 207.65625 282.53125 L 203.40625 281.84375 L 203.0625 283.96875 L 194.1875 285.375 L 194.5625 288.21875 L 191.71875 289.625 L 187.46875 285.71875 L 181.4375 287.875 L 171.875 291.0625 L 161.9375 292.125 L 151.6875 290 L 148.90625 286.46875 L 148 286.875 C 144.96954 309.09837 135.09375 303.53125 135.09375 303.53125 L 133.84375 302.53125 L 133.03125 302.4375 L 131.8125 309.09375 L 130.34375 309.96875 L 131.46875 311.59375 L 131.46875 314.4375 L 136.4375 315.84375 L 138.21875 320.46875 L 146.34375 322.9375 L 149.90625 321.53125 L 152.03125 319.40625 L 154.15625 315.5 L 157.6875 314.09375 L 163.375 312.3125 L 168.3125 310.53125 L 175.78125 310.1875 L 182.84375 310.53125 L 189.25 313.375 L 195.96875 310.53125 L 203.0625 309.84375 L 210.5625 312.84375 L 212.125 311.875 L 211.625 309.34375 L 214.15625 308.0625 L 215.40625 306.0625 L 213.65625 304.53125 L 217.4375 301.25 L 219.96875 302 L 224.5 300.75 L 226.53125 297.21875 L 225.53125 294.9375 L 222.21875 294.6875 L 221.53125 291.0625 z "
       id="path16890"
       transform="translate(205.14285,190.00502)" />
    <path
       style="fill:none;fill-rule:evenodd;stroke:#000000;stroke-width:1;stroke-linecap:butt;stroke-linejoin:miter;stroke-opacity:1;stroke-miterlimit:4;stroke-dasharray:none"
       d="M 190.15625 355.5 L 178.25 352.34375 L 174.34375 349.53125 L 171.875 349.53125 L 169.03125 352.71875 L 166.5625 354.84375 L 161.59375 354.46875 L 157 350.9375 L 152.375 354.46875 L 148.125 355.1875 L 146.71875 358.375 L 138.5625 356.59375 L 131.125 361.5625 L 120.5 364.0625 L 117.3125 359.4375 L 113.40625 357.65625 L 116.25 355.1875 L 112.34375 354.125 L 114.8125 351.28125 L 119.78125 350.9375 L 114.46875 348.09375 L 111.78125 345 L 107.59375 352.53125 L 107.59375 360.34375 L 105.8125 361.375 L 105.0625 363.625 L 102.53125 364.65625 L 99.5 367.15625 L 100.5 374.75 L 98 376.5 L 98 377.03125 L 94.6875 380.8125 L 94.4375 390.65625 L 91.65625 392.4375 C 91.656253 392.4375 91.471874 395.36657 91.40625 395.71875 C 91.313303 396.21756 91.146188 396.436 91.03125 396.875 L 96.46875 399.75 L 100.75 399.75 L 102.78125 401.78125 L 106.8125 403.03125 L 111.625 405.3125 L 114.15625 404.8125 L 114.40625 403.53125 L 118.6875 403.28125 L 124 401 L 128.03125 401 L 133.59375 399 L 136.875 396.71875 L 139.90625 399.5 L 144.96875 398.5 L 147.75 403.28125 L 144.4375 410.09375 L 148.25 413.625 L 149.5 418.4375 L 147.21875 426 L 151.28125 427.53125 L 151.1875 427.90625 L 152.78125 427.03125 L 154.3125 416.90625 L 157.84375 410.34375 L 159.59375 401.78125 L 164.65625 386.875 L 167.9375 383.09375 L 170.96875 377.53125 L 173.75 380.3125 L 175.25 380.3125 L 171.46875 373.75 L 176.53125 370.4375 L 180.8125 368.4375 L 183.59375 366.15625 L 185.375 362.375 L 187.875 359.34375 L 189.65625 355.8125 L 190.15625 355.5 z "
       id="path16901"
       transform="translate(205.14285,190.00502)" />
    <path
       style="fill:none;fill-rule:evenodd;stroke:#000000;stroke-width:1;stroke-linecap:butt;stroke-linejoin:miter;stroke-opacity:1;stroke-miterlimit:4;stroke-dasharray:none"
       d="M 267 335.375 L 275.34375 319.75 L 273.9375 318.6875 L 271.4375 319.40625 L 270.03125 316.5625 L 268.25 316.5625 L 264.375 317.96875 L 259.75 315.84375 L 260.46875 313.375 L 256.21875 314.09375 L 254.4375 317.625 L 250.1875 319.75 L 245.9375 313.375 L 246.65625 309.46875 L 245.21875 309.125 L 243.09375 305.5625 L 239.1875 302.375 L 236 303.4375 L 231.0625 302.03125 L 229.28125 297.4375 L 226.1875 296.40625 L 226.53125 297.21875 L 224.5 300.75 L 219.96875 302 L 217.4375 301.25 L 213.65625 304.53125 L 215.40625 306.0625 L 214.15625 308.0625 L 211.625 309.34375 L 212.125 311.875 L 206.5625 315.40625 L 200.5 322.96875 L 198.5 324.25 L 199.25 326.5 L 200.5 327.78125 L 197.21875 329.78125 L 196.21875 333.34375 L 194.46875 333.34375 L 190.65625 332.5625 L 191.15625 334.84375 L 193.4375 338.375 L 199.5 339.65625 L 201.28125 338.875 L 201.28125 340.90625 L 199.25 343.6875 L 199.25 347.46875 L 196.96875 350.25 L 195.78125 351.28125 L 199.5 352.34375 L 201.625 350.9375 L 202 356.25 L 204.46875 365.8125 L 207.65625 355.90625 L 213.34375 351.65625 L 213.6875 348.09375 L 221.125 344.5625 L 223.625 345.625 L 222.90625 348.46875 L 224.3125 351.65625 L 225.03125 355.53125 L 222.5625 357.3125 L 219.71875 358.375 L 216.53125 363.6875 L 221.125 368.65625 L 225.75 366.875 L 229.28125 367.25 L 235.65625 373.625 L 240.34375 371.84375 L 242.6875 370.4375 L 236.0625 362.03125 L 241.25 358.46875 L 248.21875 355.96875 L 254.09375 349.1875 L 258.5625 349.1875 L 264.53125 340.625 L 264.375 340.3125 L 266.03125 337.21875 L 266.78125 335.4375 L 267 335.375 z "
       id="path15873"
       transform="translate(205.14285,190.00502)" />
    <path
       style="fill:none;fill-rule:evenodd;stroke:#000000;stroke-width:1;stroke-linecap:butt;stroke-linejoin:miter;stroke-opacity:1;stroke-miterlimit:4;stroke-dasharray:none"
       d="M 233.75 371.71875 L 228.5625 375.03125 L 228.5625 380.71875 L 224.6875 383.90625 L 216.53125 387.09375 L 214.03125 384.96875 L 210.5 387.4375 L 209.09375 392.03125 L 203.0625 395.9375 L 203.75 397.71875 L 200.5625 397.71875 L 199.5 394.53125 L 194.90625 395.25 L 193.5 398.0625 L 190.65625 399.5 L 192.0625 401.625 L 189.25 406.21875 L 188.53125 409.75 L 185.6875 409.75 L 182.5 411.1875 L 175.40625 414.375 L 169.03125 414.71875 L 167.625 418.625 L 172.59375 418.28125 L 172.9375 421.46875 L 172.59375 427.125 L 171.53125 429.25 L 173.65625 430.6875 L 175.78125 428.1875 L 181.4375 433.5 L 181.1875 434.65625 L 181.3125 434.59375 L 185.125 438.375 L 185.625 440.65625 L 183.34375 444.6875 L 188.90625 453.03125 L 196.96875 453.53125 L 198 450 L 200 446.21875 L 203.03125 446.96875 L 211.78125 454.6875 L 221.96875 449 L 221.96875 446.6875 L 225.90625 444.53125 L 228.40625 443.09375 L 231.59375 442.75 L 233.5625 436.3125 L 235 434.53125 L 231.25 431.5 L 230.90625 429.1875 C 229.83483 423.83037 238.5625 420.59375 238.5625 420.59375 L 238.5625 420.78125 L 241.25 417.21875 L 245.90625 416.3125 L 247.5 419.34375 L 251.96875 417.9375 L 254.46875 417.9375 L 262.84375 408.65625 C 267.30803 401.87055 256.78125 397.03125 256.78125 397.03125 L 251.4375 391.15625 L 248.03125 390.96875 L 243.03125 386.5 L 239.65625 386.84375 L 234.28125 386.15625 L 234.65625 383.46875 L 236.78125 379.53125 L 237.84375 376.84375 L 240 375.78125 L 240.34375 371.84375 L 235.65625 373.625 L 233.75 371.71875 z "
       id="path15882"
       transform="translate(205.14285,190.00502)" />
    <path
       style="fill:none;fill-rule:evenodd;stroke:#000000;stroke-width:1;stroke-linecap:butt;stroke-linejoin:miter;stroke-opacity:1;stroke-miterlimit:4;stroke-dasharray:none"
       d="M 221.125 344.5625 L 213.6875 348.09375 L 213.34375 351.65625 L 207.65625 355.90625 L 204.46875 365.8125 L 202 356.25 L 201.625 350.9375 L 199.5 352.34375 L 195.78125 351.28125 L 193.1875 353.53125 L 189.65625 355.8125 L 187.875 359.34375 L 185.375 362.375 L 183.59375 366.15625 L 180.8125 368.4375 L 176.53125 370.4375 L 171.46875 373.75 L 175.25 380.3125 L 173.75 380.3125 L 170.96875 377.53125 L 167.9375 383.09375 L 164.65625 386.875 L 159.59375 401.78125 L 157.84375 410.34375 L 154.3125 416.90625 L 152.78125 427.03125 L 151.1875 427.90625 L 150 433.09375 L 148 439.40625 L 148.75 441.90625 L 146.46875 446.96875 L 147.75 448.25 L 151.03125 442.4375 L 153.78125 443.1875 L 152.28125 446.71875 L 152.09375 449.75 L 156.0625 447.21875 L 159.09375 451 L 162.375 447.96875 L 162.375 446.21875 L 165.65625 442.4375 L 165.90625 438.125 L 167.4375 437.375 L 168.9375 439.90625 L 181.1875 434.65625 L 181.4375 433.5 L 175.78125 428.1875 L 173.65625 430.6875 L 171.53125 429.25 L 172.59375 427.125 L 172.9375 421.46875 L 172.59375 418.28125 L 167.625 418.625 L 169.03125 414.71875 L 175.40625 414.375 L 182.5 411.1875 L 185.6875 409.75 L 188.53125 409.75 L 189.25 406.21875 L 192.0625 401.625 L 190.65625 399.5 L 193.5 398.0625 L 194.90625 395.25 L 199.5 394.53125 L 200.5625 397.71875 L 203.75 397.71875 L 203.0625 395.9375 L 209.09375 392.03125 L 210.5 387.4375 L 214.03125 384.96875 L 216.53125 387.09375 L 224.6875 383.90625 L 228.5625 380.71875 L 228.5625 375.03125 L 233.75 371.71875 L 229.28125 367.25 L 225.75 366.875 L 221.125 368.65625 L 216.53125 363.6875 L 219.71875 358.375 L 222.5625 357.3125 L 225.03125 355.53125 L 224.3125 351.65625 L 222.90625 348.46875 L 223.625 345.625 L 221.125 344.5625 z "
       id="path15877"
       transform="translate(205.14285,190.00502)" />
    <path
       style="fill:none;fill-rule:evenodd;stroke:#000000;stroke-width:1;stroke-linecap:butt;stroke-linejoin:miter;stroke-opacity:1;stroke-miterlimit:4;stroke-dasharray:none"
       d="M 126.78125 422.46875 L 124.75 423.75 L 123.5 426.53125 L 120.96875 426.53125 L 119.4375 427.78125 L 115.65625 430.0625 L 114.65625 431.3125 L 112.875 432.5625 L 110.34375 427.53125 L 108.09375 427.53125 L 108.59375 430.5625 L 107.59375 432.5625 L 102.78125 428.78125 L 101.28125 428.78125 L 99.5 431.5625 L 96.21875 431.0625 L 94.4375 432.5625 L 98 434.09375 L 100 436.625 L 97.71875 439.40625 L 92.4375 437.625 L 91.40625 440.15625 L 89.90625 446.21875 L 90.15625 449 L 93.6875 452.53125 L 94.4375 454.03125 L 91.40625 454.8125 L 91.15625 455.0625 L 86.125 456.3125 L 84.84375 459.59375 L 86.125 461.875 L 83.59375 462.625 L 79.03125 458.09375 L 78.28125 453.28125 L 76.53125 454.5625 L 74.5 454.5625 L 72.71875 456.5625 L 68.1875 460.09375 L 71.71875 459.09375 L 71.71875 462.875 L 65.65625 463.90625 C 65.65625 463.90625 68.956056 464.65371 70.21875 464.90625 C 71.481441 465.15879 72.489843 465.40626 73.5 465.40625 C 74.510152 465.40625 76.000002 465.65626 76 465.65625 L 77.78125 468.1875 C 77.78125 468.1875 78.79727 468.18751 80.3125 468.1875 C 81.070115 468.1875 81.744924 468.49683 82.25 468.8125 C 82.755076 469.12817 83.093751 469.4375 83.09375 469.4375 L 82.0625 472.96875 L 80.5625 475 L 78.03125 477.03125 L 77.53125 479.3125 C 77.53125 479.3125 79.302346 480.80742 80.3125 481.3125 C 81.322653 481.81757 81.831061 481.80997 83.09375 482.0625 C 83.725096 482.18877 84.091529 482.5284 84.3125 482.8125 C 84.533471 483.0966 84.593751 483.34375 84.59375 483.34375 L 87.125 483.59375 L 88.90625 481.5625 L 90.65625 483.34375 L 92.6875 485.09375 L 94.6875 484.09375 L 96.46875 482.59375 L 97.46875 481.3125 L 100 482.3125 L 101.3125 483.8125 L 102.78125 483.09375 L 112.875 483.34375 L 114.15625 485.625 L 119.4375 485.625 L 123.25 487.125 L 125.5 488.125 L 128.03125 477.03125 L 129.03125 470.875 L 127.78125 471.21875 L 127.53125 466.40625 L 124.25 465.90625 L 124.5 459.59375 L 129.0625 451.78125 L 128.78125 449.75 L 126.28125 449.25 L 125.25 447.21875 L 128.53125 441.65625 L 124.75 437.875 L 126.03125 435.09375 L 130.8125 430.8125 L 129.3125 429.28125 L 132.59375 424.5 L 126.78125 422.46875 z "
       id="path2206"
       transform="translate(205.14285,190.00502)" />
    <path
       style="fill:none;fill-rule:evenodd;stroke:#000000;stroke-width:1;stroke-linecap:butt;stroke-linejoin:miter;stroke-opacity:1;stroke-miterlimit:4;stroke-dasharray:none"
       d="M 145.25 456.53125 L 148.75 458.59375 L 151.53125 462.625 L 152.78125 465.90625 L 153.78125 469.4375 L 152.03125 472.21875 L 150.5 476.53125 L 151.78125 478.03125 L 151.78125 482.59375 L 153.28125 483.84375 L 152.78125 486.125 L 148 492.6875 L 149.125 505.15625 L 149.28125 505.0625 L 148.9375 497.03125 L 154.28125 494.34375 L 157.15625 496.5 L 166.96875 489.71875 L 170.71875 489 L 173.03125 481.6875 L 175.34375 480.0625 C 175.34374 480.06249 177.13393 480.06697 177.3125 480.78125 C 177.49107 481.49554 180 482.03125 180 482.03125 L 189.8125 478.28125 L 196.78125 473.28125 L 199.28125 472.21875 L 199.65625 466.15625 L 202.15625 460.0625 L 211.78125 454.6875 L 203.03125 446.96875 L 200 446.21875 L 198 450 L 196.96875 453.53125 L 188.90625 453.03125 L 183.34375 444.6875 L 185.625 440.65625 L 185.125 438.375 L 181.3125 434.59375 L 168.9375 439.90625 L 167.4375 437.375 L 165.90625 438.125 L 165.65625 442.4375 L 162.375 446.21875 L 162.375 447.96875 L 159.09375 451 L 156.0625 447.21875 L 149.25 451.53125 L 146.46875 452.53125 L 146.46875 456.0625 L 145.25 456.53125 z "
       id="path11945"
       transform="translate(205.14285,190.00502)" />
    <path
       style="fill:none;fill-rule:evenodd;stroke:#000000;stroke-width:1;stroke-linecap:butt;stroke-linejoin:miter;stroke-opacity:1;stroke-miterlimit:4;stroke-dasharray:none"
       d="M 77.875 477.75 L 66.0625 477.9375 L 59.28125 477.21875 L 55.71875 475.4375 L 53.21875 472.21875 L 52.03125 472.3125 C 52.030506 472.31671 51.96875 472.5625 51.96875 472.5625 L 45 484.1875 L 44.28125 489 L 41.4375 491.5 L 39.8125 491.84375 L 38.5625 490.59375 L 36.96875 492.21875 L 37.15625 494 L 40.1875 493.8125 L 42.3125 497.21875 L 42.15625 507.03125 L 35 523.28125 L 33.9375 524.1875 L 30.34375 524.90625 L 27.5 528.65625 L 25.90625 533.8125 L 24.46875 535.59375 L 15.34375 540.59375 L 13.5625 543.09375 L 12.84375 545.59375 L 28.5625 548.65625 L 32.3125 546.6875 L 36.0625 549.34375 L 40.53125 548.46875 L 40.90625 544.53125 L 43.75 545.96875 L 47.15625 548.09375 L 59.28125 546.3125 L 63.03125 543.46875 L 63.75 544.71875 L 64.40625 541.40625 L 63.90625 532.34375 L 66.9375 529.5625 L 66.40625 527.03125 L 68.9375 527.03125 L 69.6875 525.5 L 67.9375 522.46875 L 72.46875 524 L 77.28125 519.6875 L 76 516.15625 L 79.5625 517.4375 L 82.0625 513.90625 L 84.34375 514.90625 L 85.09375 513.125 L 79.5625 510.875 L 80.3125 508.84375 L 84.09375 507.84375 L 86.625 507.84375 L 87.125 505.0625 L 88.65625 501.53125 L 90.40625 502.53125 L 92.6875 505.0625 L 94.6875 503.53125 L 94.6875 500 L 94.6875 497.21875 L 96.46875 495.96875 L 97.71875 493.9375 L 98.75 490.40625 L 100.5 488.65625 L 102.28125 486.875 L 101.78125 484.34375 L 100 482.3125 L 97.46875 481.3125 L 96.46875 482.59375 L 94.6875 484.09375 L 92.6875 485.09375 L 90.65625 483.34375 L 88.90625 481.5625 L 87.125 483.59375 L 84.59375 483.34375 C 84.593751 483.34375 84.533471 483.0966 84.3125 482.8125 C 84.091529 482.5284 83.725096 482.18877 83.09375 482.0625 C 81.831061 481.80997 81.322653 481.81757 80.3125 481.3125 C 79.302346 480.80742 77.53125 479.3125 77.53125 479.3125 L 77.875 477.75 z "
       id="path7081"
       transform="translate(205.14285,190.00502)" />
    <path
       style="fill:none;fill-rule:evenodd;stroke:#000000;stroke-width:1;stroke-linecap:butt;stroke-linejoin:miter;stroke-opacity:1;stroke-miterlimit:4;stroke-dasharray:none"
       d="M 119.5 427.71875 L 119.28125 422.9375 L 121.78125 421.15625 L 119.65625 420.0625 L 119.28125 417.5625 L 113.9375 416.15625 L 113.21875 421.15625 L 106.78125 420.0625 L 105 422.9375 L 99.65625 417.5625 L 102.84375 414.71875 L 99.65625 412.21875 L 101.78125 409 L 105.34375 407.21875 L 102.78125 401.78125 L 102.75 401.75 L 100.75 399.75 L 96.46875 399.75 L 91.03125 396.875 C 89.299617 403.48893 85.34375 403.78125 85.34375 403.78125 L 83.40625 418.46875 L 69.8125 432.9375 C 69.812503 432.93751 68.745536 433.83036 68.03125 434.1875 C 67.316966 434.54465 64.46875 434.53125 64.46875 434.53125 L 63.75 437.21875 C 56.144566 449.06908 52.108613 471.8745 52.03125 472.3125 L 53.21875 472.21875 L 55.71875 475.4375 L 59.28125 477.21875 L 66.0625 477.9375 L 77.875 477.75 L 78.03125 477.03125 L 80.5625 475 L 82.0625 472.96875 L 83.09375 469.4375 C 83.093751 469.4375 82.755076 469.12817 82.25 468.8125 C 81.744924 468.49683 81.070115 468.1875 80.3125 468.1875 C 78.79727 468.18751 77.78125 468.1875 77.78125 468.1875 L 76 465.65625 C 76.000002 465.65626 74.510152 465.40625 73.5 465.40625 C 72.489843 465.40626 71.481441 465.15879 70.21875 464.90625 C 68.956056 464.65371 65.65625 463.90625 65.65625 463.90625 L 71.71875 462.875 L 71.71875 459.09375 L 68.1875 460.09375 L 72.71875 456.5625 L 74.5 454.5625 L 76.53125 454.5625 L 78.28125 453.28125 L 79.03125 458.09375 L 83.59375 462.625 L 86.125 461.875 L 84.84375 459.59375 L 86.125 456.3125 L 91.15625 455.0625 L 91.40625 454.8125 L 94.4375 454.03125 L 93.6875 452.53125 L 90.15625 449 L 89.90625 446.21875 L 91.40625 440.15625 L 92.4375 437.625 L 97.71875 439.40625 L 100 436.625 L 98 434.09375 L 94.4375 432.5625 L 96.21875 431.0625 L 99.5 431.5625 L 101.28125 428.78125 L 102.78125 428.78125 L 107.59375 432.5625 L 108.59375 430.5625 L 108.09375 427.53125 L 110.34375 427.53125 L 112.875 432.5625 L 114.65625 431.3125 L 115.65625 430.0625 L 119.4375 427.78125 L 119.5 427.71875 z "
       id="path7078"
       transform="translate(205.14285,190.00502)" />
    <path
       style="fill:#ffbb4f;fill-rule:evenodd;stroke:#000000;stroke-width:2;stroke-linecap:butt;stroke-linejoin:miter;stroke-opacity:1;stroke-miterlimit:4;stroke-dasharray:none;fill-opacity:0.34078214"
       d="M 341.4375 119.9375 L 336.125 122.21875 L 333.34375 125.25 L 333.34375 127 L 330.8125 127.25 L 328.5625 131.8125 L 329.5625 133.5625 L 325.53125 137.875 L 324.75 140.65625 L 323 144.1875 L 320.96875 151.5 L 319.21875 153.78125 L 316.9375 154.03125 C 316.71653 155.54648 316.42175 156.84318 316.09375 157.96875 C 315.76575 159.09432 315.39656 160.05062 315 160.84375 C 314.60344 161.63688 314.17665 162.26335 313.75 162.78125 C 313.32335 163.29915 312.91827 163.70011 312.5 164 C 311.66347 164.59978 310.85341 164.83522 310.28125 164.90625 C 309.70909 164.97728 309.34375 164.875 309.34375 164.875 L 305.8125 167.40625 L 305.5625 169.6875 L 299.75 173.46875 L 296.71875 173.46875 L 295.21875 176.75 L 292.1875 182.0625 L 290.9375 182.3125 L 289.15625 190.15625 L 284.625 194.4375 L 282.34375 194.9375 L 275 204.28125 L 274.5 205.8125 L 270.90625 210 L 268.1875 213.65625 L 264.96875 214.6875 L 256.34375 225.5 L 262.875 226.625 L 256.3125 239.375 L 254.8125 241.65625 L 253.28125 248.21875 L 252.78125 250.5 L 249 250.5 L 245.46875 263.625 L 243.4375 264.90625 L 238.15625 271.71875 L 230.8125 274.75 L 226.78125 279.78125 L 226.53125 285.59375 L 221.46875 290.65625 L 222.21875 294.6875 L 225.53125 294.9375 L 226.1875 296.40625 L 229.28125 297.4375 L 231.0625 302.03125 L 236 303.4375 L 239.1875 302.375 L 243.09375 305.5625 L 245.21875 309.125 L 246.65625 309.46875 L 245.9375 313.375 L 250.1875 319.75 L 254.4375 317.625 L 256.21875 314.09375 L 260.46875 313.375 L 259.75 315.84375 L 264.375 317.96875 L 268.25 316.5625 L 270.03125 316.5625 L 271.4375 319.40625 L 273.9375 318.6875 L 275.34375 319.75 L 267 335.375 L 270.71875 334.1875 L 276.25 334 L 280.90625 330.4375 L 280.90625 328.09375 L 285.1875 329.71875 L 289.09375 325.59375 L 290.34375 322.03125 L 296.4375 328.46875 L 298.21875 327.75 L 303.9375 331.15625 L 308.5625 328.28125 L 311.25 326.5 L 313.03125 324.53125 L 321.4375 326.6875 L 332.5 331.5 L 345.71875 331.5 L 349.28125 333.09375 L 353.03125 328.65625 L 349.46875 324.53125 L 346.78125 316.84375 L 343.5625 311.84375 L 333.03125 311.6875 L 322.5 313.65625 L 320.1875 312.40625 L 326.59375 304 L 327.5 300.4375 L 335 292.9375 L 336.59375 289 L 341.96875 286.6875 L 350.53125 277.75 L 351.96875 271.6875 L 357.3125 271.6875 L 355.53125 267.40625 L 359.09375 269.1875 L 362.84375 264.53125 L 368.9375 267.5625 L 375.90625 266.6875 L 380.1875 265.0625 L 384.8125 257.5625 L 382.3125 251.84375 L 392.5 242.21875 L 396.59375 241.15625 L 400.34375 235.0625 L 399.46875 233.09375 L 402.84375 231.6875 L 403.75 226.84375 L 408.75 222.9375 L 412.84375 222.75 L 411.59375 217.5625 L 412.6875 215.4375 L 410.53125 209.34375 L 405.71875 199 L 405.71875 195.59375 L 407.6875 192.21875 L 400.71875 188.8125 L 396.78125 185.25 L 398.40625 180.78125 L 393.9375 176.3125 L 390.1875 167.21875 L 397.5 160.59375 L 398.21875 154.1875 L 398.75 151.3125 L 396.0625 151.5 L 393.21875 149.90625 L 388.40625 148.46875 L 382.5 142.21875 L 383.5625 139.53125 L 379.65625 139.90625 L 374.65625 138.28125 L 372.6875 134 L 368.40625 131.84375 L 370.90625 126.84375 L 369.8125 124.1875 L 364.65625 123.28125 L 362.5 122.5625 L 356.4375 125.96875 L 347.5 125.0625 L 345.34375 123.03125 L 343.71875 123.71875 L 342.9375 125.25 L 341.4375 125.25 L 341.4375 119.9375 z "
       id="path2199"
       transform="translate(205.14285,190.00502)" />
    <path
       style="fill:none;fill-rule:evenodd;stroke:#000000;stroke-width:1px;stroke-linecap:butt;stroke-linejoin:miter;stroke-opacity:1"
       d="M 240.53571,419.89286 L 240.53571,419.89286 z "
       id="path2190"
       transform="translate(205.14285,190.00502)" />
    <path
       style="fill:#000000;fill-rule:evenodd;stroke:#000000;stroke-width:1px;stroke-linecap:butt;stroke-linejoin:miter;stroke-opacity:1;fill-opacity:0.64245808"
       d="M 118.4375 312.71875 L 118.6875 312.875 L 124 313.375 L 125 315.40625 L 129.3125 310.59375 L 131.8125 309.09375 L 133.03125 302.4375 L 129.8125 302 L 128.03125 303.28125 L 126.28125 302 L 125.25 300.5 L 123.25 302 L 116.40625 302.53125 L 115.40625 303.78125 L 115.65625 306.3125 L 118.4375 309.34375 L 118.4375 312.71875 z "
       id="path2216"
       transform="translate(205.14285,190.00502)" />
    <path
       style="fill:none;fill-rule:evenodd;stroke:#000000;stroke-width:1;stroke-linecap:butt;stroke-linejoin:miter;stroke-opacity:1;stroke-miterlimit:4;stroke-dasharray:none"
       d="M 119.5 427.71875 L 120.96875 426.53125 L 123.5 426.53125 L 124.75 423.75 L 126.78125 422.46875 L 132.59375 424.5 L 129.3125 429.28125 L 130.8125 430.8125 L 126.03125 435.09375 L 124.75 437.875 L 128.53125 441.65625 L 125.25 447.21875 L 126.28125 449.25 L 128.78125 449.75 L 129.0625 451.78125 L 124.5 459.59375 L 124.25 465.90625 L 127.53125 466.40625 L 127.78125 471.21875 L 129.5625 470.71875 L 131.0625 464.90625 L 135.375 461.875 L 141.40625 462.625 L 143.1875 457.3125 L 146.46875 456.0625 L 146.46875 452.53125 L 149.25 451.53125 L 152.09375 449.75 L 152.28125 446.71875 L 153.78125 443.1875 L 151.03125 442.4375 L 147.75 448.25 L 146.46875 446.96875 L 148.75 441.90625 L 148 439.40625 L 150 433.09375 L 151.28125 427.53125 L 147.21875 426 L 149.5 418.4375 L 148.25 413.625 L 144.4375 410.09375 L 147.75 403.28125 L 144.96875 398.5 L 139.90625 399.5 L 136.875 396.71875 L 133.59375 399 L 128.03125 401 L 124 401 L 118.6875 403.28125 L 114.40625 403.53125 L 114.15625 404.8125 L 111.625 405.3125 L 106.8125 403.03125 L 102.78125 401.78125 L 105.34375 407.21875 L 101.78125 409 L 99.65625 412.21875 L 102.84375 414.71875 L 99.65625 417.5625 L 105 422.9375 L 106.78125 420.0625 L 113.21875 421.15625 L 113.9375 416.15625 L 119.28125 417.5625 L 119.65625 420.0625 L 121.78125 421.15625 L 119.28125 422.9375 L 119.5 427.71875 z "
       id="path7086"
       transform="translate(205.14285,190.00502)" />
    <path
       style="fill:none;fill-rule:evenodd;stroke:#000000;stroke-width:1;stroke-linecap:butt;stroke-linejoin:miter;stroke-opacity:1;stroke-miterlimit:4;stroke-dasharray:none"
       d="M 266.03125 337.21875 L 264.375 340.3125 L 264.53125 340.625 L 264.65625 340.4375 L 266.03125 337.21875 z "
       id="path15875"
       transform="translate(205.14285,190.00502)" />
    <path
       style="fill:none;fill-rule:evenodd;stroke:#000000;stroke-width:1;stroke-linecap:butt;stroke-linejoin:miter;stroke-opacity:1;stroke-miterlimit:4;stroke-dasharray:none"
       d="M 196.375 332.8125 L 192.8125 333 L 194.46875 333.34375 L 196.21875 333.34375 L 196.375 332.8125 z "
       id="path16897"
       transform="translate(205.14285,190.00502)" />
    <path
       style="fill:none;fill-rule:evenodd;stroke:#000000;stroke-width:1;stroke-linecap:butt;stroke-linejoin:miter;stroke-opacity:1;stroke-miterlimit:4;stroke-dasharray:none"
       d="M 159.75 257.5625 L 165.125 254.5625 L 165.5 252.4375 L 172.9375 249.21875 L 177.1875 249.21875 L 183.90625 251.71875 L 193.125 251.34375 L 195.25 249.9375 L 200.21875 249.9375 L 199.5 252.4375 L 196.3125 256.3125 L 198.8125 258.8125 L 198.4375 261.28125 L 203.40625 260.9375 L 209.4375 259.5 L 211.90625 259.5 L 213.6875 261.28125 L 216.15625 257.375 L 220.40625 258.09375 L 224.6875 258.09375 L 227.5 264.46875 L 230 263.40625 L 234.9375 259.15625 L 236.71875 259.15625 L 238.125 255.25 L 244.09375 264.5 L 245.46875 263.625 L 249 250.5 L 252.78125 250.5 L 253.28125 248.21875 L 254.8125 241.65625 L 256.3125 239.375 L 256.84375 238.375 L 255.8125 232.8125 L 251.03125 229.78125 L 239.40625 225.5 L 237.375 226 L 235.125 228.28125 L 230.8125 228.28125 L 229.0625 229.78125 L 221.96875 229.53125 L 219.46875 226.25 L 219.71875 221.71875 L 212.625 217.40625 L 207.09375 217.40625 L 205.5625 215.65625 L 205.3125 219.6875 L 200.78125 219.4375 L 200.25 215.65625 L 195.96875 214.375 L 193.1875 216.15625 L 192.6875 218.1875 L 187.125 218.1875 L 182.34375 214.875 L 175.78125 214.875 L 171.96875 210.09375 L 165.15625 209.75 C 158.81843 210.5295 159.59375 226.5 159.59375 226.5 L 157.84375 229.03125 L 161.625 233.3125 L 162.375 235.84375 C 166.66815 247.71304 161.375 251.5 161.375 251.5 L 161.375 255.8125 L 159.75 257.5625 z "
       id="path15913"
       transform="translate(205.14285,190.00502)" />
    <g
       id="g18985"
       transform="translate(208.48296,57.132348)" />
    <g
       id="g18998"
       transform="translate(234.54333,92.213615)" />
  </g>
</svg>
